<?xml version="1.0" encoding="utf-8"?>
<svg xmlns="http://www.w3.org/2000/svg" xml:space="preserve" id="Layer_1" x="0" y="0" version="1.1" viewBox="0 0 596.2 538.3">
	<path d="M462.1 6.9c38 33.9 72.9 71.9 96.8 117.1 23.7 44.5 33.6 95 29.9 145.4-3.7 49.5-20.5 97.5-49.2 137.9-26.8 37.7-62.9 68.8-104 90.3-42.7 22.1-90 33.9-137.9 33.6-51.1-.3-101.8-13.4-147-36.7-20.9-10.9-41.4-23.7-58.5-40.2-15.9-14.9-29-32.7-40.5-51.1-10.3-16.5-19-33.6-26.2-51.4-6.5-15.8-10.8-31-13.7-47.8C2.2 250.1 5 194.1 25.5 143c17.7-43.9 47.3-83.1 83.1-114.3 8.7-7.5 17.7-14.6 27.1-21.2 3.1-2.2-.6-8.4-4-5.9-39.9 28-73.8 64.5-97.5 107.1-11.8 21.2-20.8 44-26.4 67.3-6.9 28.3-9 57.3-7.2 86.2 1.2 23.4 4.7 47.3 11.5 70.1 5 16.8 12.1 33 19.9 48.6 9.7 19.3 21.2 37.7 34.6 54.5 14.3 17.7 30.5 33.3 49.5 46.1 43.3 29 93.1 48 144.8 54.5 49.8 6.2 100.6.3 147.3-17.7 44.2-17.1 84.4-44.8 116.1-80 33.3-37.1 56-82.5 66-131.4 10.3-49.8 7.2-102.8-10-150.7-17.7-49.2-49.8-91.9-86.6-128.3-9-9-18.1-17.7-27.7-26.2-3.6-2.9-7 2.7-3.9 5.2"/>
	<path d="M356.2 33.7c5 9.7 10.6 19 16.8 28 .9 1.6 2.8 2.2 4.4.9s1.6-3.4.3-5c-5.9-9-11.5-18.4-16.8-28-.9-1.6-3.1-2.2-4.4-.9-1.2 1.6-.9 3.8-.3 5"/>
	<path d="M377.4 64.5c5.6-2.2 11.2-4 16.8-6.2 5.6-1.9 11.2-3.7 16.8-5.9 3.7-1.2 1.2-7.8-2.5-6.5-11.5 3.4-22.7 7.8-33.6 12.5-3.4 1.2-.9 7.4 2.5 6.1"/>
	<path d="M410.4 51.8c1.9 3.4 4 6.9 5.9 10.3.9 1.6 1.9 3.4 2.8 5 1.2 2.2 2.5 5.3 5 5.3.9 0 1.9-.9 2.2-1.6.9-2.5-1.2-5.3-2.5-7.2-.9-1.6-1.9-3.4-2.8-5-1.9-3.4-4-6.9-5.9-10.3-.9-1.2-3.1-2.2-4.4-.9-1.2.9-.9 2.8-.3 4.4"/>
	<path d="M423.2 68.9c-4 1.9-8.1 4-12.1 6.2-2.2 1.2-4 2.2-6.2 3.4-1.9 1.2-4 2.2-5.9 3.7-1.2.9-1.2 3.1-.6 4.4s2.5 2.5 3.7 1.9c4-2.2 7.8-4.7 11.5-6.9 4-2.2 7.8-4.4 11.8-6.2 1.6-.9 2.2-2.5 1.6-4.4-.4-1.5-2.3-3-3.8-2.1"/>
	<path d="M397.9 88.5c4 6.2 8.1 12.5 11.8 18.7 1.9 3.1 3.4 6.2 5.3 9.3 1.9 3.4 3.4 6.8 5.3 10 1.9 3.4 6.5.6 5.3-2.8-1.6-3.4-3.4-6.8-5.3-10.3-1.9-3.4-3.7-6.5-5.6-10-3.7-6.5-7.8-12.8-12.1-19-.9-1.2-2.8-2.2-4-.9-1.6 1.3-1.6 3.5-.7 5"/>
	<path d="M422.5 125.6q0 .45 0 0c.3-.6.6-1.2.9-2.2h-.3c.3 0 .6-.3 1.2-.3h-.3c.3 0 .6.3 1.2.3h-.3c.3.6.9.9 1.2 1.6v-.3c0 .9-.3 1.6-.3 2.5 0 0 0-.3.3-.3l-.9.9c1.9-.9 4.4-1.6 6.2-2.5 2.2-.9 4.4-1.9 6.5-2.8 4.4-1.9 9-3.7 13.4-5.3 4.7-1.6 9-3.4 13.7-5 2.2-.6 4.4-1.6 6.5-2.2 2.5-.9 5-1.2 7.2-2.8 2.5-1.6.3-6.2-2.2-5.9-2.8.3-5.9 1.6-8.4 2.5-2.8.9-5.6 1.9-8.4 2.8-5.3 1.9-10.6 4-15.9 6.2s-10.6 4.4-15.6 6.5c-2.2.9-6.2 2.2-6.5 5-.3 2.2 2.2 5.3 4.4 3.4.9-.9.9-1.9.6-2.8v-.3c-.7-2.5-4.5-1.8-4.2 1"/>
	<path d="M476.1 104.7c3.1 8.7 7.2 17.4 11.5 25.5.6 1.2 2.5 1.9 3.7 1.6 9.3-4.4 19-8.7 28.6-12.5 3.7-1.6 1.2-8.1-2.5-6.5-9.7 3.7-19.3 7.8-28.6 12.5 1.2.6 2.5.9 3.7 1.6-4-7.8-7.8-15.6-10.9-23.7-.6-1.6-2.2-2.8-3.7-2.2-1.8.3-2.4 2.1-1.8 3.7"/>
	<path d="M522.8 113.7c-1.2-4.4-2.8-8.7-4-13.1-.6-2.2-1.2-4-1.9-6.2-.6-1.9-1.9-4-1.9-5.9 0 .6 0 1.2-.3 1.6 0 0-.6.3 0 0 .3-.3.6-.3 1.2-.6.9-.3 1.6-.9 2.5-1.2 1.6-.9 3.4-1.9 5-2.5 3.4-1.9 6.9-3.4 10-5.3 2.8-1.9 0-7.5-3.1-5.9-4 1.9-7.8 4-11.8 5.9-1.9.9-4 2.2-5.9 3.1-2.2 1.2-4 2.5-3.7 5.3 0 2.2 1.2 4.4 1.9 6.5.6 2.2 1.6 4.7 2.2 6.9 1.6 4.7 3.1 9 4.7 13.7.6 1.6 2.2 2.8 3.7 2.2 1.4-1 1.7-2.9 1.4-4.5m-103.7 12.8c2.5 8.1 7.8 14.9 10.6 23.4.6-1.6.9-2.8 1.6-4.4-9.3 3.7-19 5.9-28 10-3.7 1.6-1.2 8.1 2.5 6.5 9-3.7 19-6.2 28-10 1.9-.6 2.2-2.8 1.6-4.4-2.5-8.1-8.1-14.9-10.6-23-.6-1.6-2.2-2.8-4-2.2-2 .4-2.3 2.5-1.7 4.1"/>
	<path d="M401.4 160.1c4 10.9 8.4 21.8 12.5 32.7 1.6 4.4 3.7 11.2 10 10.3 2.8-.3 5.3-1.2 8.1-2.2 2.8-.9 5.6-1.6 8.4-2.5 6.2-1.9 12.8-3.4 19-5.3 3.7-.9 1.2-7.8-2.5-6.9-6.5 1.9-13.1 3.7-19.6 5.6-3.4.9-6.9 1.9-10 2.8-1.6.3-2.8.9-4.4 1.2-.9.3-1.2 0-1.6-.9-1.2-2.5-2.2-5.6-3.1-8.1-1.2-3.1-2.5-6.5-3.7-9.7-2.5-6.2-5-12.8-7.5-19-.6-1.6-2.2-2.8-3.7-2.2-1.9.8-2.6 3-1.9 4.2"/>
	<path d="M455.9 191.9c3.7 6.5 7.5 13.1 10.9 19.6 3.7 6.5 7.2 13.4 10.9 19.9.9 1.6 3.1 2.2 4.4.9 1.6-1.2 1.2-3.4.3-5-3.4-6.9-7.2-13.1-10.9-19.9-3.7-6.5-7.5-13.1-11.2-19.6-.9-1.6-2.8-2.2-4-.9-1.4 1.6-1.4 3.7-.4 5"/>
	<path d="M484.5 232.4c8.4-5.9 16.8-11.5 25.5-17.1 4.4-2.8 8.4-5.6 12.8-8.1 2.2-1.2 4.4-2.8 6.5-4 .9-.6 2.2-1.2 3.1-1.9 1.2-.6 2.5-1.2 3.4-2.5 1.2-2.2 0-5.3-2.8-5.3-1.6 0-2.5.9-3.7 1.6-1.2.6-2.5 1.6-3.4 2.2-2.2 1.2-4.4 2.8-6.5 4-4.4 2.8-8.7 5.6-13.1 8.4-8.7 5.6-17.1 11.5-25.5 17.7-2.8 1.2.6 7.1 3.7 5"/>
	<path d="M531.2 195.9c2.5 5 4.7 10 7.2 14.9 2.5 5 4.7 10 7.2 14.9 1.2 2.2 3.1 3.7 5.6 3.7s5-1.6 7.5-2.8c5-2.2 10-4.4 14.6-6.9 3.4-1.9 1.2-8.4-2.5-6.8-4.4 1.9-8.7 4-13.1 5.9-2.2.9-4.4 1.9-6.2 2.8-.3 0-.6.3-.6.3s.3.3.3 0c0-.6-.9-1.9-1.2-2.5-4.4-8.7-8.4-17.4-12.8-26.2-.6-1.6-2.2-2.8-4-2.2-2 1.5-2.6 3.7-2 4.9"/>
	<path d="M577.6 214.9c-1.6-7.8-3.4-15.6-5.3-23.4-.3-1.9-.9-3.7-1.2-5.6 0-.3-.3-.9-.3-1.2.3-.3 1.2-.9 1.6-1.2 3.4-2.5 6.5-5 10-7.2 3.1-2.2-.6-8.4-4-5.9-3.4 2.8-7.2 5-10.6 7.8-1.6 1.2-2.8 2.5-3.1 4.4-.3 2.2.3 4.7.9 6.8 2.2 8.7 4 17.4 6.2 25.8.3 1.6 1.6 3.1 3.4 3.1 1.5-.3 2.7-1.8 2.4-3.4m-100 15.9c2.2 9 4.7 17.7 7.8 26.5 1.6 4.4 3.4 8.7 5.3 12.8 1.6 3.4 3.1 10 8.1 9.3 2.2-.3 4-1.6 5.9-2.5 2.5-1.2 4.7-2.2 7.2-3.4 4.4-2.2 8.7-4 12.8-6.2 2.2-.9 4-1.9 6.2-2.8.3 0 2.5-.9 2.8-1.2-.3 0-.6-.3-.9-.3l.9 2.2c.9 1.9 1.9 4 2.8 5.9.6.9.9 2.2 1.6 3.1 0 0 .6 1.9.3.6 0-.6 0-.6-.3-.3s-.6.3-.9.6c-7.8 5.9-16.2 11.2-25.2 15.6-1.6.9-2.2 2.8-1.6 4.4s2.5 3.1 4 2.2c8.4-4.4 16.5-9 24.3-14.6 1.6-1.2 3.7-2.5 5-4.4 1.6-2.5.6-5.3-.6-7.5-.9-2.2-1.9-4.4-2.8-6.2-.9-2.2-1.9-5-3.7-6.8-1.9-1.9-4-1.9-6.2-1.2-2.5.9-4.7 2.2-6.9 3.4-4.4 2.2-9 4.4-13.4 6.5-2.2.9-4.4 2.2-6.5 3.1-1.2.6-2.5 1.2-3.4 1.6-.3.3-1.6.6-1.9.9-.6 0-.6.3 0 .6-.3 0-2.5-5.6-2.8-6.2-.9-2.2-1.9-4.7-2.8-6.9-4-10-7.2-20.2-9.7-30.5-.7-3-6.3-2-5.4 1.7"/>
	<path d="M509.4 295.6c4 18.7 8.4 37.7 12.8 56.4.3 1.6 1.6 3.4 3.4 3.4s3.1-1.9 2.5-3.7c-4.4-18.7-8.7-37.7-12.8-56.4-.3-1.6-1.6-3.4-3.4-3.1-1.6-.1-2.8 1.5-2.5 3.4"/>
	<path d="M529 356.3c6.5-4 13.1-8.4 19.6-12.5 6.5-4 13.1-8.1 19.3-12.5 3.1-2.2-.3-7.8-3.7-5.9-6.5 3.7-13.1 8.4-19.3 12.5-6.5 4-12.8 8.4-19.3 12.5-3.4 2.2 0 8.1 3.4 5.9"/>
	<path d="M565.1 329.5c1.9 5.9 3.4 11.8 5.6 17.4.6 1.6 2.5 2.8 4 2.2 1.9-.6 2.2-2.8 1.6-4.4-1.9-5.9-3.7-11.5-5.6-17.4-.6-1.6-2.2-2.8-4-2.2-1.9 1-2.2 2.9-1.6 4.4m-39.8 22.4c-3.4 8.4-7.2 16.5-10.6 24.9-1.6 3.4-2.8 7.5-4.7 10.6-1.6 3.1-3.7 5.3-7.2 6.2-3.7.9-7.8.6-11.5.9-2.2.3-4 .6-5.9.9-2.2.3-4.4.6-6.2 1.2-4 1.9-4 7.2-5 11.2-.3 2.2-.9 4.4-1.2 6.5-.3 2.2-1.2 4.4-1.2 6.5-.3 2.5.9 5.3 3.4 6.2 2.2.9 4.7.6 6.9.6 5 .3 10.3.6 15.3.9 1.9 0 2.8-2.2 2.8-3.7-.3-1.9-1.6-3.4-3.4-3.4-4-.3-8.4-.3-12.5-.6-2.2 0-4-.3-6.2-.3h-1.2c-.6.3.6 2.8 1.2 1.9.3-.9.3-2.2.6-3.1.9-4 1.9-8.1 2.5-12.1.3-.9.3-3.1.9-3.4.3-.3 1.6-.3 1.9-.3.9-.3 2.2-.3 3.1-.6 4-.6 8.1-.9 12.1-1.2 3.7-.3 7.5-.6 10.6-2.8 5.6-3.7 8.1-11.5 10.6-17.4 3.7-8.7 7.5-17.4 11.2-26.2.5-3.7-4.8-7.1-6.3-3.4"/>
	<path d="M493.5 425.7c-3.1 7.5-5.9 14.9-9 22.4-1.6 3.7-2.8 7.2-4.4 10.9s-3.4 7.8-4.4 11.5c-1.2 3.7 3.7 7.2 5.6 3.1 1.9-3.7 3.1-7.5 4.4-11.2 1.6-3.7 2.8-7.5 4.4-11.2 2.8-7.5 5.9-14.9 8.7-22.4 1.6-3.7-3.7-7.1-5.3-3.1M355.9 27.8c-6.2 1.9-12.5 4.4-18.4 6.9s-12.1 5-18.1 8.4c-2.8 1.9 0 7.8 3.1 6.2 5.9-2.5 11.5-5.6 17.4-8.1s12.1-4.7 18.1-6.9c4.1-1.2 1.6-7.7-2.1-6.5"/>
	<path d="M324.1 44.9c-1.9-5.6-4-10.9-6.5-16.5-1.2-2.5-2.2-5.6-3.7-7.8-1.9-2.8-4.7-2.5-7.5-1.9-5.9 1.2-11.8 2.5-17.7 4-2.8.6-5.6.9-8.4 1.9-2.8.9-4 3.7-3.7 6.5.3 3.1.9 6.5 1.2 9.7.3 1.6.3 3.1.6 4.7.3 1.2.6 3.4.6 4.4.3-.6.3-.9.6-1.6.3-.3.6-.3.9-.6.6 0 .9.3 1.6.3h-.3c.6.6 1.2 1.2 1.9 2.2v-.3c-.6-1.6-2.2-3.1-4-2.2-1.6.6-2.2 2.8-1.6 4.4 1.2 2.8 4.7 4.4 6.9 1.2 1.6-2.2.3-5.9 0-8.4-.3-2.8-.6-5.6-.9-8.7-.3-1.2-.3-2.8-.6-4 0-.3 0-1.2-.3-1.2-.3.3.3 0 .3 0 1.2 0 2.5-.6 3.7-.9 1.6-.3 2.8-.6 4.4-.9 2.8-.6 5.6-1.2 8.4-1.9 2.8-.6 5.6-1.2 8.4-1.9.3 0 1.6 0 1.6-.3l-.6-.6s1.6 3.7 1.9 4c2.8 5.9 5.3 11.8 7.5 18.1.6 1.6 2.2 2.8 4 2.2 1.3-.1 1.7-2.3 1.3-3.9"/>
	<path d="M278.1 49.3c-10.6 2.5-21.5 4.4-32.4 5.6-1.9.3-2.8 1.9-2.5 3.7 1.6 11.2 2.8 22.7 4.7 33.9.3 1.6 1.6 3.4 3.4 3.4 1.9 0 2.8-1.9 2.5-3.7-1.2-11.5-3.1-22.7-4.7-33.9-.9 1.2-1.9 2.5-2.5 3.7 11.5-1.2 22.7-3.4 33.9-6.2 3.5-1.2 1.3-7.5-2.4-6.5"/>
	<path d="M252.2 96.6c10.9-4 21.8-8.1 32.7-12.1-1.2-.6-2.8-1.6-4-2.2 1.2 4.7 2.8 9.3 4 14.3.3 1.2.6 2.5.9 3.7.3.6.3 2.5.9 3.1.3.6 0-.3.3-.3 0 0-.6.3-.9.3-1.2.3-2.2.6-3.4.9-9 2.5-18.4 3.7-27.4 6.2-1.2.3-2.2 2.2-1.9 3.4 2.5 15.9 5 31.4 7.5 47.3.3 1.9 1.6 3.4 3.4 3.4s2.8-1.9 2.8-3.7c-2.5-15.9-5-31.4-7.5-47.3-.6 1.2-1.2 2.5-1.9 3.4 5-1.6 10.3-2.5 15.3-3.4 5.3-.9 10.6-1.9 15.6-3.7 2.5-.9 4-2.8 4.4-5.6 0-2.8-1.2-5.6-1.9-8.4-1.6-5.3-3.1-10.6-4.7-16.2-.3-1.6-2.5-2.8-4-2.2-10.9 4-21.8 8.4-32.7 12.8-3.4 1.3-.9 7.6 2.5 6.3"/>
	<path d="M268.1 165.4c10-2.5 19.9-4.7 29.9-7.2s19.9-4.7 29.9-7.2c1.9-.6 2.2-2.8 1.6-4.4-.6-1.9-2.2-2.8-4-2.2-10 2.2-19.9 5-29.9 7.2-10 2.5-19.9 5-29.6 7.5-1.6.3-1.9 2.8-1.6 4 .3 2 1.8 2.9 3.7 2.3"/>
	<path d="M331.6 146.7c-1.2-10-2.8-19.9-4-30.2-.6 1.2-1.2 2.2-1.9 3.4 9.3-2.8 19-5.6 28.3-8.1.6-.3 1.2-.3 2.2-.3 0 0 0-.6.3.3 0 .3.3.6.3.6.9 2.2 1.6 4.7 2.5 6.8 1.6 4.7 3.1 9.3 4.7 14 .6 1.6 2.5 2.8 4 2.2 1.9-.6 2.2-2.8 1.6-4.4-1.9-5.3-3.7-10.6-5.3-15.9-1.6-4.7-2.8-11.2-9-10.9-2.5 0-5 1.2-7.2 1.9-2.8.9-5.3 1.6-8.1 2.5-5.3 1.6-10.9 3.1-16.2 4.7-1.2.3-1.9 2.2-1.9 3.4 1.2 10 2.8 19.9 4 30.2.3 1.6 1.6 3.4 3.4 3.1 1.7.2 2.6-1.7 2.3-3.3"/>
	<path d="M369.9 135.8c16.8-3.7 33.6-7.2 50.8-10 1.9-.3 2.8-1.9 2.5-3.7-.3-1.6-1.6-3.7-3.4-3.4-17.4 2.8-34.9 6.2-52.3 10.6-1.6.3-1.9 2.8-1.6 4 .6 2.2 2.1 3.2 4 2.5m-107.7 28.1c.3 11.8 1.2 24 3.1 35.8.6-1.2 1.2-2.2 1.9-3.4-5.9 1.9-11.5 3.4-17.1 5.3s-11.5 3.1-16.8 5.3c-2.2.9-4 2.2-5.3 4-1.6 2.8-.9 5.9-.6 8.7.9 5.9 1.9 11.5 3.1 17.1 1.2 6.5 2.8 13.1 4.4 19.6.3 1.6 1.6 3.7 3.4 3.4 12.5-2.5 24.6-4.7 37.1-6.8 1.9-.3 2.8-1.9 2.8-3.7-.3-1.6-1.9-3.7-3.7-3.4-12.5 2.2-24.9 4.4-37.1 6.9 1.2.9 2.2 1.6 3.4 2.5-2.5-10.3-4.7-20.9-6.5-31.4-.3-2.5-1.2-5.3-1.2-7.8 0-1.6 1.9-2.2 3.1-2.5 5-1.9 10.3-3.1 15.6-5 5.9-1.9 12.1-3.7 18.1-5.6 1.2-.3 2.2-2.2 1.9-3.4-1.6-11.8-2.8-23.7-3.1-35.8 0-1.6-1.9-3.4-3.4-3.4-2.5.1-3.1 2-3.1 3.6"/>
	<path d="M272.1 250.1c4 15.6 8.7 31.1 14.3 46.4.6 1.6 2.5 3.1 4 2.2 1.9-.6 2.2-2.8 1.6-4.4-5.6-15.3-10.3-30.5-14.3-46.4-.3-1.6-2.5-2.8-4-2.2-1.9.7-1.9 2.9-1.6 4.4"/>
	<path d="M292.1 299.6c21.8-2.5 43.6-6.9 64.5-13.1 5.9-1.9 11.8-3.7 17.7-5.6 3.7-1.2 1.2-8.1-2.5-6.8-20.2 6.8-41.1 12.5-62.3 15.9-6.2.9-12.1 1.9-18.4 2.5-4 .9-2.8 7.7 1 7.1"/>
	<path d="M378.3 275.3c-1.6-12.1-4.4-24.3-8.4-36.1-.6 1.6-.9 2.8-1.6 4.4 15.3-3.7 30.5-7.8 45.5-11.8-1.2-.6-2.8-1.6-4-2.2 3.4 8.7 5.9 17.7 7.5 27.1.3 1.9 1.6 3.4 3.4 3.4s3.1-1.9 2.8-3.7c-1.9-10-4.4-19.6-7.8-29-.6-1.6-2.2-2.8-4-2.2-14.9 4.4-30.2 8.1-45.5 11.8-1.9.3-2.2 3.1-1.6 4.4 3.7 11.2 6.5 22.4 8.1 34.3.3 1.6 1.6 3.4 3.4 3.1 1.6 0 2.5-1.9 2.2-3.5"/>
	<path d="M422.8 260.1c20.9-7.8 41.1-16.5 61-26.5 1.6-.9 2.2-2.8 1.6-4.4s-2.5-3.1-4-2.2c-19.9 10-40.2 18.7-60.7 26.8-4.1 1-1.6 7.5 2.1 6.3m-136.6 37c.9 8.4 2.2 16.8 3.7 24.9 1.6 8.4 3.4 16.8 6.2 24.9.6 1.6 2.5 2.8 4 2.2 1.9-.6 2.2-2.8 1.6-4.4-1.9-7.8-4.4-15.6-5.9-23.7s-2.8-16.2-3.7-24.3c-.3-1.6-1.6-3.4-3.4-3.4-1.9.4-2.9 2.3-2.5 3.8"/>
	<path d="M300.5 347.6c5.6-.9 11.5-2.2 17.1-3.4s11.2-2.2 16.8-3.4 11.2-2.5 16.8-3.4c.9 0 .9 0 .3-.9-1.2-1.2-.3-.6-.6-.3 0 .3.3 1.2.3 1.2.3 1.6.3 2.8.6 4.4.3 2.8.9 5.9 1.2 8.7.9 6.5 1.9 13.1 2.8 19.6.9-1.2 1.9-2.5 2.8-3.7-11.8 2.2-23.7 4.7-35.2 7.5-2.8.6-5.9 1.6-8.7 2.2s-5.6 1.2-6.5 4.4c-.6 2.8.3 5.9.9 8.7s1.2 5.9 1.9 8.7c1.6 6.5 3.1 13.1 5.3 19.6.6 1.6 2.5 3.1 4 2.2 1.9-.6 2.2-2.8 1.6-4.4-3.1-10-5.6-20.2-7.5-30.5 0-.3 0-1.6-.3-1.9s.3-.6-.3.3-.3.3 0 .3c1.2-.3 2.5-.6 3.7-.9 2.8-.6 5.3-1.2 8.1-1.9 5.3-1.2 10.6-2.5 15.9-3.4 5.9-1.2 11.8-2.5 18.1-3.4 1.9-.3 2.8-1.9 2.8-3.7-.9-6.2-1.9-12.5-2.8-19-.3-3.1-.9-6.2-1.2-9.3-.3-2.8-.3-6.5-1.9-9-2.2-3.1-5.3-2.5-8.4-1.6-3.1.6-6.2 1.2-9.3 1.9-6.2 1.2-12.5 2.5-18.4 3.7-6.9 1.6-14 2.8-20.9 4.7-3.7.4-2.1 6.3 1 6"/>
	<path d="M321 418.2c3.4 1.2 6.9.6 10.3.6 3.4-.3 6.9-.3 10.3-.6 6.9-.6 13.7-1.2 20.2-2.2 13.7-1.9 27.1-4.4 40.5-7.5 1.2-.3 2.2-2.2 1.9-3.4-2.2-10.6-4-21.5-5-32.4-.6 1.2-1.2 2.5-1.9 3.4 15.3-4.7 30.8-9.3 46.1-14.3-1.2-.6-2.8-1.6-4-2.2 3.4 7.8 5.9 15.6 7.5 24 .3 1.9 1.6 3.4 3.4 3.4s2.8-1.9 2.8-3.7c-1.6-9-4-17.7-7.8-25.8-.6-1.6-2.2-2.8-4-2.2-15.3 4.7-30.8 9.3-46.1 14.3-1.6.3-1.9 2.2-1.9 3.4 1.2 10.9 2.8 21.8 5 32.4.6-1.2 1.2-2.5 1.9-3.4-13.1 3.1-26.2 5.6-39.5 7.5-6.5.9-13.1 1.6-19.6 2.2-3.4.3-6.9.6-10.3.9s-6.9 0-10 1.6c-2.6.3-1.6 3.4.2 4"/>
	<path d="M452.7 389.3c24.9-11.8 49.8-24 74.4-35.8 1.6-.9 2.2-2.8 1.6-4.4s-2.5-3.1-4-2.2c-24.9 12.1-49.5 24-74.4 36.1-1.6.9-2.2 2.5-1.6 4.4.6 1 2.5 2.5 4 1.9m-136 28.3c3.4 10.3 5.9 20.9 8.4 31.4.9-1.2 1.9-2.5 2.5-3.7-6.5.9-13.1 1.9-19.6 2.8-3.1.3-6.2.9-9 1.6-2.5.6-5 1.2-6.5 3.4-1.9 2.5-1.6 5.6-1.2 8.4.6 3.1.9 6.2 1.6 9.3 1.2 6.2 3.1 12.5 5 18.4.6 1.6 2.5 2.8 4 2.2 1.9-.6 2.2-2.8 1.6-4.4-1.9-5.3-3.4-10.6-4.4-15.9-.6-2.5-1.2-5.3-1.6-8.1-.3-1.2-1.2-4.4 0-5.3 1.2-1.2 3.4-1.2 5-1.6 2.8-.3 5.6-.9 8.4-1.2 5.9-.9 11.8-1.9 17.4-2.8 1.6-.3 3.1-1.9 2.5-3.7-2.5-11.2-5.6-22.4-9-33.3-.6-1.6-2.2-2.8-3.7-2.2-1.4 1-1.7 3.2-1.4 4.7"/>
	<path d="M302 492c6.5-.3 13.4-.9 19.9-1.6 6.5-.9 13.4-1.6 19.9-3.1 3.4-.9 1.6-7.5-1.6-6.9-6.5.9-12.8 2.2-19.3 3.1s-13.1 1.2-19.6 1.6c-4.2.1-3 6.9.7 6.9"/>
	<path d="M336.9 485.2c2.2 14 2.2 28.3.3 42.3-.6 4 5.6 6.2 6.2 1.6 2.2-14.6 1.9-29.6-.3-43.9-.3-1.6-1.6-3.4-3.4-3.4-1.9 0-3.1 1.8-2.8 3.4M94 193.8c18.7-1.9 37.4-3.4 56.4-5.3-1.2-1.2-2.5-2.2-3.4-3.4 1.2 6.5 2.2 13.4 3.4 19.9.6 3.1.6 6.2 1.9 9 1.2 3.1 4 4.7 7.2 5 3.1.3 6.5-.3 9.7-.3 3.4-.3 6.9-.3 10-.6 6.9-.3 13.7-.6 20.5-1.2 1.6 0 2.5-1.2 2.8-2.8.3-10.9.9-21.8 1.2-32.7-.6.9-1.2 1.9-1.9 2.5 21.2-5.6 42-11.8 62.9-18.1 3.7-1.2 1.2-8.1-2.5-6.8-20.9 6.5-41.7 12.5-62.9 18.1-.9.3-1.9 1.6-1.9 2.5-.3 10.9-.9 21.8-1.2 32.7l2.8-2.8c-12.1.6-24.6 1.2-36.7 2.2-1.2 0-2.5.3-3.7 0-.6-.3-.6-.3-.9-.9-.6-2.2-.9-5.3-1.2-7.8-.9-6.2-2.2-12.1-3.1-18.4-.3-1.6-1.6-3.4-3.4-3.4-18.7 1.9-37.4 3.7-56 5.6-4.6.7-3.7 7.3 0 7"/>
	<path d="M90.3 189.4c-1.2 13.7-1.9 27.4-1.6 41.1.9-1.2 1.9-2.5 2.5-3.7-9.3-.3-19 .6-28 2.2-1.6.3-2.5 1.2-2.8 2.8-.3 5.6-.6 11.2-.6 16.8 0 2.8 0 5.6.3 8.7 0 2.5 0 5 .6 7.5s1.6 5 4 6.2c2.2 1.2 5.3 1.2 7.8 1.6 5.6.6 10.9.9 16.5.6-1.2-1.2-2.5-2.2-3.7-3.4.6 15.9.9 31.8 1.6 47.6 0 1.9 1.9 3.4 3.7 3.4 1.9 0 2.8-1.9 2.8-3.7-.6-15.9-.9-31.8-1.6-47.6 0-1.9-1.9-3.4-3.7-3.4-4.7.3-9.3 0-14-.3-2.2-.3-4.4-.3-6.5-.9-.9-.3-.6 0-.9-.6s0-1.6-.3-2.5c-.6-9.3-.6-19 0-28.3l-2.8 2.8c9.3-1.6 18.7-2.5 28-2.2 1.9 0 2.8-2.2 2.5-3.7-.3-13.1 0-26.2 1.2-39.2.3-1.6-.9-3.7-2.5-4-.9-.6-2.5.6-2.5 2.2"/>
	<path d="M90.6 323.3c23.4-2.5 46.7-4.7 70.1-5.6-1.2-1.2-2.5-2.2-3.4-3.4.3 10.6.9 20.9 1.2 31.4 0 1.9 1.9 3.1 3.4 3.4 11.5 1.2 23 1.6 34.6.6 2.8-.3 5.6-.3 8.4-.6 2.5-.3 5.3-.3 7.2-2.2 1.9-1.6 2.8-4.4 3.1-6.8.3-2.8.3-5.3.6-8.1.3-6.5.9-13.1 1.2-19.6l-2.8 2.8c26.5-3.7 52.6-8.7 78.5-14.9 1.9-.3 2.2-3.1 1.6-4.4-.6-1.9-2.2-2.8-4-2.2-25.5 5.9-51.1 10.9-76.9 14.6-1.6.3-2.5 1.2-2.8 2.8-.3 6.8-.9 13.7-1.2 20.9 0 1.9-.3 3.4-.3 5.3 0 1.2 0 2.5-.6 3.7-.3.9-.9.9-1.9 1.2-1.6.3-3.1.3-4.4.6q-20.55 1.8-41.1 0c1.2 1.2 2.5 2.2 3.4 3.4-.3-10.6-.9-20.9-1.2-31.4 0-1.9-1.9-3.4-3.4-3.4-23.4.9-46.7 3.1-70.1 6.2-3.8-.2-2.6 6 .8 5.7"/>
	<path d="M87.8 323.6c5.9 15.6 11.5 31.1 17.4 46.4.6 1.6 2.5 2.8 4 2.2 8.4-2.5 17.1-4 25.8-3.7-1.2-.9-2.2-1.6-3.4-2.5 3.4 10.6 7.2 20.9 11.2 31.4.6-1.6 1.2-3.1 1.6-4.4-5.3 1.6-10.9 2.8-16.2 4.4-2.8.6-5.3 1.6-8.1 2.2-2.2.6-5.6.9-7.2 2.8-2.2 2.5-.9 5.6 0 8.4s1.9 5.3 2.8 8.1c1.9 5.3 3.7 10.9 5.6 16.2.6 1.6 2.5 3.1 4 2.5 1.9-.6 2.2-2.8 1.6-4.4-1.6-4.7-3.1-9.3-4.7-14-.6-2.2-1.6-4.7-2.2-6.9-.3-1.2-.6-2.2-1.2-3.4-.3-.9-.9-2.2-.9-3.1 0 .6 0 1.2-.3 1.9 0 .3-.6 0 0 0s1.2-.3 1.9-.6c1.2-.3 2.5-.6 3.7-.9 2.5-.6 5.3-1.2 7.8-2.2 5.3-1.2 10.6-2.8 15.6-4 1.9-.6 2.2-3.1 1.6-4.4-4-10.3-7.8-20.9-11.2-31.4-.3-1.6-1.9-2.5-3.4-2.5-9.3 0-18.7 1.6-27.4 4.4 1.2.6 2.8 1.6 4 2.2-5.9-15.6-11.8-30.8-17.4-46.4-.6-1.6-2.2-2.8-4-2.2-1.3.5-1.6 2.3-1 3.9"/>
	<path d="M127.1 436.3h61c-1.2-.9-2.2-1.6-3.4-2.5 1.6 5.3 3.4 10.3 5.3 15.6.9 2.5 1.9 5 3.1 7.5.9 2.5 1.9 5 3.4 7.2 3.4 4.7 9.3 3.7 14.6 3.4 5.9-.3 11.5-.3 17.4-.6 6.5-.3 12.8-.3 19.3-.6 1.9 0 3.1-2.2 2.8-3.7-1.9-8.7-3.4-17.4-5.3-26.2-.6 1.2-1.2 2.5-1.9 3.4 26.8-5.9 53.6-12.5 80-19.6 3.7-.9 1.2-7.8-2.5-6.9-26.5 7.2-53.2 13.7-80 19.6-1.2.3-2.2 2.2-1.9 3.4 1.9 8.7 3.4 17.4 5.3 26.2.9-1.2 1.9-2.5 2.8-3.7-13.4.3-27.1.9-40.5 1.2-1.9 0-4.4.6-5.6-1.2-1.6-2.8-2.5-6.2-3.7-9-2.5-5.9-4.7-12.1-6.5-18.4-.3-1.2-1.9-2.5-3.4-2.5-20.2 0-40.8 0-61 .3-4 .6-3.1 7.1.7 7.1"/>
	<path d="M120.5 435.1c3.1 6.2 6.2 12.1 9.3 18.4 1.6 3.1 3.1 6.2 4.7 9.3.9 1.6 1.6 3.1 2.5 4.7.6.9 1.9 2.8 1.9 3.7 0-.6 0-1.2.3-1.9-.3.6-1.6 1.6-2.2 2.2-.9.9-2.2 1.6-3.1 2.2-2.2 1.2-4.7 1.9-7.2 2.5-3.4.9-1.6 7.5 1.6 6.8 4.7-.9 9-3.1 12.8-5.9 2.2-1.6 4.4-3.7 3.7-6.5-.3-1.6-1.2-2.8-1.9-4.4-.6-1.2-1.2-2.5-1.9-3.7-5.3-10-10.3-20.2-15.6-30.2-1.8-3.5-6.8-.7-4.9 2.8m44.5 70.3c2.8-1.6 5.3-3.1 8.1-4.7.6-.3 1.2-.9 1.9-1.2l.6-.3c-.3 0-.6-.3-1.2-.3l.3.3c.9 1.2 2.2 2.5 3.1 3.7 4 4.7 8.1 9.3 12.1 13.7 2.8 2.8 6.5-1.6 4.4-4.4-4.7-5.6-9.7-10.9-14.6-16.2-1.2-1.2-2.2-3.1-4-3.4-1.9-.6-3.4.6-5 1.6-3.1 1.9-6.5 3.7-9.7 5.9-1.6.9-1.2 3.4-.3 4.7 1.2 1.3 2.8 1.6 4.3.6M7.2 294.3c7.5 4 14.9 8.4 22.4 12.1 1.9.9 4 1.2 5.3-.6 1.2-1.6 1.2-4 1.6-5.9.9-4.4 1.9-8.4 2.8-12.8-1.2.9-2.2 1.9-3.4 2.8 6.2.9 12.8 1.6 19 2.5-.9-1.6-1.9-2.8-2.8-4.4 0 5.3 0 10.6.6 15.9.3 2.2.3 5 1.2 6.9.9 2.5 2.8 4 5.3 4.7 2.2.6 4.7.9 6.9 1.6 2.5.6 5 1.2 7.8 1.6 5.3 1.2 10.6 2.2 15.9 3.4 4.4.9 4.7-6.2.6-7.2-9-1.9-18.4-3.7-27.4-5.9-.9-.3-3.1-.3-3.4-.9-.3-.3-.3-1.2-.3-1.9 0-.9-.3-2.2-.3-3.1-.3-4.7-.6-9-.6-13.7 0-1.6-.9-4-2.8-4.4-6.2-.9-12.8-1.6-19-2.5-1.9-.3-3.1.9-3.4 2.8-.6 2.8-1.2 5.6-1.9 8.7-.3 1.2-.6 2.8-.9 4s-.3 2.5-.9 3.7c.3-.3.6-.9.9-1.2H32c-.6-.3-1.6-.9-2.2-1.2-.9-.6-1.9-.9-2.8-1.6-1.9-.9-4-2.2-5.9-3.1-4-2.2-7.8-4-11.8-6.2-4-1.9-5.5 4.4-2.1 5.9m2.5-105.2c6.2.9 12.8 1.9 19 2.8 3.1.3 6.2.9 8.4-1.9 1.6-2.2 2.5-5 3.1-7.5.9-2.8 2.2-5.9 3.1-8.7.6-1.6 1.2-3.1 1.9-4.7.3-.9.6-.9 1.6-.9 6.5-.3 13.1-.6 19.6-.6-1.2-1.6-2.5-2.8-3.7-4.4-1.9 8.1-2.5 16.2-2.2 24.3 0 1.6 1.2 3.1 2.8 3.4 8.1 1.9 16.5 3.1 24.6 3.4 1.9 0 2.8-2.2 2.8-3.7-.3-1.9-1.6-3.4-3.7-3.4-7.8-.3-15.6-1.6-23-3.4.9 1.2 1.9 2.2 2.8 3.4-.3-7.5.3-14.9 2.2-22.4.3-2.2-1.6-4.4-3.7-4.4-6.2.3-12.5.6-19 .6-3.4 0-5.6 1.2-6.9 4.4-1.2 2.8-2.2 5.6-3.1 8.4s-2.2 5.9-3.1 8.7c-.3.6-.6 2.2-1.2 2.5s-2.2 0-2.8-.3c-6.2-.9-12.5-1.6-19-2.5-4.3-.3-4.3 6.6-.5 6.9m42.9-96.2c2.5.9 5.3 1.6 7.8 2.5 2.2.6 5 2.2 7.5 1.9 2.8 0 4-2.2 5.3-4.4.9-1.9 2.2-4 3.7-5.6 1.2-1.9 2.8-3.7 4.4-5.3 1.2-1.2 2.2-3.1 4.4-2.8 2.5.3 5 .9 7.5 1.2 1.2.3 2.8.6 4 .6.9.3 2.5.3 3.4.6l-1.2-1.2c-.9-1.2 0-1.6-.3-.6-.3.6-.3 1.2-.3 1.9-.3 1.2-.6 2.2-.9 3.4-.6 2.5-1.2 5-1.9 7.2-.6 2.2.6 5.3 3.4 5.3 7.2 0 14.3 0 21.8-.3 4.4 0 3.1-7.2-.9-7.2-7.2 0-14.3 0-21.8.3 1.2 1.9 2.2 3.4 3.4 5.3.6-2.8 1.2-5.6 1.9-8.1.6-2.5 1.9-5.6 1.6-8.1 0-1.2-.6-2.8-1.6-3.4-1.2-.9-2.5-1.2-4-1.6-2.8-.6-5.6-.9-8.1-1.6-2.5-.3-5.3-1.2-7.8-.9-2.8.3-4.7 2.2-6.2 4-3.4 3.7-6.2 7.5-8.7 11.8-.3.6-.6 1.2-.9 1.6 0 .3-.3.3-.3.6-.6.6.3 0 0 0-1.2 0-3.1-.9-4.4-1.2-3.3-.9-6.4-1.8-9.5-2.8-1.6-.6-3.1.9-3.4 2.5-1 1.9.3 3.8 2.1 4.4"/>
	<path d="M135.1 6.9c9.7 2.8 19 5.3 28.6 7.8-.6-1.9-1.6-4-2.2-5.9-12.1 20.9-23 42.3-33 64.1-2.8 6.2-5.6 12.5-8.4 19-1.6 3.7 4 7.5 5.9 3.4 9.3-21.8 19.3-43 30.5-63.8 3.1-5.9 6.5-11.8 10-17.7 1.2-2.2.3-5.3-2.2-5.9-9.7-2.5-19-5.3-28.6-7.8-4-.9-4 5.9-.6 6.8m225.5 25.3c13.7-4 27.4-7.8 41.1-11.8 1.6-.3 3.1-.9 4.7-1.2s3.4-1.2 5-1.6c.9 0 1.6.9 2.2 1.6 1.2 1.2 2.5 2.5 3.7 4 2.5 2.5 4.7 5 7.2 7.5 2.2 2.5 4.4 5 8.1 5 1.9 0 3.7-.6 5.3-1.2 1.9-.6 3.7-.9 5.6-1.6 3.7-.9 7.5-2.2 11.5-3.1 2.5-.6 2.2-3.7 1.2-5.3-3.1-5.6-6.5-11.2-9.7-16.5-.3 1.9-.9 3.4-1.2 5.3 5.3-1.9 10.9-3.4 16.2-5.3 3.7-1.2 1.2-8.1-2.5-6.9-5.3 1.9-10.9 3.4-16.2 5.3-2.2.6-2.2 3.7-1.2 5.3 3.1 5.6 6.2 11.2 9.7 16.5.3-1.9.9-3.4 1.2-5.3-3.4.9-6.5 1.9-10 2.8-3.4.9-6.5 2.2-10 2.8-1.2.3-1.6 0-2.2-.6l-3.7-3.7c-2.5-2.5-5-5-7.5-7.8-2.2-2.2-4-5-7.5-5.3-1.6-.3-3.4.3-5 .9-1.9.6-3.4.9-5.3 1.6-6.9 1.9-13.7 4-20.5 5.9-7.8 2.2-15.3 4.4-23 6.9-3.1.5-.6 7 2.8 5.8"/>
	<path d="M119.9 93.2c-1.6 3.7-2.5 7.8-2.8 11.8-.3 1.9 1.2 4.4 3.4 4.4 3.7-.3 7.5-.3 11.2-.3h2.8c.3 0 2.2.3 2.5 0h.3l-.9-.9c-.3 0 .3-.3 0 0-.3.6-.3 1.9-.3 2.5-1.2 7.5-2.2 14.9-3.4 22.7l2.8-2.8c-5.6.6-10.9 1.6-16.5 2.2-2.5.3-5.6.3-8.1 1.2-2.8.9-3.4 3.1-4.4 5.6-3.7 10.3-7.2 20.2-10.3 30.8-1.9 5.9-3.4 12.1-5 18.1-.3 1.9 0 3.7 1.9 5 1.6.9 3.7.3 4-1.6 3.1-12.8 6.9-25.2 11.2-37.7.9-3.1 2.2-5.9 3.1-9 .3-1.2.6-3.1 1.6-4q-.45.45 0 0h.6c.9-.3 1.9-.3 2.5-.3 6.5-.9 13.4-1.9 19.9-2.8 1.6-.3 2.5-1.2 2.8-2.8.6-4.7 1.2-9 1.9-13.7.3-2.2.6-4.7.9-6.8.3-2.2.9-4.4.6-6.5 0-2.2-.9-4.4-2.8-5.3-1.9-1.2-4.4-.9-6.5-.9-4.7 0-9.3.3-14 .6 1.2 1.6 2.2 2.8 3.4 4.4.3-3.4.9-6.9 2.2-10.3 2.2-3.9-3.1-7.7-4.6-3.6"/>
	<path d="M138.9 137.7c32.7-4.7 65.1-10.9 97.1-17.1 9.3-1.9 18.7-3.1 27.7-5.6 3.4-.9 1.6-7.2-1.6-6.9-8.1 1.2-16.2 3.1-24.3 4.7-7.8 1.6-15.9 3.1-23.7 4.4-16.2 3.1-32.4 5.9-48.6 8.7-9 1.6-18.4 3.1-27.4 5-1.6.3-2.5 1.6-2.5 3.4.2 1.9 1.4 3.7 3.3 3.4m39.8 259.7c17.4-17.1 41.4-31.1 66.9-26.8 6.9 1.2 13.1 3.7 19 7.5 1.6.9 3.4 0 4-1.6.6-1.9-.3-3.7-1.9-4.7-10.9-7.2-24.6-10-37.7-8.7-13.4 1.2-25.8 6.5-37.1 14-6.2 4.4-11.8 9-17.1 14.6-1.2 1.2-1.6 3.1-.3 4.7.8 1.3 3 2.2 4.2 1"/>
	<path d="M212.4 368.1c-3.1 3.4-4 8.4-3.4 13.1.9 4.4 3.1 8.7 6.9 10.9 4 2.5 9.7 2.5 13.7.9 5-1.9 8.1-5.9 9.3-10.9 1.2-5.3-.6-11.2-5-14.9-1.2-.9-3.4-1.2-4.4.3-.9 1.6-.6 3.7.6 5l.9.9c.6.6-.3-.3 0 0 0 .3.3.3.3.6.3.3.6.6.6.9 0-.6-.3-.6 0-.3 0 .3.3.6.3.9s0 .3.3.6c.3.6 0-.3 0-.3.3.3.3.9.3 1.2v.6c0 .3.3.6 0 0v2.2s-.3.9 0 .3v.3c0 .3 0 .3-.3.6 0 .3-.3.9-.6 1.2.3-.6 0 0 0 0-.3.3-.3.6-.6.6-.3.3-.6.6-.6.9-.3.3.6-.6 0 0l-.3.3-.9.9c-.3 0-.3.3-.6.3.6-.3 0 0-.3 0-.6.3-1.6.6-2.5.9-.3 0-.3 0-.6.3.6 0 0 0 0 0-.6 0-.9 0-1.6.3h-2.1c-.9 0-1.9-.3-2.5-.6.6.3-.3-.3-.6-.3 0 0-.3 0-.3-.3-.6-.3 0 0 0 0l-.6-.6-.3-.3c-.6-.6.3.6 0 0-.3-.3-.3-.6-.6-.9 0-.3-.3-.3-.3-.6-.3-.6 0 0 0 0-.3 0-.9-1.9-.9-2.2v-.3.3-.6c0-.6 0-.9-.3-1.6v-.6c0 .9 0 0 0 0v-2.2c0-.6-.3.6 0-.3 0-.3.3-.9.6-1.2 0 0 .3-.9 0-.3 0-.3.3-.3.3-.6.3-.3.6-.9.9-1.2 1.2-1.2.6-3.7-.6-4.7-1.4-1-3-.7-4.2.5m-47-119.2c-8.1-8.1-24.3-11.2-31.1.3-3.4 5.6-3.1 12.5.6 17.4s9.7 7.5 14.6 11.2c5.6 4.4 11.2 9.3 17.1 13.1 1.6.9 3.4 0 4-1.6.6-1.9-.3-3.7-1.9-4.7-4.4-2.8-8.4-6.2-12.5-9.3-2.2-1.9-4.4-3.4-6.9-5-2.2-1.6-4.4-2.8-6.5-4-3.4-2.5-6.2-5.9-5-10.3 1.2-4 5-7.2 9.3-7.5 5-.3 10.9 1.9 14.3 5.3 1.2 1.2 3.1 1.2 4-.3 1.8-1.5 1.2-3.7 0-4.6"/>
	<path d="M166 253.2c2.8-3.7 5.6-7.8 10.3-9.7 3.4-1.6 8.1-1.6 10.3 2.2 1.9 3.1.9 7.5-.6 10.6-2.2 4.7-5.6 8.4-8.7 12.5-4 5.3-7.8 10.6-11.2 15.9-2.2 3.1 2.5 8.1 5 4.7 3.7-5.6 7.5-11.2 11.5-16.5 3.7-4.7 7.8-9.3 9.7-14.9 1.9-5 1.6-10.9-1.2-15.6-3.1-5-9-6.9-14.6-5.6-6.5 1.6-10.9 7.2-14.6 12.5-2.2 2.7 1.9 7 4.1 3.9m237.2 63.2c-3.7.9-7.5-1.9-6.2-5.6 1.2-4 6.5-4.4 9-1.6 1.2 1.6 4 .9 4.7-.9.9-4 2.5-8.7 6.5-10.9 2.5-1.6 6.5-1.6 7.8.9 1.2 1.9 4.4 2.2 5.3-.3 1.2-3.1 2.5-7.2 5.6-9 .9-.6 2.5-.9 3.7-.6.6 0 .9.3 1.6.3.6.3.6.3.9.9.9 1.6 3.7 2.2 5 .3.9-1.6 2.5-4 4.4-4.4 1.6-.3 2.5 1.6 2.5 2.8.6 4-2.5 8.1-6.2 9.7-1.9.6-2.2 2.8-1.6 4.4 1.2 3.7-1.9 7.2-5 8.4-1.9.6-4 .9-6.2.6-2.8-.3-5.3-.3-6.9 2.2-1.2 1.9-2.2 3.7-3.7 5.3s-3.1 2.5-5 3.1c-2.8.9-7.2 0-8.4-2.8-.6-1.6-2.2-2.8-4-2.2-1.6.6-2.2 2.8-1.6 4.4 1.9 4 5.3 6.8 9.7 7.8 4.4.9 8.7-.6 12.1-3.4 1.6-1.2 3.1-3.1 4.4-4.7.6-.9.9-2.2 1.6-2.8 0 0 0-.3.3 0 .6 0 .9 0 1.6.3 4.7.6 9.7-.3 13.4-3.7 4-3.7 5.6-9.3 3.7-14.6-.6 1.6-.9 2.8-1.6 4.4 7.5-2.8 11.5-11.2 9.3-18.7-1.2-3.7-4.4-7.2-8.7-7.2-4 .3-6.9 3.7-8.7 6.9 1.6 0 3.1.3 5 .3-2.5-4.4-8.4-5.6-12.8-3.7-5 2.2-7.5 7.8-9.3 12.5 1.9 0 3.4-.3 5.3-.3-3.1-4.7-9.7-6.2-14.6-3.7-5.6 2.5-8.4 8.7-10 14.6 1.6-.3 3.1-.6 4.7-.9-2.5-2.8-6.9-4.4-10.6-3.4-3.7.9-6.9 3.7-7.8 7.8-2.2 8.4 5.6 16.5 14 13.7 2.1-1.5-.1-7.1-3.2-6.2"/>
	<path d="M445 279.4c-3.1-5-6.5-10-12.5-11.8-4.7-1.6-10.6-.3-13.4 4-.6.9-.9 2.2-1.9 2.8-.9.6-2.5.3-3.4 0-2.8-.3-5.3-.3-8.1.3-5.3 1.6-9.3 5.3-11.8 10 .9-.6 1.6-1.2 2.5-1.9-5.9.6-12.8 2.8-16.2 8.4-3.4 5.3-3.1 12.5 1.2 17.1.3-1.9.3-3.7.6-5.9-7.5 4-10.3 14-6.2 21.5s14 9.7 21.2 5.6c-1.2-1.9-2.5-3.7-3.7-5.9-2.8 2.8-1.9 7.2.6 10 2.2 2.2 5.3 3.1 8.1 2.8 5.9 0 11.2-4.4 12.5-10.3.6-3.1-4.7-6.2-5.9-2.2-.9 2.8-3.1 4.7-5.9 5.3-1.2.3-2.5.3-3.7 0-.6-.3-.9-.3-1.6-.6l-.3-.3c.3 0-1.6 2.2-.3 1.2 2.8-2.8-.3-7.8-3.7-5.9-4 2.2-10 .6-12.5-3.1-.3-.9-.6-1.9-.9-2.8 0-.9 0-2.2.3-3.1.6-2.2 2.2-4.4 4-5.6 2.2-1.2 2.2-4 .6-5.9-1.2-1.2-1.2-3.1-.9-5 .6-2.5 2.2-4 4-5.6 2.2-1.6 4.7-2.2 7.2-2.8 1.9-.3 3.4-.3 4.4-2.2.6-.9 1.2-1.9 1.9-2.8 1.6-1.9 3.7-3.1 6.2-3.7s4.7-.3 7.2 0c3.4.3 6.2-.3 8.1-3.4 1.2-1.9 1.9-3.7 4.4-4 6.2-1.2 10.3 4.7 12.8 9 .9 1.2 2.8 2.2 4 .9 2-.4 1.7-2.6 1.1-4.1m-13.1 36.4c-6.2 3.4-8.4 11.2-6.5 17.7.6-1.2.9-2.8 1.6-4-4.7 2.5-9 6.5-8.7 12.5.6 5.9 6.2 9 11.8 8.4 9.7-1.2 16.8-10.6 15.6-20.2-.9 1.2-1.6 2.2-2.5 3.4 4 .3 8.1-1.9 10.9-5 1.2-1.6 2.2-3.7 2.5-5.9 0-.6 0-1.9.3-1.9.6-.6 1.9-.9 2.5-1.6 3.7-2.5 5.3-7.2 5-11.5-.3-5-3.1-9.3-6.2-12.8-1.2-1.2-3.1-1.2-4.4.3-1.2 1.6-.6 3.4.6 5 2.2 2.2 4 5.3 3.7 8.4 0 1.2-.6 2.5-1.2 3.7-.9 1.2-2.2 1.6-3.4 2.5-1.9.9-2.8 2.8-2.8 4.7-.3 1.6-.3 2.8-1.2 4-1.6 2.5-4.4 3.7-7.5 3.4-1.9 0-2.8 2.2-2.5 3.4.9 5.6-3.4 11.2-9 12.8-1.6.6-6.2 1.2-6.9-.9-.9-3.1 3.7-5.6 5.6-6.8 1.2-.6 1.2-2.5.9-3.7-1.2-4 1.2-8.4 4.7-10.6 1.2-.9 1.2-3.1.3-4-.4-1.9-2-2.2-3.2-1.3m-55.4 175c3.1-28 21.2-53.2 47-64.8 7.2-3.1 14.9-5.3 22.7-6.2 4-.6 2.8-7.5-.9-6.9-14.9 1.9-29.3 7.5-41.1 16.8-11.8 9-21.2 21.2-27.1 35.2-3.4 7.8-5.3 16.5-6.2 24.9 0 1.6.9 3.4 2.5 3.7 1.5.1 3.1-1.1 3.1-2.7"/>
	<path d="M376.5 496.1c16.2.9 32.7-4 45.8-13.4 13.1-9.3 22.4-23.7 26.5-39.2 2.2-9 3.4-18.7 1.9-28-.3-1.9-1.6-3.4-3.4-3.4s-2.8 1.9-2.5 3.7c.6 7.8.6 15.3-1.2 22.7-1.6 7.2-4.4 14-8.4 20.2-8.1 12.8-20.2 22.4-34.6 27.4-8.1 2.8-16.5 4-24.9 3.4-1.9 0-2.8 1.9-2.5 3.4.1 1.6 1.7 2.9 3.3 3.2"/>
	<path d="M378 491.4c19-16.8 37.4-34.6 55.1-52.9 5-5.3 10.3-10.6 14.9-15.9 1.2-1.2.6-3.4-.3-4.7-.9-.9-2.8-1.9-4-.6-8.7 9-17.4 18.4-26.2 27.4-9 9-18.1 17.7-27.4 26.5-5.3 5-10.6 9.7-15.9 14.3-1.2 1.2-1.6 3.1-.3 4.7 1 1.5 2.9 2.5 4.1 1.2"/>
	<path d="M414.8 427.3c-.6 3.4-1.2 6.5-1.6 10-.3 1.6-.3 3.4-.3 5 0 2.2-.6 4.7.9 6.5.9.9 2.5 2.2 3.7.9.9-.9 1.2-1.9 1.2-3.1v-2.5c0-1.6.3-3.4.3-5 .3-3.4.9-6.9 1.6-10 .3-1.6-.9-3.7-2.5-4-2.1-.6-3 .6-3.3 2.2M392 447.8c-.6 3.4-.9 7.2-.9 10.6v5.6c0 1.9 0 3.7.6 5.3.3 1.6 1.6 3.4 3.4 3.1 1.9 0 2.5-1.9 2.5-3.4 0-1.9-.3-3.4-.3-5.3 0-1.6-.3-3.1-.3-4.7 0-3.4.3-6.9.6-10.3.3-1.6-.9-3.4-2.5-3.7-1.5 0-2.8 1.3-3.1 2.8"/>
	<path d="M397.3 476.2c4 1.2 8.4 2.2 12.8 2.8 2.2.3 4.7.6 6.9.6s4.7.3 6.9-.3c3.1-.9 1.9-5.9-.9-6.5-2.2-.3-4.7 0-6.9 0-1.9 0-3.7 0-5.6-.3-4-.3-8.4-1.2-12.5-2.5-1.6-.6-3.1.9-3.1 2.5-.4 1.5.5 3.4 2.4 3.7m21.5-22.5c2.8.9 5.6 2.2 8.7 2.8 2.8.9 5.9 1.6 8.7 1.9 1.6.3 3.4-.9 3.4-2.5s-.9-3.7-2.8-4c-3.1-.6-5.9-1.2-8.7-1.9-2.8-.6-5.9-1.6-8.7-2.5-1.6-.6-3.1.9-3.1 2.5-.3 1.9.9 3.1 2.5 3.7M24.6 350.1c3.4-3.1 7.8-6.5 12.5-5.6.9.3 1.9.6 2.5.9l.6.6c.3.3.6.9.6.9.6 1.6.9 3.1 1.2 5.3.6 4 1.2 8.7 4.7 11.5 2.2 1.9 5 2.5 7.8 2.5 2.2 0 4.4-.3 6.5.9 1.6.9 2.5 2.5 2.8 3.7.6 2.2-.6 4-1.2 6.2-.9 2.5-1.6 5.3-.9 7.8.6 2.5 2.5 4.7 4.7 5.9 1.9.9 4 1.2 5.9 2.2 1.6.6 1.9 1.9 1.9 3.4 0 2.5-.9 4.7-1.6 6.9-.9 2.8-1.6 5.9-1.2 9 .6 3.1 2.2 6.2 3.4 9 .6.9 1.2 2.2 1.6 3.4 0 .3.3.6.3.9-.3-.9 0 .6 0 .6v2.4c0 .6.3-.6 0 .3 0 .3-.3 1.2-.3.9-.9 1.9-2.5 2.5-4.7 3.1-3.7 1.2-1.2 7.8 2.5 6.9 4.7-1.2 8.1-5 8.7-9.7s-1.2-9-3.4-13.1c-1.2-2.2-2.5-4.4-2.2-6.9.3-3.1 1.6-5.9 2.2-9 1.2-5.3.3-11.8-5-14.9-1.9-.9-4.4-1.2-6.2-2.2-.6-.3-.9-.3-.9-.6-.3-.9.3-2.2.6-3.1.9-2.8 2.2-5.3 1.9-8.4 0-2.8-1.2-5.3-2.8-7.5-1.9-2.2-4-4-6.5-4.7-2.8-.9-5.6-.3-8.4-.6-.9 0-1.9-.3-2.5-.9q-.45-.45 0 0c0-.3-.3-.3-.3-.6-.3-.6-.3-.3 0 0 0-.3-.3-.6-.3-.9-.6-1.6-.6-3.7-.9-5.6-.9-5.9-3.4-11.5-9.7-13.1-6.5-1.6-12.5 2.2-17.1 6.9-1.2 1.2-1.2 2.8-.3 4 .7 1.3 2.3 2.2 3.5 1.3m208.3 171.8c-3.1-3.1-5.9-6.8-8.1-10.6-1.2-1.9-2.2-3.7-3.1-5.9-.6-.9-.9-2.2-1.2-3.1s-.9-1.9-.9-3.1c0-.6 0-.9.6-1.2q-.45 0 0 0c.3.3.9.6 1.2.9 1.6 1.2 3.1 2.8 4.4 4.4 2.8 3.4 5.3 7.2 6.9 11.2 1.9-.9 3.4-1.9 5.3-2.8-3.1-4.4-5.6-9.3-7.5-14.3-.9-2.2-1.9-4.7-2.2-6.5 0-.9-.3-1.6 0-2.5 0 .3.3-.6.3-.6-.3.3.3-.3 0 0 1.9-.9 4 2.2 5 3.1 1.9 1.9 3.4 3.7 5 5.6 3.1 4 5.6 8.4 7.8 13.1 1.9-.6 3.7-1.2 5.6-2.2-2.5-5.3-5-10.6-7.2-16.2-.9-1.9-2.8-4.7-2.5-6.8 0-.9.9-2.2 1.9-1.6 1.6 1.2 3.1 3.1 4.4 4.7 1.6 1.9 2.8 3.7 4.4 5.9 2.8 4 5 8.4 6.5 13.1 1.9-.6 3.7-1.2 5.6-2.2-2.8-5.6-5-11.5-6.2-17.7-.6-2.8-1.2-5.9-1.2-8.7 0-1.2 0-3.1 1.6-2.2 2.2.9 3.4 3.7 4.7 5.6 1.6 2.5 3.1 5.3 4.4 7.8 3.1 5.6 5.6 11.5 8.1 17.1 1.2 2.8 5.6 3.4 5.9-.3.3-1.9.6-6.2 3.7-5.9 3.4.6 3.7 5.3 4 7.8.9 8.7 4 16.8 9.3 24 .9 1.2 2.8 2.2 4.4.9 1.6-1.2 1.6-3.4.3-5-3.1-4-5.3-8.1-6.5-13.1-1.6-5-.9-10.3-3.1-14.9-1.9-4.4-6.9-8.4-12.1-6.9-4.7 1.6-5.9 6.9-6.2 10.9 1.9 0 4-.3 5.9-.3-2.2-5.6-5-10.9-7.5-16.2-1.6-2.8-2.8-5.3-4.4-8.1-1.2-2.5-2.8-5-4.7-7.2-3.1-3.7-9.3-7.2-12.8-1.9-1.6 2.2-1.6 5-1.2 7.5.3 3.1.9 5.9 1.6 8.7 1.6 6.5 3.7 12.8 6.5 19 .6 1.6 2.2 2.8 4 2.2 1.9-.6 2.2-2.8 1.6-4.4-3.4-9-8.4-17.4-14.9-24.6-1.6-1.9-3.1-3.4-5.6-4s-4.7.3-6.2 2.2c-3.4 4-1.2 9.7.6 13.7 2.5 5.6 5.3 11.5 7.8 17.1.6 1.6 2.2 2.8 4 2.2 1.6-.6 2.2-2.8 1.6-4.4-2.2-4.7-4.7-9.3-7.8-13.4-2.8-4-6.2-8.4-10.3-11.5-2.2-1.6-4.7-2.8-7.5-1.9-1.9.6-3.4 2.5-4 4.4-1.2 4.7.6 9.3 2.2 13.7 2.2 5.6 5 11.2 8.7 16.2 2.2 3.1 6.5.6 5.3-2.8-2.5-5.6-5.6-10.6-9.7-15.3-1.9-1.9-3.7-4.4-6.2-5.6-2.8-1.6-6.2-.3-7.8 2.5-1.9 3.1-.9 6.5.6 9.7 1.2 2.8 2.5 5.3 3.7 7.8 3.1 5.3 6.9 10 11.2 14.3 1.2.9 2.8.9 3.7-.3-.1 1.7-.7-.1-1.7-1.1m357.2-293.3c-6.9-.6-13.7 2.5-17.1 8.7-1.9 3.4-2.2 6.8-1.9 10.6.3 3.7 1.6 7.2 2.2 10.9.6 3.1.3 6.2-2.2 8.4-2.5 2.8-5.9 4.7-8.4 7.2-2.8 2.5-6.5 5.9-7.8 9.3-1.6 4.4 1.9 8.7 6.5 8.1 2.2-.3 4.4-1.2 6.2-1.9 2.2-.9 4.4-1.6 6.5-2.5 4.7-1.9 9.7-3.7 13.7-6.5 2.8-1.9 0-6.8-3.1-5.9-3.4 1.2-6.9 3.1-10.3 4.7s-7.2 2.8-10.6 4.4c-.9.3-1.9.6-2.5.9-.3 0-.9.3-1.2.3 1.2-.6-.6 0-.6 0 .6-.3.3 2.2.9 1.6s.9-1.6 1.2-1.9c2.2-2.5 4.7-5 7.2-7.2s5.6-4 7.5-6.9c1.9-2.8 2.8-5.9 2.5-9.3 0-3.1-.9-6.2-1.6-9-.6-2.8-1.2-5.9-.6-8.7 1.2-5.6 7.5-9.7 13.1-9 3.8 0 3.5-6 .4-6.3m-57.3 191.8c.6-8.4 1.9-16.8 4-24.9.6-1.9 1.2-4 1.9-5.9.3-.6.3-.9.6-1.6 0-.3.9-1.2 0-.6-.6.6 0 .3.6.6s.9.3 1.6.6c4 1.2 8.4 3.1 12.8 3.7 3.4.6 4.4-5 1.2-6.2-4.7-1.9-10-3.1-14.6-4.7-2.2-.6-4.7-.9-6.2 1.2-1.2 1.9-1.6 4.7-2.2 6.8-2.8 9.7-4.4 19.3-5 29.3 0 1.6.9 3.4 2.5 3.7 1.2.8 2.8-.4 2.8-2M91.6 44.3c3.7 5 7.8 10 12.5 14 2.2 1.9 4.7 3.7 7.5 4s5.6-.6 7.2-3.1c3.7-5.3.6-11.5-2.2-16.8-3.1-5.9-6.2-11.5-9.3-17.4-.9-1.6-2.8-2.2-4.4-.9-1.6 1.2-1.2 3.1-.3 4.7 2.5 4.7 5 9.3 7.5 14 1.2 2.2 2.5 4.4 3.4 6.5.6 1.6 1.2 3.1.6 5C111 60.5 97.9 43.1 96 40.6c-.9-1.2-2.5-1.9-4-.9-1.4 1.2-1.4 3.4-.4 4.6"/>
	<path d="M109.6 32.2c5.3 1.2 10.3 2.2 15.6 2.8 4 .3 9.7 1.6 12.5-2.2 1.6-1.9 1.9-4.7.6-6.9-.9-2.2-3.1-4-5.3-5.3-2.5-1.2-5-2.5-7.2-3.7-1.2-.6-2.5-1.2-3.7-1.9-1.2-.6-2.5-1.6-4-1.9-3.4-.6-4.4 4-2.2 5.6 1.9 1.6 4 2.5 6.2 3.4 1.9.9 4 2.2 5.9 3.1.9.6 1.9.9 3.1 1.6.6.3.9.6 1.6.9q.45.45 0 0 .45.45 0 0v-.6.3q0-.45 0 0 .45-.45 0 0 .45 0 0 0c-1.2.6-2.2.6-3.7.6-1.9 0-4-.3-5.9-.6-4.4-.6-8.7-1.2-13.1-2.2-3.8-.5-3.8 6.3-.4 7m205.5 34.5c.6 3.7 2.2 8.4.3 12.1-.9 1.9-2.8 2.8-4.4 4-1.9 1.9-2.8 3.7-2.8 6.5.3 5.3 4.4 9 9.3 9.7 5 .6 10-.3 14.6-2.2 4.7-1.9 9-4.4 12.8-7.8 3.7-3.1 6.9-7.5 5.9-12.5-.3-2.5-1.6-4.7-3.4-6.2-.9-.6-1.9-1.2-3.1-1.6-1.2-.3-2.5-.3-3.7-.6-1.6-.6-2.2-1.9-3.1-3.4-.9-1.6-1.6-3.4-2.8-5-3.1-4.4-8.7-7.5-14-5.3-5.3 1.9-7.8 7.8-5.9 12.8 1.2 3.4 6.5 2.8 5.6-1.2-.6-2.8 1.2-5 4-5.3 3.4-.3 5.6 2.2 7.2 4.7 1.6 2.8 2.8 5.9 5.6 8.1 1.6 1.2 3.4 1.6 5.3 1.9 1.6.3 2.5.3 2.8 1.6.6 2.8-2.8 5.6-5 7.2-3.1 2.5-6.5 4.7-10 5.9-3.4 1.6-7.5 2.5-11.2 2.2-1.9 0-6.9-1.9-4.4-4.4 1.2-1.6 3.1-2.5 4.4-3.7 1.2-1.6 2.2-3.4 2.5-5.3.9-4-.3-8.4-1.2-12.5-.3-1.2-1.2-2.8-2.8-2.8-1.9.3-2.8 1.9-2.5 3.1m195.2 103.7c.3 3.1.9 6.2 1.2 9.7.3 2.2 1.2 4 3.1 5.3 1.6.9 3.1.9 4.7.6 3.1-.6 6.2-1.6 9.3-2.5 1.6-.3 3.1-.6 4.4-1.6 1.9-.9 2.5-3.1 2.2-5.3-.3-1.9-.6-3.4-1.2-5.3-.3-2.2-.9-4-1.2-6.2-.3-1.6-2.2-2.8-3.7-2.5-1.6.3-2.5 1.9-2.2 3.4.6 3.4 1.6 6.8 2.2 10v.6c0-.3 0-.6.3-.9s.6-.3.3-.3c-.6.3-1.6.3-2.2.6-1.6.3-3.4.9-5 1.2s-3.1.9-5 1.2c-.9.3.6 0-.3 0h-.6q-.45 0 0 0-.45 0 0 0c.45 0 .3 0 0 0l.9.9q0-.45 0 0c-.6-3.4-.9-6.5-1.2-10-.3-1.6-1.6-3.4-3.4-3.4-1.9 1.1-2.9 2.9-2.6 4.5"/>
	<path d="M511.6 164.2c-7.2.9-14 2.8-20.5 5.3 1.2.6 2.5 1.6 4 2.2-3.1-9.3 1.6-19.6 9.3-25.2 4.4-2.8 9.3-4.7 14.3-5 5.3-.6 11.2 0 15.9 2.8s7.2 8.7 9.3 13.4c.6-1.6.9-2.8 1.6-4.4l-16.5 5.6c-3.7 1.2-1.2 7.8 2.5 6.5l16.5-5.6c1.6-.6 2.2-2.8 1.6-4.4-2.5-5.6-5.3-11.8-10.3-15.9-5.3-4.4-12.5-5.6-19-5.3-12.5.3-24.6 7.2-29.9 19-2.8 6.5-3.1 13.7-.9 20.6.6 1.6 2.2 2.8 4 2.2 6.2-2.2 12.5-4 19-5.3 1.6-.3 2.5-1.6 2.5-3.4-.3-1.3-1.9-3.1-3.4-3.1M177.8 398.9c23.7 8.7 50.8 5.3 72.2-7.5 5.9-3.4 11.5-7.8 16.5-13.1 1.2-1.2 1.6-3.4.3-5-.9-1.2-3.1-2.5-4.4-.9-16.8 17.1-41.1 25.8-64.8 24-6.5-.6-13.4-1.9-19.6-4-1.6-.6-3.1.9-3.1 2.5.1 1.9 1 3.4 2.9 4M464.6 34.3c-5.6 5.9-10.9 12.5-15.3 19.3-1.2 1.9-.3 4 1.2 5 2.5 1.6 4.7 3.1 7.2 4.4-.3-1.9-.9-3.4-1.2-5.3-5 7.2-9.3 14.6-13.1 22.4 1.6-.3 3.1-.6 4.4-.9-4-3.1-8.1-5.6-12.8-7.5-2.2-.6-3.4 1.6-3.1 3.4.9 7.5 1.6 14.9 1.9 22.4 0 1.9 1.9 3.1 3.4 3.1 10.3.6 20.5 0 30.2-2.5 2.8-.6 1.9-4.4.6-5.6l-7.5-8.4c.3 1.6.3 3.1.6 4.7l.3-.3.9-.9 1.6-1.6 3.4-3.4c2.8-2.8 5.6-5.3 8.4-7.8 3.4-3.1 6.9-6.2 10.3-9.3 1.9-1.6 1.2-4.7-.9-5.9-4-2.5-8.1-5-12.1-7.5.3 1.9.9 3.7 1.2 5.3 2.5-4 5.6-8.1 7.8-12.5.9-1.6 1.6-3.1 2.2-5 .6-2.2-.3-4-1.9-5.6-2.8-2.8-5.6-5-8.7-7.5-1.2-1.2-3.1-1.2-4.4.3-2.5 2.8-4.7 5.6-6.9 8.4s2.2 7.8 4.7 4.7c2.5-2.8 4.7-5.6 7.2-8.4-1.6 0-2.8.3-4.4.3 2.8 2.2 5.3 4.4 8.1 6.9.3.3.6.6.9.6.3.3.3.6 0 0 .6.6.3 0-.6-2.2 0-.6.3-.6 0-.3 0 .3-.3.6-.3.6-.6 1.6-1.2 2.8-2.2 4-2.2 3.4-4.4 6.9-6.9 10.6-1.2 1.9-.3 4.4 1.2 5.3 4 2.5 8.1 5 12.1 7.5-.3-1.9-.6-4-.9-5.9-8.7 8.1-17.7 15.9-25.8 24.6-1.2 1.2-.3 3.7.6 4.7l7.5 8.4c.3-1.9.3-3.7.6-5.6-9.3 2.2-19 3.1-28.6 2.5 1.2.9 2.2 2.2 3.4 3.1-.3-7.5-.9-14.9-1.9-22.4-.9 1.2-2.2 2.2-3.1 3.4 3.7 1.2 7.2 3.4 10 5.6 1.6 1.2 3.4.9 4.4-.9 3.4-7.2 7.8-14.3 12.5-20.9 1.2-1.9.3-4-1.2-5.3-2.5-1.6-4.7-2.8-7.2-4.4.3 1.6.9 3.4 1.2 5 4.4-6.5 9.3-13.1 14.6-19 2-1.2-1.4-5.8-3.6-3.7M303.3 182.2c11.8 16.8 23.7 33.6 35.2 50.4.9 1.2 2.8 2.2 4.4.9 1.6-1.2 1.6-3.4.3-4.7-11.5-17.1-23-33.9-35.2-50.4-.9-1.2-2.8-2.2-4-.9-1.6 1.3-1.6 3.5-.7 4.7"/>
	<path d="M342.8 235.2c2.5-.6 5.3-1.2 7.8-1.9.9-.3 1.9-.3 2.5-1.2 1.2-1.6.3-4.4-1.2-5.3-.6-.3-1.2-.6-1.9-.3-.6 0-.9.3-1.6.3-.6.3-1.6.3-2.2.6-1.6.3-3.1.6-4.7 1.2-.3 0-.6.3-.9.3-.6.3-1.2.9-1.6 1.6-.3.6-.3 1.9 0 2.5.3.9.9 1.6 1.6 1.9.3 0 .6.3.6.3.4.3 1 .3 1.6 0"/>
	<path d="M354 230.8c.9-3.4 1.6-6.9 2.2-10.6.6-3.4 1.2-7.2.9-10.6 0-1.2-1.2-2.5-2.2-2.8-1.2-.3-2.5.3-2.8 1.6-.9 3.4-1.2 6.9-1.9 10.3-.6 3.4-1.2 6.8-1.9 10-.3 1.2.6 3.1 2.2 3.4 1.4.6 2.9.3 3.5-1.3"/>
	<path d="M352.2 210.9c2.5 5.9 5.6 11.5 8.7 16.8.9 1.2 2.8 2.2 4 .9 1.2-1.2 1.2-3.1.3-4.7-3.1-5.3-5.9-10.6-9-15.9-.6-1.2-2.2-1.9-3.4-.9-.9.7-1.3 2.2-.6 3.8"/>
	<path d="M364.6 229.3c2.2-.3 4.4-.6 6.5-1.2.9-.3 1.9-.6 2.8-.6.3 0 .9-.3 1.2-.3s.6-.3.9-.3c.9-.3 1.6-1.2 1.6-2.2.3-1.6-.3-3.4-1.9-4.4-.6-.3-1.6-.3-2.2-.3-.3 0-.6.3-.9.3-.9.3-1.9.6-2.8.9-1.9.6-3.7.9-5.9 1.6h.6c-.3 0-.9.3-1.2.3-.9 0-1.6.3-1.9 1.2-.3.6-.6 1.6-.6 2.5s.6 1.9 1.2 2.5c1.1-.4 1.7.3 2.6 0"/>
	<path d="M377.7 224.3c5.6-22.1 10.9-44.5 16.2-66.6.3-1.9 0-3.7-1.9-4.7-1.2-.6-3.7-.3-4 1.6-5.3 22.4-10.9 45.1-15.9 67.9-.9 2.7 4.4 5.5 5.6 1.8m-71.9-41.4c2.8-1.2 5.3-2.8 8.1-4 1.6-.6 2.8-1.2 4.4-2.2 1.6-.6 3.1-1.2 4.4-2.2 1.2-.9 1.2-2.5.9-3.7-.6-1.2-1.6-2.5-3.1-2.2-1.6.3-3.1.9-4.4 1.6-1.6.6-2.8 1.2-4.4 2.2-2.8 1.2-5.3 2.8-8.1 4.4-1.6.9-2.2 2.5-1.6 4 .7 1.1 2.2 2.7 3.8 2.1"/>
	<path d="M374 158.3c3.1-.6 6.2-.6 9.3-.6s6.2 0 9.3-.3c1.9-.3 2.8-1.9 2.5-3.4-.3-1.6-1.6-3.4-3.4-3.4-3.1.3-6.2.3-9.3.6q-4.65 0-9.3.9c-1.6.3-2.8 1.9-2.5 3.4.3.9 1.5 3.1 3.4 2.8m-53.9 15.5c5.9 9 12.1 18.4 18.4 27.4.6 1.2 1.6 2.2 2.5 3.1l.3.3c.3.3.9.9.6.3-.3-.3 0 0 0 0 .6.3.9.6 1.6.6-.6-.3-1.2-.6-1.9-.9 1.9 2.5 5-.3 3.4-2.5 0 .9.3 1.6.3 2.5.3-.6 0-1.2 0-2.2.3.9 0 .3 0-.3v-.3c-.3-.9-.9-2.2-1.6-3.1-1.6-2.5-3.1-5-5-7.5-3.7-5.6-7.5-11.2-11.2-17.1-.9-1.2-1.9-2.5-2.5-4-.9-1.2-2.8-1.9-4-.9-1.8 1.2-1.8 3.4-.9 4.6"/>
	<path d="M345.3 204c.3-1.2.3-2.8.6-4 .3-1.6.3-3.1.3-4.7 0-1.2-1.2-2.5-2.5-2.5-.6 0-.9 0-1.6.3s-.6.9-.9 1.6v.3-.3c0 .3-.3.6-.3.9v.9c0 .6-.3 1.2-.3 1.9 0 .6 0 1.2-.3 1.9v1.9c0-.3 0 0 0 0v.3c0 .6 0 1.6.6 2.2.3.6.9.9 1.6 1.2 1.6.3 2.5-.6 2.8-1.9"/>
	<path d="M344.7 193.1c-1.9-3.7-4-7.5-6.5-11.2-2.2-3.7-4.4-7.5-7.2-10.6-.9-1.2-2.8-2.2-4-.9-1.6 1.2-1.2 3.1-.3 4.7 2.2 3.7 4.7 7.2 7.2 10.6 2.2 3.7 4.7 7.2 6.9 10.9.6 1.2 2.5 1.9 3.7.9 1.1-1.3 1.1-3.1.2-4.4"/>
	<path d="M331.6 174.5c3.7-1.6 7.5-3.1 11.2-5 1.2-.6 2.5-1.2 3.1-2.5.9-2.2-.9-5-3.4-4.7-.6 0-1.2.3-1.6.3-2.2.9-4.4 1.9-6.5 3.1-1.6.9-3.4 1.6-5 2.5-1.6.6-2.2 2.5-1.6 4 .4 1.6 2 2.9 3.8 2.3"/>
	<path d="M342.5 168.2c.3.3.3.3.3.6 0-.3-.3-.6-.3-.6.9 1.2 1.9 2.5 2.5 4 0-.3-.3-.6-.3-.9.3.6.6 1.2.9 1.9 0-.3-.3-.6-.3-.9.3.6.6 1.2.9 2.2.3.6.6 1.2 1.2 1.6-.3-.3-.6-.6-.6-1.2.6.9 1.6 1.9 2.8 1.9 1.2-.3 1.6-1.6 1.6-2.5v1.2c.3-.6.3-1.2.3-2.2v.6c0-1.2-.3-2.5-.6-3.4s-.9-1.9-1.2-2.8c-.9-1.6-2.2-2.8-3.4-4-.9-.9-3.1-1.2-3.7.3-1.6 1.4-1.3 3-.1 4.2"/>
	<path d="M350.9 174.5c.9-3.1 1.6-6.2 2.5-9.3-.6.6-.9 1.2-1.6 1.6h.9c.3 0-.9.3 0 0 .3 0 .6 0 .9-.3 1.9-.3 4-.9 5.9-1.2 2.5-.6 5.3-1.2 7.8-1.9-1.2-1.6-2.8-3.4-4-5-1.9 7.2-3.4 14.3-5.3 21.8-.9 3.4-2.5 7.5-1.6 10.9.3 1.6 1.6 2.8 2.2 4.4s1.2 2.8 2.2 4.4c.6.9 1.9 1.6 3.1 1.2s1.9-1.2 2.2-2.5c0-.3.3-.9.3-1.2s-.3.9 0 0c0-.3 0-.3.3-.6.3-.6.3-1.2.6-1.9.9-3.7 1.9-7.2 2.5-10.9 1.9-7.8 4-15.9 5.6-23.7.3-1.2.6-2.5.9-3.7v-1.5c0-1.6.3 2.2 0-.6 0-.9-.6-1.9-1.2-2.5s-2.2-1.2-3.1-.6c-.6.3-.9.3-1.2.9-2.5 3.1 2.2 8.1 5 4.7-.3.3-.9.6-1.2.9-.9-.3-1.9-.6-3.1-.6-.3-.9-.9-1.6-1.2-2.5 0-.6 0-.9.3-1.6 0 .3 0 .6-.3.9 0 .6.3-.9 0-.6 0 .6-.3 1.2-.3 1.9-.3.9-.3 2.2-.6 3.1-.6 3.4-1.6 6.9-2.5 10.3 0 .3-.3.9-.3 1.2 0 .6.3-.6 0 .3v.6c-.3 1.2-.6 2.2-.6 3.4-.6 2.2-.9 4-1.6 6.2-.9 3.4-1.6 7.2-2.5 10.6-.3.9-.3 1.9-.6 2.8 0 .3 0 .6-.3.9 0 .3-.3.9 0 .3 0-.6 0 .6-.3.6v.3c1.6 0 3.1-.3 5-.3-.6-.9-.9-2.2-1.2-3.1-.3-.6-.6-1.2-.9-1.9-.3-.3-.6-.6-.6-.9 0-.6.3-1.6.3-1.9.3-.9.3-1.6.6-2.5.3-1.6.6-3.1.9-4.4 1.6-6.2 3.1-12.8 4.7-19 .6-2.8-1.2-5.6-4-5-5.3 1.2-10.6 2.5-15.9 3.7-1.2.3-1.6 1.6-1.9 2.5-.6 3.1-1.6 6.2-2.2 9.7-.5 2.5 4.5 5 5.4 1.6"/>
</svg>
