<?xml version="1.0" encoding="utf-8"?>
<svg xmlns="http://www.w3.org/2000/svg" xml:space="preserve" id="Layer_1" x="0" y="0" version="1.1" viewBox="0 0 513.7 386.2">
	<path d="M52.6 116.4c-.9 17.8-.8 36.2 4.3 53.4 4.3 14.3 12.7 28.2 25.9 36 12.6 7.4 29.1 8.9 41.8.9 13.8-8.7 19.6-25.4 21.4-40.8 1-8.1 1.3-16.4.8-24.6-.5-7.8-1.8-15.7-4.8-23-.7-1.8-1.6-3.6-2.5-5.3-.5-.9-1.8-1.2-2.6-.6-.9.7-.8 2-.3 2.9 3.5 6.4 5.2 13.6 6 20.8.9 7.4.8 14.9.3 22.4-1.1 15-4.6 31.3-16.5 41.6-5.2 4.5-11.6 7.2-18.5 7.8-6.8.6-13.7-.8-19.9-3.6-13-5.9-21.7-18.1-26.5-31.2-2.7-7.4-4.1-15.1-5-22.9-1-8.7-1.1-17.5-.9-26.2.1-2.2.1-4.4.2-6.7 0-1-.5-2-1.5-2.3-.7-.2-1.6.5-1.7 1.4"/>
	<path d="M67.3 152.8c2.6-1.6 5.6-2.5 8.6-2.7 3.2-.2 6.1.4 9.1 1.5.8.3 1.7-.5 1.8-1.2.2-.9-.2-2-1-2.4-6.5-3.2-14.6-2.3-20.7 1.5-1.8 1.2.2 4.5 2.2 3.3m47.1-5.7c3-1.6 6.2-2.6 9.6-2.9 1.6-.1 3.3-.1 4.9.1 1.7.2 3.4.7 5 1.2 2.1.6 2.6-2.9.8-3.7-3.4-1.5-7.4-1.9-11.1-1.6s-7.4 1.3-10.6 3.1c-.9.5-1.2 1.4-.9 2.4.3.9 1.4 1.9 2.3 1.4m-21.8 8c-.8 3.4-1.6 7.5.9 10.5 1.7 2 5.2 3.3 7.5 1.3.5-.4.8-1 1.2-1.4 0 0 .1-.2.1-.1-.1.1.1.1 0 0-.2-.1.1 0 .1 0-.4-.2.1.1.1.1-.3-.2.3.2.3.3l.5.5c.4.4.8.8 1.2 1.1 1 .8 2.2 1.3 3.5.9 1.4-.5 2-1.8 2.4-3.1.2-.5.3-1 .6-1.2.6-.4 1.6-.3 2.3-.4 2.1-.4 3.5-2.4 2.7-4.5-.3-.8-1.1-1.4-1.9-1.2s-1.3 1-1.2 1.8c0-.1.2-.3 0-.2s-.3.2-.6.3c-.7.2-1.3.1-2 .3-1.3.3-2.1 1.2-2.7 2.3-.2.4-.3.9-.5 1.3-.1.3-.3.7-.4.8 0 .1-.1 0-.1 0-.2-.1-.4-.2-.6-.5-1.3-1.2-2.8-3-4.8-2.4-.6.2-1 .5-1.4.9s-.6 1-1.1 1.3c-.4.3-1.2.2-1.8-.1-2.6-1.1-1.7-4.8-1.1-7 .2-.9 0-2-.9-2.5-.9-.3-2 0-2.3.9m-28-20.5c6.6-7.5 17.9-10.1 27.2-6.5.9.4 1.8-.6 1.9-1.5.1-1.1-.5-1.9-1.5-2.3-10.5-4-22.9-.7-30.2 7.7-1.4 1.6 1.1 4.3 2.6 2.6m45.4-4.5c6.3-4.5 14-6 21.6-4.9 2.3.3 2.5-3.3.4-3.7-8.2-1.8-17.3.6-24 5.6-1.6 1.1.3 4.2 2 3"/>
	<path d="M107.8 129.6c1.2 2.2 2.5 4.5 3.7 6.8.3.6 1.3 1.1 2 .8 5.6-2.4 11.9-3.4 18-2.5 1 .1 1.7-.4 1.9-1.5.5-3 1.2-6.1 1.6-9.1.3-2.2-2.9-3.3-3.4-.8-.6 3-1.1 6.1-1.6 9.1.6-.5 1.3-1 1.9-1.5-6.7-.9-13.5 0-19.7 2.7.7.3 1.3.5 2 .8-1.3-2.2-2.5-4.5-3.8-6.7-.4-.8-1.6-1.1-2.3-.5-.9.5-.8 1.6-.3 2.4m-45 5.5c1.5 1.9 3.1 3.8 4.6 5.7.5.6 1.2 1.1 2 .8 4-1.6 8.4-2.2 12.7-1.7 2.6.3 5.2 1 7.8 1.6.8.2 1.5-.2 1.8-1 .7-2.2 1.7-4.4 2.2-6.6.3-1.4.5-2.9.7-4.4.1-1.1.3-2.2 0-3.2 0 .3.1.6.1 1 0-.9-.5-2-1.4-2.2s-1.8.5-1.8 1.4c0-.3.1-.5.1-.2-.1.3-.1.5-.2.8-.1.5-.1 1-.1 1.5-.1 1.4-.3 2.9-.6 4.3-.4 2-1.3 4-2 6 .6-.3 1.2-.7 1.8-1-2.8-.6-5.7-1.4-8.6-1.7-4.6-.5-9.3.2-13.7 2 .7.3 1.3.5 2 .8-1.5-1.9-3.1-3.8-4.6-5.7-.6-.7-1.5-1.2-2.3-.5-1 .3-1.1 1.6-.5 2.3m32 48.2c.3-2 .6-4.6 2.6-5.5 1.8-.8 2.7.8 3.8 1.9 1.3 1.3 3.1 2.2 4.9 1.3 1.4-.7 2.1-2.2 2.9-3.5.2-.3.3-.6.5-.9.1-.1.2-.3.3-.4.3-.4-.1.1.1-.1.1-.1.2-.1.3-.2l-.1.1q.3-.15 0 0c-.1-.1.5.1.2 0 .1 0 .2.1.3.2.8.8 1.6 1.5 2.7 1.9q1.5.45 3 0c1-.3 1.8-.9 2.4-1.7s.6-1.8 1.1-2.5c-.2.4-.2-.3 0 .1l.2.2q.3.3.3.6c.2.9 0 2-.3 2.9-1.7 4.6-7 6-11.3 6.4-2.7.3-5.5.3-8.2-.1-1.4-.2-2.7-.4-4.1-.7-1.1-.3-2.3-.5-3.4-.2-2.6.7-2.8 3.7-2.5 5.9.2 2 1.1 4 2.2 5.7 2.3 3.3 6.1 5.8 10.1 6.5 10.1 1.7 18.4-7.5 19.7-16.8.3-2.2-3-3.4-3.4-.9-1.3 7.3-7.8 15.2-15.9 13.8-3.5-.6-6.9-2.8-8.4-5.8-.4-.8-.7-1.6-.8-2.4-.1-.4-.1-.8-.1-1.1v-.8c0-.2.2-.4 0-.3.5-.5 1.8.1 2.4.2 1.4.3 2.7.5 4.1.7 5.2.6 11 .5 15.8-1.5 4.5-1.9 8.1-6.2 7.5-11.3-.2-2.2-1.9-5-4.4-4.9-1.3 0-2.2.9-2.7 2-.3.7-.4 1.7-1.1 2.1-1.7 1.1-2.6-.8-4-1.5-1.7-.9-3.4-.2-4.4 1.2-.5.6-.8 1.4-1.2 2.1-.3.6-.8 1.4-1.2 1.7-.1.1-.4.2-.6.2-.1 0-.3-.2-.4-.2-.8-.6-1.4-1.5-2.1-2.1-2-1.7-4.6-1.9-6.7-.3-2.3 1.8-2.8 4.8-3.1 7.5-.3 1.8 2.7 2.8 3 .5M54 114.5c-3.8-2.1-7.6-5.8-7.5-10.5 0-2 .8-4.1 2.1-5.6 1.6-1.7 3.5-2.1 5.7-2.3 2.7-.3 5-1.2 6.3-3.7 1.1-2.1 1.3-4.4 1.8-6.6 1.1-4.2 4.7-7.4 8.9-8.3 5.2-1.1 9.4 2.8 14.5 3.1 5.1.4 8.3-3.8 11-7.5 1.3-1.8 2.6-3.5 4.4-4.7 1.7-1.2 3.7-1.9 5.7-2.2 4.3-.6 8.5.7 11.6 3.8 1.7 1.8 3.2 3.7 5.3 5.1 2.6 1.7 5.5 1.6 8.4 1.2 4.7-.6 10.9-.6 14 3.6 1.2 1.6 1.9 3.6 1.5 5.6-.4 2.1-2.3 3.6-3.5 5.3-1.6 2.2-2.3 4.8-1.1 7.3s3.3 4.5 4.5 7c1 2.1 1.5 4.4.6 6.6-.7 1.6-2.4 3.2-4.3 3.1s-3.3-1.7-4.6-2.9c-1.7-1.6-3.5-3.1-5.8-3.7-4.4-1.1-8.6 1.2-12.6 2.7-1.8.7-3.8 1.4-5.7 1.2-2.2-.2-3.9-1.8-5.4-3.2-2-1.8-4.1-3.4-6.7-4.1s-5.4-.6-7.9.4c-2.3.9-4.3 2.5-6.2 4-1.7 1.3-3.6 2.6-5.8 2.5-2-.2-3.9-1.4-5.6-2.4-2-1.1-4.1-2.2-6.4-2.2-2.4-.1-4.5 1.2-6.1 2.9-1.5 1.5-2.8 3.8-4.8 4.7s-4.4.4-6.4-.4c-2.4-1-3.4 2.7-1.3 3.6 2.5 1.1 5.3 1.7 8 1.1s4.3-2.8 6-4.8c1.3-1.5 2.9-3.2 5.1-3.1 2.1.1 4 1.5 5.8 2.5 2.1 1.2 4.4 2.3 6.8 2.2 2.6-.1 4.8-1.5 6.8-3s3.9-3.2 6.3-3.9 5-.4 7.2.8c2.2 1.3 3.9 3.4 6 4.9 2 1.4 4.5 2 6.9 1.7 2.3-.3 4.5-1.1 6.6-2 2-.8 4-1.7 6.1-2s3.8.2 5.4 1.5c1.8 1.5 3.3 3.3 5.4 4.4 2.3 1.2 5 1.2 7.2-.2s3.5-3.8 4-6.3c.6-2.9-.4-6-1.7-8.6-.7-1.3-1.5-2.6-2.4-3.8-.7-.9-1.8-2-2-3.2-.2-1.7 2.1-3.8 3.2-5.2 1.6-2.1 2.3-4.6 2-7.3-.7-5.7-5.3-9.9-10.7-11.1-2.9-.7-5.9-.6-8.8-.2-1.5.2-3.1.5-4.6.2-1.1-.2-2.1-.8-2.9-1.5-1.8-1.6-3.2-3.7-5.2-5.3-1.9-1.6-4.2-2.7-6.7-3.2-4.7-1-9.8-.1-13.7 2.7-2 1.4-3.5 3.4-4.9 5.4-1.3 1.8-2.6 3.7-4.4 5-4.6 3.3-9.9-1.4-14.6-2-5-.6-10 1.5-13.2 5.4-1.6 2-2.4 4.3-2.9 6.7-.4 1.8-.6 4.4-2.1 5.7-1 .8-2.3.9-3.5 1-1.4.1-2.8.3-4 .9-2.2 1.1-3.8 2.9-4.9 5.1-2.4 4.9-.9 10.5 2.4 14.5 1.7 2 3.8 3.6 6.1 4.9 2.2 1 3-2.4 1.3-3.3m77 83.6c2.3 10 5.9 19.7 8.4 29.7.5 2.1 3.9 1.6 3.4-.7-2.2-9.9-6-19.3-8.4-29.2-.2-.9-.9-1.9-2-1.9-.9.1-1.6 1.1-1.4 2.1"/>
	<path d="M140 225.5c-10.3 6.9-21.9 12.6-34 15.3-10.7 2.4-22.3 1.8-32-3.6-4.9-2.7-9-6.6-11.7-11.5-.5-.9-1.7-1.2-2.5-.6-.9.7-.7 1.9-.3 2.8 5.3 9.5 15.4 15.6 25.9 17.6 12.7 2.4 25.7-.8 37.3-5.9 6.8-3 13.3-6.6 19.4-10.8 1.8-1.2-.2-4.5-2.1-3.3m-.9-5.2c4.4 1.4 8.9 2.3 13.4 3.2 4.5.8 9.1 1.5 13.6 2.1 1 .1 1.8-.5 2-1.5.1-.9-.5-2.3-1.6-2.4-9-1.2-18.3-2.3-27-5.1-1-.3-1.8.6-1.9 1.5s.5 1.8 1.5 2.2m7.3-75.3c1.9-.3 3.5.7 4.8 2 1.3 1.4 2.1 2.8 2.4 4.7.4 2.9 0 5.9-.4 8.7-.2 1.2-.4 2.4-.9 3.4-.5.9-.9 1.3-1.7 1.9s-1.8 1.1-2.8 1.4c-.5.2-.8.2-1.3.3h-.4c-.1 0-.2 0-.2-.1-.3-.1.3.2-.1-.1-.9-.5-1.9-.1-2.3.8-.4 1 .1 2.2 1 2.7 2.2 1.3 5 .2 7-.9 2.6-1.4 4.1-3.5 4.8-6.4.8-3.5 1.2-7.3.9-10.9-.2-2.8-1.3-5.4-3.1-7.5-2-2.4-4.9-4.6-8.2-4-1 .2-1.6 1-1.5 2s.9 2.2 2 2m-92.2 1.9c-5 2-7.8 7.2-8.3 12.4-.3 3.3.3 6.6 1.2 9.7.5 1.5 1 3.1 1.6 4.6s1.2 3.1 2 4.6c.9 1.7 2.5 2.5 4.4 2.5.9 0 1.9-.2 2.8-.3 1-.1 2.3-.1 3.2-.6 1.4-.7 1.1-3-.4-3.4-1.8-.5-4 .2-5.8.3-.7 0-.9 0-1.2-.5-.3-.6-.5-1.2-.8-1.8-1.4-3.3-2.7-6.6-3.2-10.1-.7-5.1.9-11.4 6.1-13.5 1.8-1.1.4-4.7-1.6-3.9m117.9 81.3c.2 14.6 1 29.7 7.1 43.2 2.5 5.6 5.7 10.9 9.7 15.5 3.9 4.6 8.4 8.9 13.9 11.5 2.6 1.2 5.3 2.1 8.2 2.4 3.6.4 7.3.7 11 .6 3.6-.2 7.4-.8 10.8-2.2 2.5-1 4.4-3 6.2-4.9 2-2.2 3.7-4.6 5.5-6.9s3.7-4.1 5.4-6.6c4-6 6.1-13.4 7.7-20.4 3.5-15.1 3.4-30.8.5-46l-1.2-5.7c-.2-1-.9-2-2-1.9-1 0-1.7 1.1-1.5 2.1 3.4 14.4 4.4 29.3 2.1 44-1.1 7-2.9 14.1-5.8 20.7-1.3 2.8-2.9 5.5-5 7.8-1.8 1.9-3.3 4-4.9 6.1s-3.3 4.3-5.3 6.1c-2.2 1.9-4.7 2.7-7.6 3.3-3.3.7-6.8.7-10.2.6-3-.2-6.1-.4-9.1-1.2-5.2-1.6-9.7-5.1-13.5-9-4-4.1-7.3-9-10-14.1-6.4-12.2-7.6-26.1-8.2-39.6l-.3-5.4c0-.9-.9-1.8-1.8-1.8-1.3 0-1.7 1-1.7 1.8"/>
	<path d="M178.7 227.6c-.8 5.4 0 11 2.1 16.1 2 4.7 5.1 9.5 10.1 11.3 4.2 1.5 8.7.3 12.3-2 4-2.6 6.7-6.6 8-11.2.8-3 1.2-6.1 1.3-9.1.1-3.1-.3-6.1-.3-9.2 0-1.1-.5-2.3-1.8-2.4-1.2-.1-1.9 1-1.7 2.1.3 2.4.4 4.9.4 7.4 0 2.4-.1 4.8-.5 7.2-.7 4.1-2.4 7.9-5.6 10.7-2.6 2.3-6.3 4-9.8 3.4-4.2-.7-6.9-4.4-8.7-8-2.3-4.7-3.2-10.1-2.5-15.3.2-2.3-2.9-3.4-3.3-1"/>
	<path d="M181.5 228c7.2-7.2 19.2-8.7 27.8-3.2.8.5 1.9.1 2.2-.8.4-1-.1-2.1-1-2.6-9.6-6.1-23.2-4.6-31.2 3.5-.7.7-.8 1.8-.2 2.6.5.6 1.7 1.2 2.4.5m40.5-4.7c-.1 5.1-.1 10.3 1.4 15.2 1.3 4.3 4 8.2 7.9 10.6 3.7 2.3 8.4 2.7 12.2.6 4.1-2.3 6.6-6.5 7.7-10.9 1.5-5.9 1.4-12.2 1.1-18.2-.1-1-1-2-2-1.9-1.1.1-1.5 1.1-1.5 2.1.2 4.7.3 9.5-.5 14.2-.6 3.9-2.1 7.7-5.2 10.2-2.7 2.2-6.2 2.7-9.4 1.2-3.3-1.6-5.6-4.5-6.9-7.9-1.7-4.5-1.6-9.5-1.6-14.3 0-.9-.4-2-1.4-2.2-.9-.4-1.8.3-1.8 1.3"/>
	<path d="M224.6 222.9c6.9-5.3 16.8-5.4 23.9-.5.8.6 1.9 0 2.2-.8.4-1-.2-2-1-2.6-7.9-5.7-19.6-5.3-27.2.8-1.5 1.3.4 4.4 2.1 3.1"/>
	<path d="M210.6 224.9c3.7-.2 7.5-.1 11.2-.2h1.3c-.2-1.3-.3-2.6-.5-3.9h-.8c-1 0-1.6 1.1-1.5 2 .2 1 .9 1.9 2 1.9h.8c1 0 1.6-1.1 1.5-2-.2-1-.9-1.9-2-1.9-3.3-.1-6.7 0-10 .1-.8 0-1.7 0-2.5.1-2.3.1-1.7 4 .5 3.9m-36.5 3.2c1.7 0 1.3-3-.4-3-1.7.1-1.2 3 .4 3"/>
	<path d="M175.4 226.3c.5-15.5 6.7-31.8 19.9-40.8 6.2-4.3 13.8-6.6 21.4-6.6 7.5 0 14.6 2.7 20.3 7.7 6.8 6 11.2 14 15.5 21.8.5.9 1.7 1.2 2.5.6.9-.7.7-1.9.3-2.8-4.1-7.3-8.3-14.8-14.3-20.8-5.9-5.9-13.4-9.6-21.7-10.3-8.1-.7-16.2 1.4-23.2 5.3-7.2 4.1-12.9 10.4-16.8 17.6-4.6 8.4-6.9 17.9-7.1 27.5 0 .9.4 1.9 1.4 2.2.9.2 1.8-.5 1.8-1.4"/>
	<path d="M187 220.7c-.5-1.5-1-2.9-1.6-4.4-.1-.4-.3-.8-.4-1.2-.1-.2-.1-.3-.2-.5-.3.5-.3.7-.1.6.1.1.8-.3.9-.3.3-.1.6-.2 1-.4 2.8-1 5.6-1.7 8.6-2 2.9-.3 5.9-.4 8.8 0 .2 0 .7.2.8.1h.1c.2-.1.1-.3-.2-.6-.1 0-.4 2.2-.4 2.4-.3 1.5-.9 3.3-.6 4.7.2 1.2 1.9 2.6 2.9 1.1.8-1.3.9-3.2 1.2-4.7s.8-3.2.2-4.7c-.6-1.4-1.9-2.1-3.4-2.3s-3-.3-4.6-.3c-3 0-5.9.3-8.8.9-1.5.3-2.9.7-4.3 1.1-1.3.4-2.9.8-4 1.7-1.6 1.2-1.1 3.1-.5 4.7.7 1.7 1.3 3.3 2 5 .3.8 1.2 1.5 2 1.1.7-.2.9-1.2.6-2m41.7-2.8c-.5-1-.9-2-1.4-3.1-.2-.5-.4-.9-.6-1.4-.1-.3-.3-.6-.4-.8 0-.1-.1-.2-.1-.3-.1-.2-.1-.2 0-.1-.1.3-.2.6-.3.8.2-.3 1.2-.5 1.7-.6.8-.3 1.7-.5 2.6-.7 1.7-.4 3.5-.8 5.3-1 3.4-.3 6.9-.1 10.1 1.2-.4-.5-.7-1.1-1.1-1.6.2 1.7 0 3.2-.7 4.8-.8 2 2.2 4.1 3.2 1.8.7-1.7 1-3.6 1-5.4 0-.9-.1-2-.8-2.7-.7-.6-1.8-.9-2.6-1.1-3.2-1-6.6-1.1-9.9-.7s-6.8 1.1-9.8 2.3c-1.8.8-2.2 2.5-1.5 4.2.8 1.8 1.7 3.6 2.5 5.4.4.8 1.2 1.5 2.1 1.2.7-.3 1.1-1.4.7-2.2m-24 29.6c.1.8.2 1.5.2 2.3-.1.9-.2 1.9 0 2.8.2 1.7 1.1 3.5 2.7 4.3s3.4.2 4.7-1c.6-.6 1.1-1.3 1.6-2 .4-.5 1-1.3 1.7-1.4.5-.1.7.4 1 .7.6.6 1.2 1.3 2.1 1.5.8.2 1.7-.1 2.3-.8s.5-1.4.9-2.1c0 0-.3.1-.2.1.4.1.7.3 1.1.5.8.4 1.5.8 2.4.9 1.8.2 3.6-.5 4.9-1.8 1.5-1.5 2.4-3.5 1.5-5.6-.4-.9-1-1.7-1.6-2.5-.7-.8-1.4-1.8-2.2-2.5-1.3-1.2-3.1.3-2.4 1.8.7 1.4 1.9 2.5 2.7 3.7.2.2.3.5.4.7 0 .1 0 .2.1.2-.1.4-.6.9-.9 1.2-.9.8-2 1.2-3.2.7-1.4-.6-2.8-1.6-4.4-.8-.7.3-1.1.9-1.4 1.6-.1.2-.1.5-.2.7 0 .1-.1.3-.1.4 0 .2.1-.2.4-.2s.5.2.1-.1c-.2-.2-.4-.5-.6-.7-.5-.6-1.2-1.1-1.9-1.3-1.5-.5-3.1.3-4.2 1.3-1 .9-1.6 2.4-2.7 3.1-1 .6-1.3-.1-1.5-1-.1-.7 0-1.5 0-2.2q0-1.35-.3-2.7c-.2-.8-.8-1.7-1.7-1.7-.9.2-1.5 1.1-1.3 1.9m-20.2-9.8c2.5-1.3 5.3-2.1 8.1-2.3 1.4-.1 2.8-.1 4.2.1.7.1 1.3.2 2 .4.8.2 1.6.6 2.4.5 1.5-.1 1.8-2.3.7-3.2-1.2-1-3.1-1.3-4.7-1.5s-3.3-.3-4.9-.2c-3.2.2-6.3 1.1-9.1 2.6-.9.5-1.2 1.4-.8 2.3.2.8 1.2 1.7 2.1 1.3"/>
	<path d="M189.9 234.5c-2.1 2.8-.5 6.7 2.1 8.5 1.3.9 2.9 1.1 4.5.7 1.4-.4 2.7-1.5 3.5-2.8 1.1-1.7 1.4-3.8.8-5.8-.2-.8-1.1-1.4-1.9-1.2s-1.3 1-1.1 1.8c0 .3 0 .6.1.8v-.2.2c0 .2 0 .3-.1.5 0 .1-.1.3-.1.4 0 0 .1-.4 0-.1v.2c0 .1-.1.3-.1.4s-.2.3-.2.4c0 0 .2-.4.1-.1l-.1.1c-.1.1-.1.2-.2.4-.1.1-.1.2-.2.3 0 .1-.1.1-.1.2-.2.3.3-.3 0 0-.2.2-.4.3-.5.5-.1.1-.2.2-.3.2l.1-.1c-.1 0-.2.1-.2.1-.2.1-.5.2-.7.3-.3.1.1 0 .1 0h-.9.2c-.1 0-.3 0-.4-.1-.1 0-.2-.1-.4-.1s-.1-.1.2.1c0 0-.1-.1-.2-.1-.1-.1-.2-.1-.3-.2-.1 0-.1-.1-.2-.1-.1-.1-.1-.2.1.1-.2-.2-.4-.3-.6-.5s.1.1.1.2c0-.1-.1-.1-.1-.2-.1-.1-.2-.2-.2-.3-.1-.1-.1-.2-.2-.3l.1.2c0-.1-.1-.1-.1-.2-.1-.1-.1-.3-.1-.4-.1-.4.1.5 0 0 0-.1 0-.2-.1-.4v-.2c.1.4 0 .3 0 .1v-.4.2c0-.1 0-.2.1-.2 0-.1.1-.3.2-.4-.1.3-.2.3-.1.1.1-.1.1-.2.2-.2.5-.7.3-2-.3-2.5-.9-.6-1.9-.7-2.5.1m44.9-.9c2.4-1 5.1-1.4 7.7-1.1 1.3.1 2.5.5 3.7.9.6.2 1.1.5 1.7.7.6.3 1.2.8 2 .9 1.6.2 2.2-1.5 1.4-2.7-.9-1.3-2.8-2-4.3-2.6-1.4-.6-3-.9-4.5-1.1-3.1-.3-6.2.1-9.1 1.3-2 .9-.6 4.5 1.4 3.7"/>
	<path d="M239.9 231.7c-1 2.1-.5 4.8 1 6.6s3.9 2.5 6.2 1.7c1.1-.4 2.2-1.2 2.8-2.2.2-.4.4-.8.3-1.3s-.3-1-.7-1.3c-.7-.6-1.7-.7-2.3.1-.1.1-.1.2-.2.3-.2.2.3-.3 0 0-.2.2-.4.3-.6.5-.1.1-.2.1-.3.2.1 0 .2-.1.2-.1-.1 0-.1.1-.2.1-.2.1-.5.2-.7.3h-.2.2-1c-.3 0 .4.1 0 0-.1 0-.2-.1-.4-.1-.1 0-.1 0-.2-.1-.2-.1-.1 0 .2.1-.1-.1-.2-.1-.3-.1-.1-.1-.2-.1-.3-.2-.3-.2.4.3 0 0-.1-.1-.2-.2-.3-.2-.3-.3.2.3 0 0-.1-.2-.2-.4-.3-.5.3.5.1.2 0 0 0-.1-.1-.2-.1-.3-.2-.5.1.4 0 .1 0-.1 0-.2-.1-.4v-.3c0-.3 0 .5 0 0v-.4c.1-.5-.1.3 0 0 .1-.2.2-.5.3-.7.2-.4.1-1 0-1.4-.2-.4-.5-.9-.9-1.1s-.9-.3-1.3-.1c-.3.1-.5.4-.8.8m-60.1 39.7c-.6 8.1-1.3 16.1-1.9 24.2-.1 1.7-.4 3.5-.3 5.2 0-.3.1-.6.1-1 0 .1 0 .2-.1.2.2-.2.4-.5.5-.7-.4.3-.6.8-.7 1.3-.1 1 .5 2.1 1.6 2.4 1 .2 1.9-.5 2-1.5 0-.6-.1-1.1-.4-1.6.1.3.2.7.4 1-.1-.5-.1.3 0 .1s.1-.5.1-.8c.1-.8.1-1.5.2-2.3.2-2.4.3-4.7.5-7.1.4-5.1.7-10.1 1.1-15.2.1-1.2.2-2.3.2-3.5.1-.9-.5-2-1.5-2.2-.9-.2-1.7.6-1.8 1.5m71.9-.9c.5 4.6 1.1 9.1 1.7 13.7.3 2.2.6 4.5.9 6.8.2 1.1.3 2.2.4 3.4.2 1.2.2 2.5.7 3.7.6 1.5 2.7 1.7 3-.1.2-1.2-.1-2.3-.2-3.5-.2-1.1-.3-2.2-.5-3.4l-.9-6.9c-.6-4.6-1.2-9.1-2-13.7-.1-.9-.8-1.8-1.8-1.7-.9-.1-1.4.8-1.3 1.7m-86-19.5c-.7 4.1-1 8.6.8 12.4 1.6 3.3 4.8 5.7 8.6 5.9.9 0 1.8-.1 2.7-.4s2-.9 2.5-1.8c.4-.7.4-1.5-.1-2.3-.4-.6-1.2-1.1-1.9-.8-1 .5-1.2.9-2.1 1.1-.1 0-.2.1-.3.1h-.1c-.2 0-.3 0-.5.1h-1c-.9-.1-1.5-.4-2.2-.7-.7-.4-1.1-.7-1.7-1.3l-.2-.2c.1.1.1.1 0-.1s-.2-.3-.3-.5c-.3-.4-.4-.7-.6-1.2-.4-1-.6-1.9-.7-3-.2-2.2.1-4.4.4-6.6.1-.9-.5-2-1.5-2.2-.9-.1-1.6.6-1.8 1.5m90 13.4c2.3 1.5 5.7 1.1 8 0 1.3-.6 2.5-1.4 3.3-2.5 1.1-1.5 1.4-3.5 1.5-5.3 0-1.2 0-2.3-.2-3.4-.2-1.3-.2-2.9-1.2-3.9-.8-.9-2-.4-2.4.5-.3.7-.1 1.4 0 2.2.1.5.2 1 .2 1.5.1.6.1 1.1.1 1.7v1.2c-.1 1.1-.3 1.7-.6 2.7-.1.2-.1.1.1-.1 0 .1-.1.1-.1.2-.1.1-.2.3-.3.4s-.1.1.1 0l-.2.2-.3.3c-.3.2-.6.4-.8.6l-.2.1c-.2.1-.3.1-.5.2-.3.1-.7.3-1 .4-.2.1-.4.1-.6.1.4-.1-.1 0-.2 0-.4.1-.7.1-1.1.1h-.9.1c-.3 0-.6-.1-.9-.2-.2-.1-.2-.1.1 0-.1 0-.1-.1-.2-.1-.1-.1-.3-.2-.4-.2-.8-.5-1.9 0-2.2.8-.5.9 0 2 .8 2.5"/>
	<path d="M178.2 302.5c8.3 7.8 19 13.1 30.3 14.9 11.8 1.8 24.1-.1 34.7-5.6 5.6-2.9 11.7-6.8 14.4-12.7.8-1.7-1.8-4.1-3-2.2-1.4 2.2-2.9 4.2-4.9 5.9s-4.3 3.2-6.6 4.5c-4.9 2.7-10.2 4.7-15.7 5.8-10.8 2.2-22.1 1-32.1-3.5-5.5-2.4-10.6-5.8-15-9.9-.7-.6-1.8-.7-2.4.1s-.4 2 .3 2.7m78.3-10.5c7 1.6 14 3.3 20.8 5.2 6.2 1.8 12.9 3.4 18.4 7 5.2 3.5 8.6 9 11.7 14.2 3.4 5.7 6.6 11.6 9.5 17.6 3.3 6.9 6.1 14.1 8.8 21.3.3.9 1.4 1.7 2.4 1.3s1.2-1.6.9-2.6c-4.5-13.2-10.6-26-17.7-38.1-3.3-5.6-6.7-11.4-11.8-15.5-5.3-4.4-12-6.4-18.6-8.2q-11.85-3.45-24-6c-2.4-.3-2.5 3.4-.4 3.8m34.4-162.1c-.7 7.7-1.5 15.3-1.7 23-.3 9 0 18.1 2.7 26.8 4.6 14.9 17.5 26.6 32.9 29.3 15.8 2.8 32.1-3.9 41.8-16.6 10-13.1 13-30.2 15.1-46.1 2.5-19.2 2.9-38.7 1.2-58-.2-2.3-.4-4.7-.7-7-.1-1-1-2.1-2.1-2L330 83.5c-8.3.7-16.7 1.4-25 2.1-1.8.2-3.8.1-5.5.8s-2.8 2.2-3.4 3.9-.7 3.5-.9 5.3c-.3 2.1-.6 4.1-.8 6.2-1.2 9.4-2.5 18.7-3.7 28.1-.1 1 .6 2.2 1.6 2.4 1.1.3 1.9-.6 2-1.5 1.1-8.1 2.2-16.1 3.2-24.2.5-4.1 1.1-8.1 1.6-12.2.2-1.2.3-2.6 1.1-3.5 1-1.1 3-1 4.4-1.1 16.2-1.3 32.4-2.7 48.6-4 9.2-.8 18.3-1.5 27.5-2.3-.7-.7-1.4-1.3-2.1-2 2.1 18.5 2.2 37.3.4 55.8-.9 8.6-2 17.2-3.9 25.6-1.7 7.3-4 14.6-7.7 21.1s-8.7 12-15.1 15.9c-6.4 3.8-13.9 5.9-21.4 5.8-14.1-.2-27.8-8.8-33.8-21.6-3.5-7.6-4.6-16.1-4.6-24.5 0-8.2.6-16.5 1.3-24.7.1-1.3.2-2.7.4-4 .1-1-.5-2-1.5-2.3-.9-.4-1.7.4-1.8 1.3"/>
	<path d="M293.2 147.9c7.9-10.1 16.5-22.3 14.2-35.9-.5.7-1 1.4-1.5 2 15.5-.6 31-.9 46.5-1.1 4.2-.1 8.5-.1 12.7-.1-.6-1-1.3-2-1.9-2.9-.9 3.9-.7 7.9.6 11.7.9 2.6 2.4 4.5 4.1 6.6.9 1.1 1.8 2.2 2.8 3.3.3.4.6.7.9 1.1 0 0 .3.4.4.4 0 0-.4-.5-.2-.3.9 1.5 2 2.9 3 4.3 1 1.5 2 2.9 3.1 4.4.6.8 1.7 1.3 2.5.6.8-.6.8-2 .3-2.8-1.9-2.7-3.8-5.4-5.7-8.2-2.2-3.1-5-5.2-6.9-8.4-1.8-3.1-2.3-7.3-1.5-10.7.3-1.3-.3-2.9-1.9-2.9-15.5.1-31 .4-46.5.8-4.2.1-8.4.3-12.7.4-1 0-1.6 1.1-1.5 2 2.2 12.5-6.3 23.9-13.4 33.2-1.3 1.6 1.2 4.4 2.6 2.5m10.5 7.3c3.5-2.4 7.6-3.4 11.8-3.3 2.1.1 4.1.4 6 1.1q1.35.45 2.7 1.2c1 .5 2.1 1.7 3.2 1.6 1.2-.1 1.5-1.3 1.2-2.3-.5-1.3-2-2.1-3.2-2.7-1-.6-2.1-1-3.2-1.4-2.3-.8-4.7-1.2-7.1-1.3-4.8-.2-9.6 1.3-13.6 4.1-1.6 1.1.3 4.3 2.2 3"/>
	<path d="M305.7 152.8c-1.2 3.6 1.4 8 5.2 8.6 1.7.3 3.4-.2 4.5-1.4s1.8-2.7 1.9-4.4c.1-1.9-.5-4-2-5.3-.7-.6-1.8-.7-2.4.1-.5.8-.4 2 .4 2.7l.3.3s-.3-.4-.2-.2l.1.1c.1.1.1.2.2.3s.1.4-.1-.2c0 .1.1.2.1.2 0 .1.1.2.1.3.2.5-.1-.5 0-.1 0 .3.1.5.1.8-.1-.7 0-.2 0 0v.3c0 .1 0 .2-.1.4 0 .2.1-.5 0-.2 0 .1 0 .2-.1.2-.1.2-.2.4-.3.7-.1.2.2-.4.1-.1l-.1.1c-.1.1-.2.2-.2.3-.1.1-.2.2-.2.3-.1.2.3-.3.1-.1l-.1.1c-.2.2-.4.3-.7.5l.2-.1c-.1 0-.1 0-.2.1s-.2.1-.4.1c-.1 0-.2 0-.2.1 0 0 .4-.1.2 0h-.8c.3 0-.2 0-.3-.1-.1 0-.3-.1-.4-.1-.2-.1-.2-.2.1 0-.1 0-.2-.1-.2-.1-.1-.1-.3-.1-.4-.2-.1 0-.1-.1-.2-.1-.3-.2.3.2.1.1-.2-.2-.5-.4-.7-.6s.1.1.1.2c-.1-.1-.1-.2-.2-.2-.1-.1-.2-.3-.3-.5-.1-.1-.1-.4.1.2 0-.1-.1-.2-.1-.2-.1-.2-.1-.3-.2-.5s0-.3.1.2c0-.1 0-.2-.1-.3v-.5c.1.6 0 .1 0-.1 0-.1.1-.4 0-.1s0-.1.1-.2c.3-.9-.1-2.1-.9-2.5-.7-.1-1.6.2-2 1.1m40.9 2.5c3-1.9 6.6-2.7 10.1-2.5 3.7.2 6.7 1.7 9.7 3.7.7.5 1.7.1 2.1-.6.4-.8.2-1.9-.5-2.5-3.1-2.8-7.6-4.2-11.7-4.4-4.2-.2-8.4.9-11.9 3.2-1.7 1 .3 4.3 2.2 3.1"/>
	<path d="M347.6 153.2c-.2 3.6 2.7 6.8 6.2 7.1 3.2.2 5.6-2.7 5.9-5.7.1-.9 0-1.9-.3-2.8-.3-1.1-1-2.2-2.2-2.5-1.1-.3-1.8.8-1.7 1.7.1.6.4 1.1.6 1.7 0 .1.1.3.1.3s-.1-.6-.1-.2v.7-.2c0 .2 0 .5-.1.7v.1c0 .2.1-.4 0-.2 0 .1-.1.3-.1.4s-.1.2-.1.3-.2.4-.1.1c.2-.3-.1.1-.1.2-.1.1-.2.2-.2.3-.1.1-.2.2-.2.3l.1-.1-.1.1c-.2.2-.5.3-.6.5l.2-.1c-.1 0-.1.1-.2.1s-.2.1-.3.1-.5.1-.2.1.1 0 0 0h-.9c-.2 0 .3.1.1 0-.3-.1-.6-.1-.8-.2l-.2-.1s.3.2.2.1-.2-.1-.4-.2c-.1-.1-.2-.1-.3-.2 0 0-.1-.1-.2-.1.2.2.3.2.2.1l-.1-.1-.3-.3c-.1 0-.1-.1-.1-.1-.1-.1-.2-.3 0 .1-.1-.2-.3-.5-.5-.7l.1.2c0-.1-.1-.2-.1-.2 0-.1-.2-.6-.1-.2.1.3 0-.2 0-.3v-.2.1c0-.9-.4-2-1.4-2.2-.8 0-1.7.6-1.7 1.5m-45.3 1.9c2.1-2 3.2-4.6 5.1-6.8s5.1-3.2 7.9-3.4c2.9-.2 5.3.7 7.4 2.7.8.8 1.6 1.8 2.1 2.8.6 1.2.7 2 .7 3.1 0 .9.3 1.8 1.3 2.2.8.3 1.7 0 2-.9.8-2.5-.4-5.4-1.8-7.4-1.4-2.1-3.3-4-5.6-5.1-2.7-1.3-5.8-1.5-8.7-.9-2.8.6-5.6 1.7-7.6 3.9-1.9 2-2.9 4.7-4.9 6.7-.7.7-.8 1.7-.2 2.6.5.7 1.6 1.2 2.3.5"/>
	<path d="M347.1 154.5c.8-2.4 2.3-4.6 4.1-6.3 1.7-1.5 3.9-2.9 6.3-2.8 4.6.2 7.4 5.4 7.8 9.4.1 1 .9 1.9 2 1.9 1 0 1.6-1.1 1.5-2-.5-4.7-3.1-9.6-7.3-11.9-4.6-2.5-9.6-.6-13.1 3-1.9 2-3.6 4.4-4.4 7.1-.3.9.1 2 .9 2.5.8.4 1.9 0 2.2-.9m-26.6 9.5c-1.7 3.4-2.4 7.8.5 10.8 1.1 1.2 2.8 2 4.5 2s2.8-.9 3.9-2c.2-.2.4-.4.7-.5.2-.1.3 0 .3 0 .3.1.7.5 1.2.8 1.1.9 2.4 1.8 3.8 1.4.9-.2 1.4-.8 2-1.5l.2-.2s-.3-.2.1 0c-.2-.1.3.2.3.2 1.1.6 2.1 1.6 3.5 1.5 2.4-.1 2.9-3 3.4-4.8.4-1.2.7-2.3 1.1-3.5s.9-2.4.9-3.7c0-.8-.3-1.6-1-2-.6-.3-1.4-.2-1.8.4-1 1.5-1.3 3.5-1.8 5.2-.4 1.5-1.1 3-1.4 4.5 0-.2.3.2 0 0 .1.1-.4-.2-.4-.3-.4-.3-.9-.6-1.3-.9-1.3-.7-2.7-.8-3.9.2-.4.3-.6.8-1.1 1 .1-.1.1 0 .2 0-.1 0-.3-.1-.1 0-.1-.1-.6-.3-.4-.2-1-.7-1.8-1.6-3-2-1.4-.4-2.7.2-3.8 1.1-.8.7-1.4 1.5-2.5 1.3-3.4-.7-2-5-.9-7.2 1-1.7-2-3.8-3.2-1.6m.5 24.5c.5-1.1 1.7-1.8 2.8-1.9 1.6-.2 2.4.8 3.7 1.5 1.6 1 3.3.8 4.8-.2 1.1-.7 2-2 3.2-2.5 2-.8 3.6 2.4 2.3 3.9-.7.9-2.2 1-3.3 1.1-1.8.3-3.6.9-5.5 1s-3.7-.6-5.4-1.3c-.7-.2-1.3-.5-1.9-.9.2.1-.2-.1-.2-.2-.1-.1-.2-.1-.2-.2q.15.15 0 0c-.2-.3.1.3 0-.1v-.2c0-1-.5-2.1-1.5-2.3-.9-.2-1.9.5-1.9 1.5-.1 2.3 1 4.1 3 5.2.8.5 1.7.8 2.6 1.1 1.1.4 2.1.9 3.2 1.1 2.5.5 4.7-.1 7.1-.6 1.9-.4 3.9-.4 5.6-1.5 3.9-2.4 2.6-8.4-.7-10.7-1.8-1.2-3.8-1.1-5.6.1-.7.5-1.4 1.1-2 1.7-.5.4-1.1 1-1.8.8-.9-.2-1.7-1.2-2.6-1.6-1-.5-2.2-.7-3.4-.5-2.4.3-4.4 1.7-5.3 4-.9 1.9 2 3.9 3 1.7m-23.6 2.9c.5 5.6 1 11.1 1.4 16.7.2 2.8.5 5.7.7 8.5.1 1.4.2 2.7.4 4.1.1 1.4.1 2.8.6 4.2.6 1.6 2.7 1.6 3-.1.2-1.3 0-2.7-.2-4-.1-1.4-.2-2.7-.4-4.1-.3-2.9-.5-5.8-.8-8.7-.5-5.6-1-11.1-1.5-16.7-.1-.9-.9-1.9-1.9-1.8-.9 0-1.4 1-1.3 1.9m-7.2-22.2c-1.7 1.1-3.9.3-5.2-1-1.9-1.7-2.2-4.5-2.4-6.9q-.15-2.1 0-4.2c.1-1.1.4-2.1 1.2-2.9 1.6-1.5 4-2 6.1-2.4 1-.2 1.6-1 1.5-2-.1-.8-1-2.1-2-1.9-2.4.4-4.8.9-6.8 2.3-2.4 1.6-3.4 4.2-3.5 7-.1 5.4.2 12 5.4 15.2 2.4 1.5 5.4 1.7 7.8.1 1.7-1.3-.2-4.5-2.1-3.3m86.4 1.9c1.9 1.6 4.4 1.9 6.8.9 2.5-1 4.2-3.2 5-5.7.9-2.8.9-5.7.9-8.6.1-2.7.6-6.1-1.2-8.4-1-1.2-2.5-1.8-4-1.5-1.4.2-2.7.9-4.1.7-1-.1-1.6 1.2-1.5 2.1.1 1.1.9 1.8 2 1.9 1.4.1 2.6-.4 3.9-.7.4-.1.7-.1 1.1-.1.2 0 .3.2.3.3.3 1.2.1 2.5.1 3.7 0 1.5 0 3.1-.1 4.6-.1 2.3-.4 5.2-2.2 6.9-1.2 1.1-3.5 2.2-4.9 1-2.1-1.5-3.9 1.5-2.1 2.9M365 190c1.1 5.8 2.4 11.6 3.7 17.4.6 2.9 1.3 5.8 1.9 8.7l.9 4.2c.3 1.5.4 3.2 1.1 4.6.3.7.9 1.4 1.8 1.3.8 0 1.4-.7 1.4-1.5.1-1.5-.4-3-.7-4.4-.3-1.5-.6-2.9-.9-4.4-.6-2.9-1.3-5.8-1.9-8.7-1.3-5.8-2.5-11.6-3.7-17.4-.2-1-.9-2-2-1.9s-1.8 1.1-1.6 2.1"/>
	<path d="M300.7 227.4c3.3 2.8 7.5 4.1 11.8 4.7 4.7.6 9.6.6 14.3.5 10-.1 20-1.1 29.9-3 5.6-1.1 11.2-2.4 16.6-4 2.2-.6.8-4.5-1.4-3.8-9.3 2.7-18.8 4.6-28.4 5.7-9.4 1.1-19.1 1.5-28.6.9-4.2-.3-8.8-1.1-12.1-3.9-2-1.6-3.8 1.4-2.1 2.9m72.1-13.4c7.3 4.7 14.6 9.8 20.5 16.1.5.5 1 1.1 1.5 1.6.1.1.4.4.2.3-.1-.2.2.2.2.3.2.3.5.6.7.8l2.4 3.3c1.5 2.2 3 4.6 4.4 6.9 2.1 3.3 4.3 6.5 6.7 9.6.6.7 1.6 1.3 2.5.6.8-.6.8-2 .3-2.8-2.1-2.9-4.2-5.8-6.2-8.8-1.5-2.4-3-4.8-4.6-7.1-3.6-5.3-8-9.9-12.9-14-4.6-3.7-9.5-7.1-14.5-10.3-.8-.5-1.9 0-2.2.8-.3 1.1.2 2.1 1 2.7"/>
	<path d="M298.4 217.1c-1.3 12.4.1 25 3.7 36.9s9.4 23.1 17.2 32.8c3.7 4.6 8.4 9.4 14.5 10.3 5.7.8 11-1.8 15-5.7 4.4-4.2 7.5-9.4 10.4-14.7q4.8-8.7 8.4-18c4.8-12.4 7.9-25.5 9.1-38.7.2-1.6.3-3.2.4-4.8.1-1-.5-2.2-1.6-2.4-1-.2-1.9.5-2 1.5-.8 12.6-3.2 25.1-7.2 37.1-2 6-4.4 11.8-7.2 17.5-2.6 5.3-5.5 10.7-9.2 15.5-3 3.9-7 7.9-12.1 8.8-5.5 1-10.2-2.2-13.8-6.1-4-4.2-7.3-9.2-10.2-14.2s-5.4-10.4-7.3-15.9c-3.9-11.1-5.7-22.8-5.3-34.6 0-1.5.1-2.9.2-4.4.1-.9-.5-1.9-1.4-2.1-.8-.4-1.5.3-1.6 1.2m-238.8-36c-.1 7.3-.3 14.7-.4 22-.1 3.6-.1 7.3-.2 10.9 0 1.8-.1 3.6-.1 5.5s-.3 4 0 5.8c.2.8.6 1.5 1.4 1.7.7.2 1.5-.2 1.7-1 .4-1.8.3-3.8.3-5.7 0-1.8.1-3.5.1-5.3.1-3.7.1-7.4.2-11.1l.3-22c0-1-.4-2-1.5-2.3-.8-.2-1.8.5-1.8 1.5M18 230.3c-6.1 3.5-11.9 7.8-17.1 12.4-.8.7-.8 1.9-.3 2.8.5.8 1.7 1.3 2.5.6 5.2-4.7 11-9 17.1-12.5.9-.5.7-2 .2-2.7-.5-.9-1.5-1.1-2.4-.6m154.6-125.6c.4 6.8 2.2 13.5 4.9 19.7 2.8 6.5 6.5 12.7 11.5 17.7 2.3 2.3 4.9 4.3 7.7 5.8 3.3 1.7 7 2.6 10.6 3.2 6.4 1 13.1.4 18.9-2.7 5.1-2.7 9.1-6.8 12.7-11.2 1.8-2.2 3.4-4.5 5.1-6.7 2.2-2.9 4.4-5.8 6.1-9.1 4-7.7 5.8-16.2 6.7-24.8.8-7.9.8-15.8-.1-23.7-1.8-15.3-7.3-30.5-17.9-42-1.3-1.4-2.6-2.7-4.1-4-2-1.8-3.9 1.5-2.1 3 10.9 9.6 17.1 23.3 19.6 37.5 1.3 7.3 1.7 14.8 1.4 22.2-.4 8-1.5 16-4.2 23.5-1.4 3.8-3.2 7.4-5.6 10.7-1.6 2.3-3.3 4.5-5 6.7-3.2 4.3-6.4 8.3-10.7 11.6-4.4 3.4-9.6 5.2-15.3 5.2-3.6 0-7.2-.6-10.6-1.6-2.8-.8-5.4-2.1-7.7-3.8-5.2-3.9-9-9.3-12-14.9-3-5.7-5.1-12-6.1-18.3-.2-1.4-.4-2.9-.5-4.3-.1-.9-.9-1.9-1.9-1.8-1.1.2-1.5 1.2-1.4 2.1"/>
	<path d="M245 124.6c.2 1 .2 2.2.2 3.2.1 2.4.2 4.8.4 7.2.3 5.3.5 10.6.7 16v2.5c0 .3-.1.6 0 .9.1.4.2-.4.1-.2-.1.3.3-.4.2-.3.7-.1 1.4-.3 2.1-.4-.4-.2-.9-.3-1.4-.1h.9c.1.1.3.1.4.2l.7.7c-.6-.7-1.6-1.3-2.5-.6-.8.6-.9 2-.3 2.8.5.6 1.3 1.2 2.1.8 1-.4 1.2-1.6.9-2.5v1.5c.2-.5.1-.8.1-1.2-.1.9 0 0 0-.2v-2.6c-.1-2.4-.1-4.8-.3-7.2-.2-5.4-.5-10.9-.9-16.3-.1-1.3 0-2.8-.3-4.1-.2-.9-.8-1.8-1.9-1.8-.7-.2-1.4.8-1.2 1.7m-69.7-6.9c.3 7.6.7 15.1 1 22.7.2 3.7.4 7.5.5 11.2.1 1.7.1 3.6.7 5.2.6 1.5 1.7 2.7 3 3.7 1.9 1.5 3.8 2.9 6 4 3 1.6 6.4 2.7 9.7 3.3 6.4 1.2 12.9 1.2 19.3.7 2.3-.2 1.7-4.1-.5-3.9-5.6.4-11.2.5-16.7-.3-1.9-.3-3.8-.7-5.7-1.3-.8-.2-1.5-.5-2.3-.8-.4-.1.1 0-.2-.1-.2-.1-.3-.1-.5-.2-.3-.1-.7-.3-1-.4-1.9-.9-3.7-2.1-5.5-3.4-.7-.5-1.3-1-1.9-1.6-1-1.1-1-2.4-1.1-3.8-.2-3.6-.4-7.1-.5-10.7-.4-8.2-.8-16.4-1.3-24.6-.1-.9-.9-1.8-1.8-1.7-.8.1-1.2 1.1-1.2 2"/>
	<path d="M215.7 168.5c10.6-1 21.4-4.1 30.7-9.2 1-.6 2.1-1.1 3-1.8 1.6-1.3-.4-4.6-2.1-3.2-.2.2-.5.4-.8.5-.2.1-.4.2-.6.4-.1.1-.2.1-.3.2-.1 0-.1.1-.2.1-.2.1.3-.2.1 0-1.5.8-3 1.6-4.6 2.3-4.8 2.2-9.8 3.9-14.9 5.1-3.5.9-7.2 1.5-10.8 1.8-2.3.2-1.6 4 .5 3.8M177 145c-3.5 1-7.1 1.9-10.6 2.9s-7.1 1.7-10.6 3c-.9.3-1.2 1.4-.9 2.2.2.7 1 1.8 1.9 1.6 3.7-.7 7.2-1.9 10.8-2.9s7.2-2 10.7-3c2.2-.7.8-4.3-1.3-3.8m71.9-5.1c5.9 1.4 11.8 3.2 17.5 5.3 2.8 1.1 5.5 2.2 8.3 3.4 2.8 1.3 5.5 2.8 8.3 4.1 2.3 1.1 3.1-2.4 1.3-3.5-2.7-1.6-5.6-2.9-8.4-4.2s-5.7-2.5-8.6-3.6c-5.8-2.2-11.8-4-17.8-5.4-2.5-.3-2.6 3.5-.6 3.9m73.3 52.4c-.6 3.5 1.5 7.3 4.7 8.9 1.7.8 3.5 1 5.3.4 1.6-.5 3.1-1.7 4.1-3.1.5-.8 1-1.6 1.2-2.5.3-1.1.5-2.5 0-3.6-.3-.7-.9-1.3-1.7-1.3s-1.2.7-1.4 1.4v1.3c0 .2 0 .4-.1.6.1-.4-.1.3-.1.3-.1.2-.1.3-.2.5 0 .1-.1.2-.1.3q.15-.3 0 0c-.2.3-.4.6-.7 1-.1.2-.2.2 0 0l-.2.2-.4.4c-.2.1-.4.3-.5.4-.3.2.2-.1-.2.1s-.7.3-1.1.4c-.2 0-.2.1 0 0h-1.2c-.2 0-.4-.1-.6-.1s-.3-.1-.5-.1c.3.1-.3-.1-.3-.2-.1-.1-.3-.2-.4-.2-.1-.1-.2-.1-.3-.2q.3.15 0 0c-.3-.3-.6-.5-.8-.8.3.3-.1-.1-.1-.2-.1-.2-.2-.3-.3-.5q-.15-.3 0 0c0-.1-.1-.2-.1-.3-.1-.2-.1-.3-.2-.5 0-.1-.1-.2-.1-.3q.15.3 0 0c0-.2-.1-.3-.1-.5v-.3q0 .3 0 0c0-.2 0-.4.1-.7.2-.9-.5-2-1.4-2.2-1.5-.3-2.1.5-2.3 1.4M464 30.1c-8.6-6.5-19.6-8.8-30.2-7.2-10.8 1.6-20.3 7-27.7 14.9-7.3 7.8-12.3 17.6-14.8 27.9-2.8 11.2-2.9 23 .2 34.1 3 10.7 9.2 20.3 18.2 26.9 8.5 6.2 19.1 9.8 29.7 8.7 10.3-1.1 19.5-6.7 26.4-14.3 7.5-8.3 11.9-18.7 13.6-29.7 2-12.4.8-25.5-2.1-37.7-1.1-4.8-3.3-9.2-5.8-13.4-2.3-3.8-4.9-7.6-8.1-10.7-.6-.6-1.3-1.2-2.1-1.7-.3-.2-.5-.3-.8-.5-.1-.1-.2-.1-.3-.2-.2-.1-.3-.1-.5-.2 0 0 .4.2.1 0-2.2-.9-3.2 2.5-1.2 3.3.2.1.5.2.7.4.1.1.2.2.3.2.2.1-.1-.1-.1-.1.1.1.2.1.2.2.6.5 1.2 1 1.7 1.5 1.4 1.4 2.5 2.7 3.7 4.3 2.7 3.6 5.1 7.5 6.8 11.7 2.1 4.8 2.9 9.6 3.7 14.9.9 6 1.4 12 1.1 18.1-.4 10.9-3.1 21.7-9.2 30.9-5.3 7.9-12.8 14.4-21.9 17.4-9.3 3.1-19.4 1.9-28.1-2.5-9-4.6-16.2-12.1-20.3-21.4-4.4-9.8-5.6-20.8-4.2-31.5 1.3-10 4.9-19.8 10.8-28.1 5.8-8.2 13.8-14.8 23.4-18 9.3-3.1 19.9-3.1 28.9 1q3.3 1.5 6.3 3.6c1.8 1.3 3-1.7 1.6-2.8"/>
	<path d="M405.7 38.9s-.1.4 0 .1c0 .2-.1.3-.1.5-.1.4-.2.7-.3 1.1-.3.9-.6 1.8-.9 2.8-.6 2-1.1 4.1-1.4 6.2-.9 5.6-1.7 11.2-2.5 16.9-.2 1.4 2 3.4 3 1.7 5.2-9 11.5-17.4 18.9-24.8-.9-.8-1.8-1.7-2.6-2.5-2.6 8.1-3.9 16.6-4 25 0 .9.4 1.9 1.3 2.2s1.6-.1 2-.9c2.7-5.5 5.7-10.9 9.1-16.1 1.7-2.6 3.5-5.1 5.3-7.6.9-1.2 1.9-2.5 2.8-3.7.1-.1.2-.3.4-.4.1-.1-.1 0-.1 0 .2 0 .3.2.5.3.6.4 1.1.9 1.6 1.4 2.1 2.1 3.6 4.6 4.3 7.5.4 1.6 2.5 1.7 3.1.3 1.6-3.4 3.3-6.7 4.9-10.1-.9.2-1.7.4-2.6.5 6.7 5.8 10.3 14.6 9.6 23.5-.2 1.9 2.4 3.5 3.4 1.3 2-4.2 3.9-8.5 5.7-12.8.9-2-2.2-4.1-3.2-1.8-1.8 4.3-3.8 8.5-5.8 12.7 1.1.4 2.2.9 3.4 1.3.8-10.2-3.4-20.5-11.1-27.2-.9-.8-2.1-.6-2.6.5-1.6 3.4-3.3 6.7-4.9 10.1 1 .1 2.1.2 3.1.3-.8-3.1-2.4-5.8-4.5-8.2-1-1.2-2.3-2.4-3.6-3.1-1.8-1-3.3-.1-4.5 1.4-4.3 5.5-8.3 11.3-11.8 17.3-2 3.5-3.9 7.1-5.7 10.7 1.1.4 2.2.9 3.3 1.3.1-8.2 1.3-16.3 3.8-24.1.2-.8 0-1.7-.6-2.3-.5-.5-1.5-.7-2.1-.2-7.6 7.6-14.1 16.2-19.4 25.5 1 .6 2 1.1 3 1.7.8-5.6 1.6-11.3 2.4-16.9.3-2 .7-3.9 1.2-5.9.4-1.6 1-3.2 1.2-4.8.2-1.9-2.6-2.9-3-.7"/>
	<path d="M464.1 51.4c2.2 3.2 4.2 6.7 5.9 10.2.8 1.8 1.6 3.6 2.3 5.5s1.3 3.9 2 5.8c.3.8 1.1 1.5 2 1.3.8-.2 1.4-1.1 1.2-1.9-.9-4.1-2.6-8.1-4.5-11.9-1.8-3.8-4-7.5-6.4-11-.5-.7-1.6-1.2-2.4-.6-.7.6-.7 1.9-.1 2.6"/>
	<path d="M380.4 80.4c.2-11.6 2.6-23.1 7.5-33.5 4.8-10.2 12.2-19.3 21.7-25.5 9.2-6 20.3-9.1 31.3-8.8s21.3 4.6 29.3 12.2 13.3 17.7 16 28.3c3.4 13.1 2.6 27 .3 40.1-1.2 6.5-2.7 12.9-4.6 19.2-1.7 5.5-3.9 11-7.2 15.8-3.3 4.9-7.7 8.9-13.1 11.5s-11.4 4-17.4 4.6c-10.6 1-21.4-.5-31.2-4.6-9.7-4.1-18.3-10.5-24.6-18.9-1.6-2.1-3.1-4.4-4.4-6.7-.5-.8-1.7-1.2-2.5-.6-.9.7-.7 1.9-.3 2.8 5.5 9.9 13.7 18 23.5 23.6 9.7 5.6 20.8 8.5 32 8.8 12.1.3 25.6-2.4 34.9-10.8 9.3-8.5 13.2-21.1 16.1-32.9 3.5-14.1 5.5-28.9 3.6-43.4-1.5-12-5.9-23.8-13.4-33.5-7.2-9.2-17.1-16.1-28.7-18.5-11.3-2.4-23.4-.7-33.9 4-10.9 4.9-19.8 13.1-26.2 23.1-6.5 10.2-10.3 22-11.6 34.1-.3 2.9-.4 5.8-.4 8.8 0 .9.4 1.9 1.4 2.1s1.8-.4 1.9-1.3"/>
	<path d="M454 143.3c-5.3 6.3-12.1 11.5-19.5 15-1.9.9-.9 3.7.9 3.8 6.3.4 12.6.1 18.7-1.5 5.8-1.5 11.2-4.5 15.5-8.7 4.2-4.1 7.5-9 9.9-14.3 2-4.4 3-9.3 4.1-14 1.2-5.3 2.4-10.7 3.3-15.9.3-1.7-2.4-3.2-3.1-1.2-1.5 4.3-2.1 9-3.1 13.5-1 4.7-2 9.4-3.6 13.9-1.8 4.8-4.7 9.4-8.2 13.3-3.8 4.2-8.6 7.4-14 9.2-6.4 2.1-13.3 2.4-19.9 2 .3 1.3.6 2.5.9 3.8 8.1-3.8 15.2-9.3 20.9-16.1 1.3-1.9-1.3-4.7-2.8-2.8m-66.1 23.4c5.5 4.6 9.6 10.7 12.5 17.2 1.5 3.4 2.8 6.8 3.8 10.4 1.1 3.4 1.8 6.9 2.9 10.3 1.2 3.8 3 7.6 6.2 10 1.1.8 2.6.5 2.8-1 2.1-18.7 1.7-37.7-1.4-56.3-.9-5.3-2-10.6-3.2-15.8-.2-1-.9-2-2-1.9-1 0-1.7 1.1-1.5 2.1 4.4 18 6.4 36.5 5.8 55-.2 5.4-.6 10.7-1.2 16.1.9-.3 1.8-.7 2.8-1-2.7-2-4.1-5-5-8.2-1.1-3.4-1.9-6.9-2.9-10.3-2.2-7.1-5-14-9.2-20.1-2.4-3.4-5.2-6.6-8.4-9.2-1.9-1.6-3.6 1.3-2 2.7m44.9-74.1c-1.2 2.9-2.2 5.8-3 8.9-.6 2.5-1.9 6.1.3 8.2.9.8 2.2 1.2 3.3.7.9-.4 1.6-1.2 2.2-2 .3-.4.6-.7.9-1.1.2-.3.1-.1 0-.1l.2-.2c.1-.1.2-.1.2-.2l.2-.1c.2-.1.8-.1 1.3.1.6.2 1.2.5 1.8.8 2.5 1.1 6 .9 6.6-2.3.2-.9-.6-2-1.5-2.3-1-.2-1.7.5-1.9 1.4 0-.1 0-.2.1-.2.2-.1-.2.2 0 0-.5.2-.5.2-1 .2-.7 0-1.4-.3-2.2-.7-1.1-.5-2.4-1-3.7-.8-1.1.2-1.9.7-2.7 1.5-.6.6-1 1.3-1.6 1.9-.1.1-.1.2-.2.2 0 0 .2-.2 0 0-.1.1-.3.2-.4.3-.2.2.2-.1-.1 0 0 0-.2.1 0 0 .1-.1-.1-.1.1 0-.3-.1 0 0 .1.1s.1.2.2.3c0 0-.1-.3-.1-.1 0 .1-.1-.4-.1-.5 0 .2 0-.4.1-.5.1-1.1.5-2.2.7-3.3.8-2.9 1.7-5.7 2.9-8.5 1.2-1.9-1.7-3.9-2.7-1.7m-5.8 28.8c.5-1.5 1.9-2.5 3.4-2.8.7-.1 1.4-.1 2.1.1 1 .3 1.7 1 2.8 1.1 1.8.1 2.7-1.2 3.5-2.6.2-.3.5-1.1 1-1.1.3 0 .8.3 1.1.4.5.2 1 .3 1.5.2 1.6-.2 2.5-1.5 3.8-2.3 1.2-.7 1.1.6.8 1.4-.5 1.7-1.9 3.2-3.2 4.3-1.4 1.2-3.1 2.1-4.9 2.6-3.8 1-8-.6-9.8-4.1-1-1.8-3.5-.3-2.7 1.5 1.9 4.4 6.8 7 11.5 6.5 4.8-.5 9-3.8 11.2-8.1.9-1.8 1.3-4.3.1-6-1.2-1.8-3.3-1.6-5-.5-.7.4-1.2 1.1-1.9 1.4-.9.5-1.9-.3-2.9-.3-1.7.1-2.4 1.9-3.5 3-.7.8-1.8-.3-2.7-.6-1.1-.4-2.3-.4-3.4-.2-2.4.5-4.4 2.1-5.3 4.4-.8 1.9 1.8 3.6 2.5 1.7"/>
	<path d="M478.6 139.3c4.4 2.3 8.2 5.6 11.6 9.1 3.6 3.7 6.9 7.8 9.9 12.1 1.3 1.8 2.6 3.6 3.7 5.5.5.8.6 1.1 1 2.1.4.9.7 1.8 1.1 2.7 1.5 4 2.4 8.1 3.2 12.3q.6 3.3.9 6.6c0 .5.1 1 .1 1.4v1.1c0 .9 0 1.7.1 2.6.2 1.5 2.4 2.6 3.1.8.6-1.6.4-3.4.3-5.1-.1-2-.4-4-.7-6-.7-4.5-1.7-9-3.2-13.3-.6-1.9-1.3-3.8-2.2-5.6-1-2-2.2-3.8-3.5-5.6-3.1-4.5-6.5-8.9-10.3-12.9-4-4.3-8.6-8.4-13.9-11.1-2.1-1.2-3.1 2.3-1.2 3.3m-75.1-51.4c3.1-2.6 6.6-4.5 10.6-4.9 4.1-.5 8.2.4 12.1 1.7 1 .3 1.8-.6 1.9-1.5.1-1.1-.5-2-1.5-2.4-4.2-1.4-8.8-2.4-13.3-1.8s-8.6 2.7-12 5.6c-1.6 1.4.4 4.8 2.2 3.3m43-1.5c1.7-1.1 3.3-2.2 5.1-3s3.8-1.4 5.8-1.7c3.7-.4 7.6.3 10.6 2.6.8.6 1.8.7 2.4-.1s.4-2.2-.4-2.8c-3.6-2.8-8.2-4.1-12.8-3.6-4.5.4-9.4 2.4-12.7 5.5-1.5 1.3.1 4.2 2 3.1"/>
	<path d="M405.7 82.5c-1.2 1-1.5 2.6-1.2 4.1.4 1.5 1.4 2.7 2.8 3.4 1.3.6 2.8 1 4.2.5 1.3-.5 2.2-1.6 2.8-2.9.7-1.5.6-3.3.4-4.9-.1-.5-.3-1-.7-1.4-.3-.3-.8-.6-1.3-.5-1 .1-1.6 1.1-1.5 2 0 .3.1.6.1.8v.6-.1.8l-.1.5c0-.1 0-.2.1-.2 0 .1 0 .2-.1.2-.1.2-.2.4-.2.6-.1.1 0 .1.1-.2 0 .1-.1.1-.1.2-.1.1-.1.2-.2.2-.1.1-.1.2-.2.3s0 0 .1-.2l-.1.1c-.2.1-.3.3-.5.4.1-.1.3-.2.4-.2-.2.1-.5.2-.8.3.2 0 .3-.1.4-.1h-.7c-.2 0 .3.1.1 0-.3-.1-.6-.2-.9-.2.1 0 .4.2.1.1-.1 0-.1-.1-.2-.1-.1-.1-.3-.1-.4-.2-.1 0-.1-.1-.2-.1-.2-.1.3.2.1.1l-.3-.3c-.2-.2.1.1.1.2 0 0-.1-.1-.1-.2s-.1-.1-.1-.2c-.2-.2.1.2.1.2-.1 0-.2-.6-.1-.2s0-.1 0-.2c0-.2.1-.3 0 .2v-.4s-.1.4 0 .2c0-.1 0-.1.1-.2.1-.3-.2.3-.1.1l.1-.1c.1-.2-.3.3-.1.1.7-.6.8-1.7.2-2.5-.3-.7-1.3-1.2-2.1-.6m41.7.5c-.2 1.3.2 2.7 1 3.8.4.6.9 1.1 1.6 1.4s1.3.5 2.1.5c1.3 0 2.5-.6 3.4-1.6.8-.9 1.2-2.3 1.3-3.5.1-1.6-.2-3.4-1.1-4.8-.5-.7-1.5-1.1-2.2-.7-.8.4-1 1.5-.7 2.3.1.2.2.5.3.7 0 .1.1.2.1.4.1.5-.1-.4 0 0 0 .3.1.5.1.8v.3-.2.2c0 .2 0 .5-.1.7v.2c.1-.3.1-.4 0-.2 0 .1-.1.2-.1.3s-.1.2-.1.3-.1.1-.1.2c.1-.3.2-.3.1-.1s-.3.4-.4.6l.3-.3c-.2.2-.4.3-.6.5.1-.1.3-.2.4-.2q-.45.3-.9.3c.2 0 .3-.1.4-.1-.3.1-.6.1-1 0h.4c-.2 0-.3-.1-.5-.1-.3-.1.1.1.1.1l-.2-.1c-.1 0-.1-.1-.2-.1-.2-.1.3.3.1.1l-.2-.2c-.2-.2.2.3.1.1 0-.1-.1-.1-.1-.2s-.2-.3 0 0c.2.4-.1-.3-.1-.3s.1.5 0 .2v-.2c-.1-.3 0 .4 0 .1v-.3c.1-.9-.5-2-1.4-2.2-1-.3-1.7.4-1.8 1.3"/>
	<path d="M395.8 79.8c.4 1.9 1.2 3.8 2.4 5.3.6.8 1.3 1.6 2.3 2.2s2.2.8 3.2.4c.9-.4 1.3-1.6.9-2.5s-1.3-1.7-2.3-1.3c-.1 0-.2.1-.3.1.2 0 .3-.1.5-.1h-.5.5c-.2 0-.4-.1-.6-.2.1.1.3.1.4.2-.2-.1-.3-.2-.5-.3l.1.1-.2-.2c-.1-.1-.3-.2-.4-.4l-.2-.2c-.3-.3.3.4.1.1-.5-.6-.9-1.3-1.3-2 .1.2.2.3.2.5q-.6-1.2-.9-2.4c0 .2.1.3.1.5v-.1c-.1-.5-.3-1-.7-1.4-.3-.3-.8-.5-1.3-.5-.9.2-1.7 1.2-1.5 2.2"/>
	<path d="M400.4 77.8c-.1 1.6.3 3.2 1.3 4.5q.75 1.05 1.8 1.8c.2.2.5.3.7.4.5.2 1.1.5 1.6.4.8-.1 1.4-.7 1.5-1.5.1-.9-.3-1.7-1.1-2.1-.3-.2-.7-.3-1-.4.1.1.3.1.4.2-.4-.2-.7-.3-1-.6.1.1.3.2.4.3-.3-.2-.6-.5-.9-.8.1.1.2.3.3.4-.2-.3-.5-.6-.6-1 .1.2.2.3.2.5-.2-.4-.3-.7-.4-1.1 0 .2.1.3.1.5-.1-.3-.1-.7-.1-1v.5-.1c0-.5-.1-1-.4-1.4-.2-.4-.7-.7-1.1-.8s-.9 0-1.2.3c-.3.2-.5.6-.5 1m67.6 5.8c.1.1.3.2.4.3 0 0-.3-.3-.2-.1.3.3.9.5 1.3.5.5 0 1-.3 1.4-.6.7-.5 1.1-1.4 1.4-2.1.4-.7.7-1.4 1-2.2.3-.9.7-2 .6-3-.1-.7-.6-1.4-1.2-1.7-.6-.2-1.4-.1-1.7.5-.3.4-.4.9-.5 1.4-.1.4-.2.8-.4 1.1-.3.7-.6 1.5-.9 2.2.1-.1.1-.3.2-.4-.2.5-.5 1-.9 1.4l.3-.3c-.1.1-.2.2-.4.3.1-.1.2-.1.4-.2-.3.1-.5.3-.8.4.1-.1.2-.1.3-.2h-.1.7c.2.1.3.1.2 0-.6-.4-1.4-.1-1.7.5-.1.8.1 1.7.6 2.2m-1.8-8.9c-.1.6-.3 1.2-.6 1.7.1-.1.1-.3.2-.4-.3.6-.7 1.2-1.2 1.7l.3-.3c-.3.3-.6.5-.8.8-.5.4-.7 1.1-.6 1.7.1.3.1.7.4 1 .2.3.4.5.7.7.5.3 1.2.3 1.7-.1.5-.3.8-.8 1.2-1.2.3-.3.6-.7.8-1.1.3-.5.5-1 .8-1.5.2-.5.4-1.1.5-1.7.1-.4-.1-1.1-.4-1.5-.2-.3-.5-.6-.9-.7-.3-.1-.7-.2-1.1 0-.5.1-.9.4-1 .9m-99.1 81.8c.4.2.8.4 1.3.5.3 0 .6.1.9.1s.6-.1.9-.2q.6-.15 1.2-.6c.4-.3.7-.6.9-1 .1-.2.2-.4.3-.7.1-.2.1-.5 0-.7-.1-.5-.3-1.1-.7-1.4-.3-.3-.8-.6-1.3-.5-.4 0-.9.2-1.2.7-.1.2-.2.3-.3.4l.3-.3c-.2.2-.3.3-.5.4.1-.1.3-.2.4-.2-.2.1-.5.2-.7.3.2 0 .3-.1.4-.1-.2 0-.5.1-.7 0h.4c-.2 0-.4-.1-.6-.1.1.1.3.1.4.2-.1 0-.2-.1-.3-.1-.4-.2-.9-.3-1.3-.1s-.8.5-.9 1c-.2.8.2 1.9 1.1 2.4m-70.4-3.6c.7 1.3 1.7 2.6 3.2 3 .3.1.7.1 1 .1s.7-.1 1-.2c.5-.2.8-.5 1.1-.8.3-.4.5-.9.6-1.3s-.1-1.1-.4-1.5c-.2-.3-.5-.6-.9-.7-.3-.1-.7-.2-1.1 0q-.6.3-.9.9c0 .1-.1.1-.1.2.1-.1.1-.3.2-.4-.1.1-.1.2-.2.2l.3-.3c-.1.1-.2.2-.3.2.1-.1.3-.1.4-.2-.2.1-.3.1-.5.2.1 0 .3-.1.4-.1h-.6.4c-.2 0-.3-.1-.5-.1.1.1.3.1.4.2-.2-.1-.3-.2-.5-.3.1.1.3.2.4.3-.2-.1-.4-.3-.5-.5.1.1.2.2.3.4-.3-.4-.6-.8-.8-1.3-.2-.4-.7-.7-1.1-.8s-.9 0-1.3.3c-.3.3-.6.7-.6 1.2v.5c.3.2.5.5.6.8m-96.4 43.4c8.8-1.1 17.6-2 26.5-2.5 2.1-.1 1.5-3.6-.4-3.5q-13.35.75-26.4 2.7c-2 .3-1.5 3.5.3 3.3m10.8 6.5c2.9-.1 5.8-.1 8.7-.3 1.9-.2 1.3-3.1-.4-3.1-2.9 0-5.8.2-8.7.4-1.8 0-1.3 3 .4 3M93.5 221.6c1 2.8 3.1 4.9 5.8 6 1.3.5 2.7.6 4 .5 1.4-.2 3.1-.6 4.2-1.6.7-.6.8-1.7.4-2.5-.4-.7-1.3-1.5-2.2-1.1-.2.1-.4.2-.6.4 0 0-.3.2-.2.1.2-.1-.2.1-.3.1-.1.1-.2.1-.3.1-.3.1-.5.2-.8.3-.1 0-.3.1-.4.1h-.1c-.5.1-1.1.1-1.6.1h-.2c-.2 0-.3-.1-.4-.1-.3-.1-.5-.1-.8-.2 0 0-.3-.1-.2-.1.2.1-.3-.1-.2-.1-.2-.1-.4-.2-.7-.4-.1-.1-.2-.1-.3-.2-.2-.1.2.2-.1-.1-.2-.2-.4-.3-.6-.5l-.2-.2c-.1-.1-.2-.3-.1-.1-.2-.2-.3-.4-.4-.6-.1-.1-.1-.2-.2-.3-.1-.2-.2-.3 0 0-.1-.3-.2-.5-.3-.8-.3-.9-1.4-1.7-2.3-1.3-1 .4-1.2 1.6-.9 2.5m214.6-84.7c3.2-.3 6.4-.6 9.6-.5s6.3.5 9.4 1c2.4.4 2.5-3.4.4-3.8-6.4-1.4-13.5-1.4-19.9-.2-2 .3-1.5 3.7.5 3.5m40.1 1c3 .3 6 .6 9.1 1 3 .4 6.1 1 9.1 1.3 2.4.3 2.5-3.4.4-3.8-6.2-1.3-12.7-1.9-19-2.4-1-.1-1.5 1.2-1.4 2 0 1.1.8 1.8 1.8 1.9m61.2-63.5c3.3-.7 6.8-1 10.2-.7 1.6.1 3.2.4 4.8.8.9.2 1.7.5 2.5.8s1.6.8 2.5.9c1.7.2 2.3-1.9 1.1-3-1.4-1.2-3.6-1.7-5.4-2.2s-3.7-.7-5.6-.9c-3.8-.2-7.5.3-11 1.7-1.4.7-.5 2.9.9 2.6m37.7 2.3c4.5-2.6 9.4-4.1 14.6-4.2 2.2 0 1.6-3.7-.5-3.7-5.7.1-11.3 1.8-16.1 5-1.6 1.1.2 3.9 2 2.9m-25.5 34.8c1.7 0 1.3-3-.4-3-1.7.1-1.3 3 .4 3"/>
	<path d="M420.7 106.9s-.1 0-.1.1c-.2.1-.3.2-.5.3s-.3.3-.4.5-.2.3-.2.5c0 0 0 .1-.1.1-.1.2-.1.4-.1.5v1.1c0 .2.1.4.2.6.2.4.4.9.8 1.2.2.2.4.3.6.4.4.2.6.2 1 .2.2 0 .5 0 .7-.1 0 0 .1 0 .1-.1.2-.1.3-.2.5-.3l.1-.1c.1-.1.3-.2.4-.4l.1-.1c.1-.2.2-.3.2-.5.1-.2.1-.5.2-.7v-.7c0-.3-.1-.5-.2-.8 0-.1 0-.1-.1-.2-.1-.2-.2-.4-.3-.5-.2-.3-.5-.6-.8-.8-.2-.1-.4-.2-.7-.3q-.3-.15-.6 0c-.2 0-.4.1-.6.2s-.3.3-.4.5-.2.4-.2.6c0 .5.1 1 .3 1.3l.3.3c.2.2.4.3.7.4-.1-.1-.3-.1-.4-.2.1 0 .1.1.2.1l-.3-.3c.1 0 .1.1.1.1l-.3-.3c.1.1.1.1.1.2-.1-.1-.1-.3-.2-.4 0 .1.1.1.1.2 0-.2-.1-.3-.1-.5v.3-.5.3c0-.1.1-.3.1-.4 0 .1-.1.2-.1.3.1-.1.1-.2.2-.4 0 .1-.1.2-.2.2l.3-.3-.2.2c.1-.1.2-.1.4-.2-.1 0-.1.1-.2.1.1 0 .3-.1.4-.1h-.2.4c-.1 0-.1 0-.2-.1.1.1.3.1.4.2-.1 0-.1-.1-.2-.1.1.1.2.2.4.3-.1 0-.1-.1-.1-.1l.3.3c-.1-.1-.1-.1-.1-.2.1.1.1.3.2.4 0-.1-.1-.2-.1-.3 0 .2.1.3.1.5v-.3.5-.3c0 .1-.1.3-.1.4 0-.1 0-.2.1-.2-.1.1-.1.2-.2.4 0-.1.1-.1.1-.2l-.3.3c.1-.1.1-.1.2-.1-.1.1-.2.1-.4.2.1 0 .1 0 .2-.1.2-.1.4-.2.5-.3.2-.1.3-.3.3-.5.1-.2.1-.4.1-.7 0-.2 0-.5-.1-.7-.2-.4-.5-.8-.9-1-.1-.1-.3-.1-.4-.2-.3.2-.5.2-.8.3M91.9 342.5c-2.6 3.8-5 7.7-7 11.9-1.9 4-3.8 7.9-6 11.7-.5.9-.4 2.1.4 2.8.7.6 1.9.8 2.5-.1q3.45-6 6.3-12.3c.8-1.7 1.2-2.5 2.1-4.1 1.4-2.5 3-4.8 4.5-7.2 1.2-1.8-1.5-4.7-2.8-2.7m26.6-28.4c2.4 0 1.7-4-.5-4-2.4 0-1.7 4 .5 4"/>
	<path d="M.2 245.1c3.8 8.4 7 17 10.4 25.6 3.6 9 7.4 17.8 11.2 26.7 4.2 9.9 8.6 19.7 13.8 29.2 5.1 9.3 10.8 18.4 17.9 26.3 6.3 7 14.1 13.3 23.4 15.8 1.1.3 2.1.5 3.2.7 2.5.4 2.6-3.7.4-4-9.1-1.4-16.6-6.8-22.9-13.3-7.1-7.4-12.7-16.1-17.8-24.9-5.2-9.1-9.6-18.5-13.7-28.2-3.8-8.9-7.7-17.7-11.3-26.7-3.8-9.5-7.4-19.1-11.6-28.3-.4-.8-1.2-1.6-2.2-1.2-.9.3-1.2 1.5-.8 2.3m316.1 86.4c15.6 2.5 31.5-.2 46.4-5.2 14.5-4.9 27.9-12.3 41.6-19 7.1-3.5 14.4-7.2 20.2-12.6.8-.7.8-1.9.3-2.8-.5-.8-1.7-1.3-2.5-.6-5.2 4.6-11.1 8-17.3 11.1-6.4 3.2-12.7 6.5-19.1 9.6-13.8 6.8-28.1 12.8-43.4 15.3-8.5 1.4-17.2 1.7-25.7.4-2.5-.4-2.6 3.4-.5 3.8"/>
	<path d="M80.1 369.3c16.4 5.2 33.1 9.5 50 12.5s34 4.7 51.1 4.4c16.4-.4 32.7-1.4 49-3.2 16.1-1.8 32.2-4.4 48-8 15.2-3.5 30.2-8 44.5-14 1.7-.7 3.5-1.5 5.2-2.2 2.1-.9.7-4.8-1.4-3.8-14 6.2-28.6 11-43.5 14.8-15.7 4-31.6 6.7-47.7 8.7s-32.4 3.2-48.6 3.7c-16.9.6-33.6-.4-50.4-3-16.9-2.7-33.5-6.7-49.9-11.6-2-.6-4.1-1.2-6.1-1.9-2-.8-2.1 2.9-.2 3.6m331-115.7c7.6.4 15.3-.8 22.6-2.6 7.4-1.9 14.5-4.6 21.3-8 14-6.9 26.4-16.4 38-26.9 6.5-5.9 12.8-12.1 18.9-18.4.7-.8.9-1.9.3-2.8-.5-.7-1.8-1.4-2.5-.6-10.8 11-21.9 21.9-34.3 31.2-12.1 9.1-25.4 16.6-40 20.8-8.1 2.3-16.3 3.4-24.7 3.6-2.3.1-1.6 3.6.4 3.7M94.7 346.4c5.7 3.6 12.4 7.7 19.4 6.5 1.5-.3 3.1-.8 3.7-2.3.7-1.7-.4-3.4-1.7-4.5-2.7-2.3-5.7-4.2-9-5.8-.4 1.1-.8 2.3-1.2 3.4 4 1.7 8.1 3.4 12.1 5.1 3.2 1.4 7.1 2.6 10.2.4.5-.3.7-1.1.6-1.7-.7-3.6-3.2-6.1-6.3-7.9-2.7-1.6-6.1-2.7-8.1-5.2-.7.9-1.3 1.8-2 2.8l11.7 4.8c1.9.8 3.8 1.5 5.7 2.3s3.7 1.6 5.7 2.3c1.4.4 3.1.6 4.3-.3 1.7-1.2 1.6-3.5.6-5.2s-2.7-2.8-4.2-4.1l-4.8-3.9q-5.4-4.35-11.1-8.4c-.4 1.2-.8 2.3-1.3 3.5 3.1 1.8 6.2 3.6 9.3 5.3 3 1.7 5.9 3.6 9 5 1.5.7 3 1.2 4.7 1.3 1.5.1 3.3.1 4.3-1.3 2.1-3-1.7-6.2-3.6-8.1-2.3-2.3-4.7-4.4-7.2-6.4-1.3-1-2.6-2-3.9-2.9-.6-.5-1.3-.9-1.9-1.4l-.7-.5c-.2.1-.1-1.1 0 .4.1.9 0 .3.1.3.2-.1.5-.4.7-.5.3-.3.7-.5 1.1-.7.8-.5 1.5-1.1 2.3-1.6 1.5-1 2.9-2.1 4.4-3.1 1.4-1 2.7-1.9 4.1-2.9 1.2-.9 2.3-2 2.7-3.5.9-3.4-1.7-6.6-4.8-7.6-3.5-1.2-7.1.9-10 2.7-.9.5-.8 2-.3 2.8.6.9 1.6 1.1 2.5.6 2-1.2 4.6-2.9 7.1-2.2.8.2 1.6.8 2 1.6 0 .1.1.3.1.6-.1.4-.3.7-.6 1-1 1-2.3 1.8-3.5 2.6-1.3.9-2.5 1.8-3.8 2.7s-2.5 1.8-3.8 2.7c-1.2.8-2.6 1.6-3.2 2.9-1.7 3.2 2 5.2 4.1 6.7 2.3 1.6 4.5 3.4 6.6 5.3 2.2 1.9 4.3 3.8 6.2 6 .1.2.3.3.4.5s.1.1.1.1c.2.2 0 .3.1.1.1-.1.1-.5 0-.5-.1-.1-.8.1-.9.1-1.3 0-2.6-.4-3.7-.8-3.1-1.3-6.1-3.2-9-4.9-3.2-1.8-6.3-3.6-9.5-5.4-.9-.5-1.9-.1-2.2.8-.4 1 .2 2 1 2.6q8.4 6.15 16.5 12.9c.6.5 1.3 1 1.8 1.6l.4.6c-.1.1 0-.5.1-.4s-.8.1-1 .1c-.6-.1-1.2-.3-1.8-.5-3.3-1.3-6.7-2.7-10-4.1-3.8-1.5-7.6-3.1-11.4-4.6-.7-.3-1.5-.3-2 .4-.5.6-.4 1.7.1 2.4 2.1 2.7 5 4.1 8 5.7 2.2 1.2 5.1 2.8 5.6 5.5.2-.6.4-1.1.6-1.7-2.4 1.7-5.9-.1-8.2-1.1-3.6-1.5-7.2-3-10.7-4.5-2.3-.9-3.2 2.5-1.2 3.4 2.5 1.2 4.9 2.6 7 4.3.5.4 1 1 1.6 1.3l.1.1c.1-.2.2-.4.1-.7l-.2.2c-1.2.3-2.3.5-3.6.5-5.5-.1-10.6-3.3-15.2-6.1-.8-.5-1.7-.1-2 .8-.4.2 0 1.2.8 1.7m23-35.9c-3.4-1.4-7.2-1.3-10.8-.8-3.9.6-7.8 1.5-11.6 2.6s-7.6 2.6-11 4.7c-3.6 2.3-6.6 5.4-9.4 8.6-1.6 1.9-3.2 3.7-4.8 5.6-1.8 2.1-3.7 4-5.3 6.2-.6.8-.4 1.9.2 2.6.5.6 1.6 1.1 2.3.4 1.6-1.6 3-3.5 4.5-5.2s2.9-3.4 4.4-5.1c2.5-3 5.1-5.9 8.3-8.3 6.1-4.6 13.8-6.2 21.1-7.7 1.8-.4 3.6-.6 5.5-.7 1.7-.1 3.7 0 5.3.6 2.4 1 3.3-2.6 1.3-3.5"/>
	<path d="M48.7 268.7c7.9 13.7 16.3 27.2 25.1 40.4 2.5 3.7 5 7.4 7.6 11.1.6.8 1.7 1.2 2.5.6s.8-2 .3-2.8c-9.1-13-17.7-26.3-25.9-39.8-2.3-3.8-4.6-7.7-6.8-11.6-.5-.8-1.6-1.2-2.4-.6-1 .7-.9 1.9-.4 2.7m223.7-36.9c.3 7.3 2 14.6 5.2 21.3.7 1.5 1.7 3.3 3.5 3.7 2 .4 3.1-1.3 3.4-3 .3-1.8.4-3.7.5-5.6.1-2 .1-4 0-5.9-.1-4.3-.7-8.7-1.6-12.9-1.1 0-2.3.1-3.4.1.9 3.9 2.1 7.8 3.4 11.6.7 1.9 1.4 3.8 2.2 5.7.6 1.5 1.4 3 2.7 4 1.3 1.1 3.1 1.6 4.7.6 1.4-.9 1.8-2.7 2.1-4.3.5-4 .7-8 .5-12-.2-4.6-1-9.1-2.1-13.5-.5-2.1-3.8-1.5-3.3.7.7 3.1 1.4 6.2 2 9.3.6 2.7.8 6.3 3.5 7.7 1.2.7 2.7.7 3.8-.2 1.1-.8 1.4-2.2 1.6-3.5.4-2.8.8-5.7 1-8.6.2-3.3.3-6.8-.4-10.1-.2-.9-.9-1.9-1.9-1.9s-1.6 1.1-1.4 2c.5 3 .5 6 .3 9.1-.2 2.9-.5 5.9-1 8.8-.1.5-.3 1.2-.8.6-.3-.4-.4-1-.5-1.5-.2-.7-.3-1.5-.5-2.2-.7-3.3-1.4-6.6-2.2-9.8-1.1.2-2.2.4-3.3.7 1.6 6.4 2.2 13.1 1.7 19.7-.1 1.5-.1 3.2-.5 4.7-.2.7-.5 1.2-1.2.8-1-.6-1.5-2-1.9-3-.6-1.6-1.2-3.1-1.8-4.7-1.3-3.6-2.4-7.2-3.2-10.9-.2-.9-.8-1.9-1.9-1.9-1 0-1.6 1.1-1.4 2 1.3 6.4 1.9 13 1.5 19.5 0 .8-.1 1.6-.2 2.3 0 .4-.1.8-.1 1.2 0 .1-.1.4-.1.5 0-.1.3 0 .3 0s-.3-.3-.3-.4c-.4-.6-.7-1.3-1-2q-1.95-4.2-3-8.7c-.9-3.4-1.3-6.8-1.5-10.3 0-.9-.9-1.8-1.9-1.8-1.1.2-1.5 1.2-1.5 2.1"/>
	<path d="M273.3 240.4c-.3.5-.7 1-1.1 1.4l.3-.3c-1.5 1.6-3.4 2.8-5.1 4.2-.8.6-.8 1.9-.2 2.7.5.7 1.6 1.2 2.4.6 1.1-.9 2.3-1.8 3.4-2.7 1.2-1.1 2.4-2.2 3.2-3.7.2-.4.1-1 0-1.4-.2-.4-.4-.7-.7-.9s-.7-.4-1-.3c-.6-.2-1.1 0-1.2.4m-9.4-22.8c4-2.4 7.9-4.9 12-7.1 2.1-1.1 4.2-2.2 6.4-3 2.4-.9 5.1-1.5 7.7-1.7 1.7-.2 3.4-.2 5.1.1 1.8.3 3.3 1 5 1.7.9.4 1.8.2 2.2-.8s-.2-2-1-2.6c-2.7-1.9-6.5-2.4-9.7-2.4-3.1 0-6.4.6-9.3 1.6-4.9 1.6-9.4 4.4-13.8 7.1l-6.6 4.2c-1.7 1 .2 4 2 2.9M18.3 232.2c-1 3.3-1.2 6.7-.7 10.1.2 1.7.6 3.4 1 5.1.4 1.5.7 3 1.7 4.2 2.4 2.6 5.7.2 7-2.2 1.4-2.5 1.8-5.3 2.2-8.1.6-4 1.2-8 1.7-12.1-1.1-.3-2.3-.6-3.4-.9-.5 4.2-1 8.5-1 12.8q0 3.15.3 6.3c.2 2 .6 4.3 1.3 6.2.8 1.9 2.6 3.3 4.7 2.3 1.8-.9 2.8-2.9 3.6-4.6.8-1.8 1.3-3.7 1.7-5.6l1.5-6.3c1.1-4.8 1.9-9.7 2.6-14.6-1.2-.3-2.3-.6-3.5-.9-.4 4.9-.7 9.7-.7 14.6v7.3c0 2.1-.1 4.3.9 6.2s3.2 2.7 5.2 2 3.1-2.7 3.8-4.7c1.4-4.3 2.5-8.8 3.4-13.3 1-5.2 1.6-10.4 1.8-15.7-1.2-.3-2.3-.6-3.5-.9 0 4.8 0 9.6-.1 14.5 0 3.9-.4 8.4 3.2 11 .3.2 1 .3 1.3.1 4-2.2 5.2-6.6 5.6-10.9.6-5.7.9-11.4 1.4-17.1.1-1-.5-2.1-1.5-2.4-1-.2-1.9.5-2 1.5-.4 5.3-.8 10.7-1.3 16-.2 3-.6 7.3-3.6 9 .4 0 .9.1 1.3.1-.8-.6-.9-1.9-1-2.9-.1-1.8 0-3.7 0-5.5 0-4.2 0-8.4.1-12.6 0-1-.5-2.1-1.5-2.4-1-.2-1.9.5-1.9 1.5-.4 8.1-1.6 16.2-3.8 24-.5 1.8-.9 3.8-1.8 5.5-.3.6-1.7 2.1-2.3 1.2-.2-.3-.2-1.1-.2-1.5-.1-1-.1-2.1-.1-3.1v-6.3c.1-4.8.3-9.6.7-14.4.1-1-.5-2.1-1.5-2.3s-1.8.5-1.9 1.5c-1 7.4-2.4 14.7-4.4 21.9-.4 1.5-.9 3.1-1.6 4.4-.3.6-.7 1.3-1.2 1.7l-.3.3s.5 0 .2.2l-.2-.5c-1.1-3.3-1.3-7-1.3-10.4 0-4.2.5-8.3 1-12.4.3-2.2-3.1-3.4-3.4-.9-.5 3.7-1.1 7.4-1.6 11.1-.4 2.7-.5 5.8-2.2 8.1-.3.5-.8.9-1.3 1.2-.4.2-.3.2-.4 0-.3-.5-.4-1.3-.5-1.9-.2-.9-.4-1.7-.6-2.6-.7-3.4-.9-6.9.1-10.3.3-.9-.1-2.1-.9-2.6-.8-.2-1.9.1-2.1 1"/>
	<path d="M21.5 233.5c1.1-6.3 3-12.9 7.5-17.7 2.3-2.5 5.3-4.4 8.3-5.9 3.4-1.7 6.8-3.3 10.4-4.4 1.9-.6 3.9-1.1 6-1.3 1.8-.2 3.6-.4 5.2.7.8.6 2 0 2.3-.9.4-1.1-.2-2.1-1-2.7-3.2-2.3-7.8-1.2-11.3-.3-4 1-7.8 2.6-11.5 4.4-3.5 1.7-6.9 3.6-9.7 6.3-2.7 2.6-4.7 5.7-6.1 9-1.7 3.8-2.6 7.8-3.3 11.9-.5 2.2 2.8 3.3 3.2.9m487.9-38.7c-.7 9.5-6 17.7-11.4 25.3-5.3 7.3-10.9 14.5-16.7 21.4-11.5 13.7-24.3 26.4-39 36.8-8.2 5.8-16.8 10.8-26 14.7-2.1.9-.7 4.8 1.4 3.9 16.8-7.2 31.8-17.8 45.2-30.2 13.5-12.5 25.3-26.7 36.2-41.5 6.4-8.7 12.8-18.3 13.7-29.4.1-1-.5-2.1-1.5-2.3-.9-.4-1.8.4-1.9 1.3"/>
	<path d="M416.2 292.9c-3.3.4-6.5.8-9.8 1.2-1.6.2-3.1.4-4.7.6-.5.1-.9.1-1.4.1-.2 0-1.1-.2-1.1-.3l.2.2c.2.5-.1.3.1.1.4-.3.8-.8 1.2-1.1q1.65-1.2 3.6-2.1c2.7-1.3 5.5-2.3 8.4-2.9 1-.2 1.2-1.7.9-2.5-.4-1-1.3-1.5-2.3-1.3-3.4.8-6.7 2-9.8 3.7-2.8 1.5-7.3 4.1-5 7.9 1.8 3 5.7 2 8.5 1.6 3.8-.5 7.7-1 11.5-1.6 2.4-.1 1.8-3.8-.3-3.6"/>
	<path d="M399.1 289.1c-.7.4-1.6.2-2-.5-.2-.2-.2-.3 0-.6.2-.6.8-.9 1.3-1.3 1.3-.9 2.9-1.5 4.3-2.3 1.7-.9 3.5-1.7 5.2-2.6-.6-1.1-1.1-2.2-1.7-3.3-2.8 1.7-5.8 3-9 3.7q-2.4.45-4.8.6h-1.8c.4.3.6.6.6 1-.1.1.2-.5.2-.4.1-.2.3-.4.5-.6 4.3-4.4 10.7-6 16.4-7.6-.5-1.2-.9-2.4-1.4-3.7-3.4 1.3-7 2.2-10.6 2.7-1.4.2-3 .5-4.3.1-.3-.1-.7-.2-.7-.4 0-.4.2-.8.5-1.1 1.5-2.1 4.5-2.8 6.8-3.4 2.8-.7 5.5-1.4 7.8-3.2 1-.7.7-2.3-.1-3.1l-7.2-6.9c-2-1.9-4.2-3.7-5.5-6.1-.2-.4-.4-.9-.6-1.4-.1-.2-.1-.4-.1-.6-.1-.3.1-.2 0-.1.9-.3 2.2.3 3.1.6 2.7.8 5.2 2.1 7.7 3.1 3 1.2 6 2.1 9.3 2 2.3-.1 1.7-4.1-.5-4-6.3.2-11.7-4-17.7-5.4-1.4-.3-3.1-.5-4.3.6-1.3 1.2-1.2 3.2-.7 4.7.9 3.1 3.2 5.5 5.4 7.7 3 2.9 6.1 5.8 9.2 8.7 0-1 0-2-.1-3.1-4 3.1-9.8 2.3-13.8 5.6-2.4 2-3.7 5.6-1.3 8.2 2 2.1 5.2 1.7 7.8 1.3 3.9-.6 7.6-1.5 11.3-2.9 2.1-.8.7-4.2-1.4-3.7-5.6 1.6-11.4 3.2-15.9 7-1.1.9-2.2 1.9-2.8 3.2-.6 1.4-.5 3.1.7 4.1 1.2 1.1 3.1.8 4.6.7 1.6-.1 3.2-.4 4.8-.7 3.5-.8 6.9-2.2 9.9-4.2 1.5-1 0-4.2-1.7-3.3-2.3 1.2-4.7 2.4-7 3.6-1.9 1-4.1 1.8-5.2 3.8-1.1 1.9-.7 4.2.9 5.7 1.3 1.3 3.4 2 5.1 1.1.8-.4 1.2-1.4.8-2.3-.1-.6-1.1-1.5-2-1m28.1-37.2c4.1 9.7 7.3 19.8 9.4 30.1.2 1 .9 2 2 1.9 1 0 1.7-1.1 1.5-2.1-2.2-10.7-5.4-21.1-9.8-31.2-.4-.8-1.3-1.6-2.2-1.2-.9.5-1.3 1.7-.9 2.5m35.7-68c2.1 1.7 3.4 4 4.6 6.3 1.3 2.5 2.4 5.2 3.4 7.9 2 5.5 3.3 11.2 3.9 17 .3 3.2.4 6.5.3 9.8 0 1 .5 2.1 1.6 2.4 1 .2 1.9-.5 2-1.5.5-12.6-2.2-25.2-7.8-36.4-1.5-3-3.2-6.1-5.9-8.3-.7-.6-1.8-.7-2.4.1s-.5 2.1.3 2.7M141 216.5c.7-.4 1.5-.6 2.2-1 .8-.4 1.6-.9 2.4-1.4 1.5-.9 2.9-1.8 4.3-2.8 1.4-.9 2.7-1.9 4.1-2.8.7-.5 1.4-1 2.1-1.6.7-.5 1.6-1.1 2.1-1.8.8-1.4-.3-3.4-1.9-3-.8.2-1.5.9-2.2 1.4s-1.4 1.1-2.1 1.6l-4.2 3c-1.4.9-2.7 1.9-4.2 2.8-.7.5-1.5 1-2.2 1.4-.7.5-1.4 1.1-2.2 1.5-.7.4-.6 1.6-.2 2.2.5.8 1.3 1 2 .5m-6.5 96.2c-.7 4-.8 8-.4 12 .1.9.8 1.7 1.8 1.7.9 0 1.4-1 1.3-1.8-.5-3.7-.4-7.4.2-11.1.1-.8-.5-1.8-1.3-2-.9-.2-1.5.5-1.6 1.2m9.7 17.4c1.8-6.1 2.9-12.3 3.1-18.7 0-1-.5-2-1.5-2.3-.9-.2-1.8.5-1.9 1.4-.2 6-1.2 12-2.8 17.8-.3.9 0 2 .9 2.5.8.5 1.9.2 2.2-.7"/>
	<path d="M142.2 325.5c-.7 2.6 1.8 4.1 4.1 4.5 1.2.2 2.3.1 3.4-.5 1.2-.7 1.9-2 2.4-3.2 1.2-3.1 2-6.5 2.8-9.7.8-3.4 1.6-6.9 1.9-10.4.2-2.2-2.9-3.4-3.4-.8-.5 2.7-.8 5.5-1.4 8.2-.5 2.6-1.2 5.2-2 7.8-.3 1.1-.7 2.3-1.1 3.4-.3.7-.7 1.4-1.4 1.7.3-.1-.2 0-.2 0h-.5c-.3 0-.6 0-.9-.1-.4-.1-.5-.2-.9-.3-.2-.1-.1-.1.1.1.1.2.1 1.1.2.6.3-1.8-2.6-3.3-3.1-1.3"/>
	<path d="M152.3 322.3c.7 1.3.8 2.8 1.8 3.9.9 1.1 2.4 1.9 3.9 1.4 1.4-.5 2.2-2.1 2.8-3.4.6-1.2 1-2.6 1.3-3.9.7-2.9.9-6 1.5-8.9.3-1.2.5-2.6 1.3-3.5.8-1 2.3-1.2 3.4-1.5 3.6-.9 7-2.4 10.2-4.3.9-.5.7-2 .3-2.8-.6-.9-1.6-1.1-2.5-.6-2.5 1.5-5.2 2.7-8.1 3.5-2.7.8-5.3 1.2-6.7 3.9-2.5 4.7-1.6 10.5-3.6 15.5-.3.6-.6 1.2-1 1.8-.1.2-.3.5-.5.6.2-.1 0 0-.2-.1-.4-.3-.5-.7-.7-1.1-.3-.8-.6-1.6-1-2.3s-1.5-1.1-2.2-.5c-.5.5-.4 1.6 0 2.3m12.1-29.6c-3.5-.5-6.5-3.1-9.8-4.1-3.6-1.2-7.6-1-11.4-.4-6.9 1.1-13.9 3.7-18.3 9.5-2.4 3.1-3.8 7.1-3.6 11 .1 2 3.3 2.6 3.4.4.1-6.3 4.2-11.4 9.8-14.1 2.9-1.4 6.1-2.3 9.3-2.8 3.4-.6 6.9-.7 10.3.2 1.7.5 3.3 1.4 4.9 2.1 1.8.8 3.6 1.4 5.5 1.4 1.6-.1 1.4-3-.1-3.2"/>
	<path d="M120.6 313.5c3.4-3.7 7.6-6.2 12.1-8.1 2-.8.7-4.4-1.4-3.6-5.2 1.8-9.8 5.2-13.5 9.2-.7.7-.3 2 .4 2.6.9.7 1.8.6 2.4-.1m43-17.8c2.4.1 4.7.3 7.1.3 2.3 0 4.7 0 7 .1 2.2 0 1.6-3.7-.5-3.7-2.3.1-4.7.1-7 .2s-4.6.3-7 .4c-1.6 0-1.1 2.6.4 2.7m1.6-193.1c-.1 3.3-.1 7.1 2.1 9.9 1.8 2.3 5.2 4.1 8 2.6.8-.4 1.2-1.4.8-2.3-.3-.7-1.3-1.7-2.2-1.2-.2.1-.5.2-.8.3-.4.1.3 0-.1 0h-.8c.2 0 .1 0 0 0-.2-.1-.5-.1-.7-.2-.4-.1.2.1-.1 0-.1-.1-.3-.1-.4-.2s-.2-.1-.4-.2c-.1 0-.4-.3-.1-.1-.2-.2-.4-.3-.6-.5l-.2-.2c.2.2-.1-.2-.2-.2-.2-.2-.3-.5-.4-.7l-.1-.2c-.1-.2-.1-.3-.2-.5s-.1-.3-.2-.5c0-.1-.1-.6-.1-.2-.1-.3-.1-.6-.2-.9-.1-.7-.2-1.3-.2-2v-1.8c0-.9-.4-2-1.4-2.2-.6-.2-1.5.4-1.5 1.3m96.1-12.4c-.2 3.1-.4 6.2-.9 9.3-.2 1.1-.3 2.3-1.1 3.1-.2.2-.5.4-1 .6-.2.1-.3.1-.5.1 0 0-.6-.2-.4-.1-.8-.3-1.6-.2-2.1.6-.4.7-.2 1.9.5 2.5 1.5 1.2 3.3 1.1 4.9.1 1.4-.9 2.2-2.5 2.6-4 .9-3.7 1-7.6 1.1-11.3 0-.9-.4-1.9-1.4-2.2-.8-.2-1.7.4-1.7 1.3m-92.4 162.6c0-.6.1-1.1.2-1.7s.1-1.1.2-1.7c0-.3.1-.5.1-.8 0 0 .1-.5 0-.2 0-.1.1-.2.1-.3.1-.3.2-.6.3-.8.1-.1.1-.3.2-.4 0-.1.2-.4 0-.1.2-.4.5-.8.8-1.2.2-.2-.3.2.1-.1.1-.1.2-.2.3-.2.2-.1.3-.3.5-.4l.2-.1.2-.1c.2-.1.4-.2.7-.2.2-.1.1 0 0 0h.9c.9.1 1.8-.4 1.9-1.4.1-.9-.5-2.2-1.5-2.3-1.5-.2-2.7.1-4 .9-1 .6-1.9 1.5-2.5 2.6-.7 1.3-1.2 2.7-1.4 4.2s0 2.9.1 4.4c0 .7.7 1.4 1.4 1.5.6-.4 1.2-.9 1.2-1.6"/>
	<path d="M172.4 242.5c-1.5-8-3.2-15.9-4.7-23.9-.7-3.7-1.2-7.5-.6-11.2.5-3 1.5-6 3-8.7 3.1-5.7 7.6-10.5 12.3-15 1.9-1.8 3.8-3.7 6-4.9 2.4-1.2 5-2.1 7.6-2.8 6.2-1.7 12.6-2.4 18.9-3.3 2.3-.3 1.7-4.2-.5-4-6 .7-12 1.6-17.9 3-2.8.7-5.6 1.5-8.2 2.7-2.5 1.1-4.6 2.6-6.5 4.4-5 4.7-9.9 9.6-13.5 15.4-1.7 2.9-3.2 5.9-4 9.2-1 3.8-1.1 7.6-.6 11.5.6 4.6 1.7 9.1 2.6 13.6 1 4.7 1.9 9.4 2.9 14.1.2.9.8 1.8 1.8 1.7 1 0 1.6-1 1.4-1.8m94.8 10.6c1.7 0 1.3-3-.4-3s-1.2 3 .4 3"/>
	<path d="M268.1 250.3c-.4-1.4-.9-2.7-1.3-4.1-.4-1.2-.7-2.5-1.3-3.7-.6-1.3-1.4-2.6-2.8-3.2-1.3-.6-2.9-.7-4.1.2-1.7 1.3.2 4.5 2.2 3.3.3-.2-.2 0 0 0 .1 0 .4-.1 0 0h.5l.2.1c.2 0 .1 0 0 0 .1 0 .2.1.3.2 0 0 .3.2.1.1l.1.1c.3.2-.1-.2 0 0s.3.4.4.6c.2.3-.1-.2 0 0 0 .1.1.2.1.3.1.2.2.5.3.7.8 2.2 1.5 4.5 2.2 6.8.3.8 1.3 1.6 2.2 1.2 1-.7 1.2-1.7.9-2.6"/>
	<path d="M263.6 240.1c.5-4.2.3-8.3.4-12.5.1-3.8.6-7.6.4-11.4s-.8-7.7-1.3-11.5c-.3-1.9-.6-3.8-.9-5.8-.2-1.5-.3-3-.6-4.5-1.5-6.5-6.3-12.3-11.1-16.9-2-1.9-4.3-3.9-6.8-5.2-2.6-1.3-5.5-1.9-8.3-2.2-7.4-1-14.8-1-22.2-1.4-2.1-.1-1.8 3.6 0 3.8 6.3.8 12.8.6 19.2 1.2 2.9.3 5.8.7 8.5 1.6 2.1.7 4 2.1 5.8 3.6 2.4 2.1 4.6 4.4 6.5 6.9s3.6 5 4.6 7.8c.1.3.2.6.3.8.2.7 0-.2.1.2 0 .2.1.3.1.5.1.7.2 1.4.3 2.2.2 1.7.5 3.4.7 5.1.6 3.8 1.2 7.6 1.5 11.5.2 1.8.3 3.7.2 5.6-.1 2-.3 4-.4 6-.1 4.6.2 9.1-.3 13.7-.3 2.3 3 3.4 3.3.9m-52.9 37.8 5.7-1.5c.8-.2 1.6-.3 2.4 0 .9.3 1.6.5 2.5.3 1.8-.3 3.5-.8 5.3-1 .9-.1 1.9-.2 2.8-.2s1.9.1 2.8 0c1.9-.2 1.7-3.2 0-3.5-1.9-.4-4-.1-5.9.1-2 .2-3.8.8-5.8 1.2-.8.2-1.4-.3-2.2-.5-1-.1-1.9 0-2.8.3-2 .5-4 1.2-6 1.8-1.8.4-.6 3.5 1.2 3"/>
	<path d="M209.3 277.4c.9 1.9 2.5 3 4.5 3.3 2.3.4 4.7.4 7 .3s4.6-.4 6.7-1.3c1.8-.7 4.6-2.1 5.1-4.1.3-1-.5-2.7-1.8-2.2-.8.3-1.4 1.1-2.1 1.6-.6.5-1.3.9-2 1.2-1.7.8-3.6 1.2-5.4 1.4-2 .2-4.1.1-6.1-.1-.9-.1-3-.2-3.5-1.2-.3-.7-1-1.2-1.7-1-.8.5-1 1.5-.7 2.1"/>
	<path d="M209.4 280c1.3 2.6 3.4 4.2 6.1 5.2 2.7.9 5.8 1.3 8.6.9 2.9-.4 5.5-1.7 7.5-3.9 1.8-2 3.1-5 2.5-7.6-.2-.8-.7-1.6-1.6-1.7-.8-.1-1.5.5-1.5 1.4-.1 2.1-.6 3.9-2 5.4-1.4 1.6-3.5 2.5-5.6 2.8-2.3.3-4.7.1-6.9-.5-1.8-.5-3.9-1.4-4.8-3.2-.9-1.5-3-.3-2.3 1.2"/>
	<path d="M217.9 258.3c-2 0-3.9 0-5.9.2-3.3.3-6.7.6-9.9 1.7-1.2.4-2.4 1-3.2 2-1.1 1.5-1.1 4.1-.9 5.9.2 2.2 1.2 4.5 3 6 1.6 1.2 3.4 1.6 5.3 1.8 4.2.5 8.4.5 12.5.2 4.3-.2 8.7-.7 12.9-1.8 1.5-.4 3-.8 4.4-1.5 2.2-1.1 3.7-2.8 4.7-5.1.5-1.2.7-2.4 1-3.6.2-1 .4-1.9.4-2.9-.1-1.6-1.1-2.9-2.4-3.7-2.7-1.6-6.5-1.3-9.5-1.1-3.5.3-7 .9-10.5 1.4-.6.1-1.2.2-1.9.2-2.3.3-1.7 4.1.5 4 2.9-.2 5.8-.8 8.7-1.2 1.6-.2 3.3-.4 5-.5.8 0 1.5-.1 2.3-.1h1.6q.3 0 0 0h.3c.6.1 1.1.2 1.7.4.4.1-.3-.2 0 0 .1.1.2.1.3.2s.4.3 0 0l.3.3c-.4-.2-.2-.2 0 .1-.3-.4-.2-.3-.1-.1-.2-.5-.1-.3 0-.1 0 .2-.1.4 0 0v.4c-.1.6-.2 1.2-.3 1.7-.4 1.9-1 3.8-2.6 5.1-.2.2-.5.4-.7.5-.4.2.3-.2-.1 0-.3.1-.5.3-.8.4-.6.3-1.3.5-1.9.7-3.5 1.1-7.1 1.6-10.8 2-3.9.4-7.9.6-11.8.4-1.6-.1-3-.1-4.4-.4-1.6-.2-2.7-.8-3.3-2.1-.7-1.5-.7-3.3-.3-4.9 0-.1.1-.2.1-.4-.1.4-.2.2 0 .1.2-.3-.3.1.1-.1.2-.1.3-.3.5-.4-.4.2 0 0 .1 0 .2-.1.3-.2.5-.2 2.9-1.2 6.1-1.5 9.4-1.8 2.1-.2 4.1-.4 6.2-.5 1.9 0 1.3-3.2-.5-3.2m-.6-168.8c1.1 1.8 1 4.2 1.2 6.2.2 2.7.8 5.4 1.7 8 .3 1 .9 2.1.8 3.2 0 .5-.4 1.3-1 1.3-.3 0-.7-.4-1-.6-.5-.3-1.1-.5-1.7-.5s-1.1.2-1.6.6c-.2.1-.3.3-.5.4-.1 0-.1.1-.2.1-.4.3-.2.3.7 0l.7.7c-.6-.7-.9-1.4-1.8-1.7-1.1-.4-2 .1-2.6 1-.1.2-.3.6-.4.7.2-.2-.4.1-.2 0-.2 0-.2 0-.5-.1.1.1.2.1.1 0l.1.2c-.4-.9-1.3-1.7-2.3-1.3s-1.1 1.5-.9 2.5c.4 1.6 2.1 2.7 3.7 2.7.7 0 1.5-.2 2.1-.6.3-.2.5-.4.7-.7.1-.1.2-.3.3-.5.2-.5.3 0-.3-.1-.3-.1-.6-.2-.9-.2-.3-.4-.4-.4-.2-.1.1.1.2.2.2.3.3.4.7.7 1.1.9.8.3 1.6.2 2.2-.3.2-.1.3-.3.5-.4l.3-.3c-.1.1-.3.1-.5 0 0 .1 1.7.9 1.8.9 1.4.5 2.9-.1 3.9-1.2 1.1-1.2 1.4-2.9 1.2-4.5-.2-1.7-1-3.3-1.4-5-.4-1.5-.7-3.1-1-4.7-.4-3.1-.4-6.3-2.3-9-.5-.7-1.5-1.1-2.2-.5-.3.8-.2 1.9.2 2.6m-17.1 36.6c2.4-1.4 4.8-2.8 7.3-4.2 1-.6 4.1-2.2 4.6-.4.4 1.2 2.1 1.9 2.9.7 1.3-1.9 3.9-2.5 6.1-2.1 2.9.5 5.4 2.4 7.8 4.1.8.6 2 0 2.3-.9.4-1.1-.2-2.1-1-2.7-2.9-2.1-6-4.1-9.6-4.5-3.1-.3-6.5.7-8.3 3.4 1 .2 1.9.5 2.9.7-1-3.3-4.8-4-7.6-2.8-1.6.7-3.1 1.7-4.6 2.6-1.6 1-3.2 1.9-4.8 2.9-.8.5-.7 1.9-.2 2.6.4.9 1.3 1.1 2.2.6"/>
	<path d="M198 125.9c1 2.7 2.4 5.5 4.7 7.4 1.9 1.7 4.4 2.8 6.9 3.2 5.3.8 10.5-1 14.6-4.4 2.4-2 4.4-4.3 6.1-6.8 1.2-1.8-1.5-4.7-2.9-2.7-3.2 4.6-7.7 9.1-13.4 10-2.6.4-5.4.1-7.7-1.1-2.6-1.4-4.1-4-5.3-6.6-.4-.8-1.2-1.5-2.1-1.2-1 .3-1.2 1.4-.9 2.2"/>
	<path d="M201.8 126.9c2 .1 4 .2 6 .2h1.5c.4 0 1.1-.1 1.4 0 .2.1.4.4.6.6.3.3.7.6 1.1.9 1.4.9 3.3 1.2 4.8.5.7-.3 1.4-.8 1.9-1.5.4-.5.5-1.4.9-1.8-.2.2-.5.4-.7.5.6-.3 1.3-.2 1.9-.3.7-.1 1.4-.2 2.2-.3 1.4-.2 2.9-.4 4.3-.6 2.2-.3 1.6-4.1-.5-3.9-2.6.3-5.2.7-7.7 1.1-1.3.2-2.3.5-2.8 1.9-.2.7-.6 1.2-1.4 1.4-1 .2-1.8-.3-2.4-.9-1-.9-2-1.1-3.3-1.2-2.7 0-5.5 0-8.2.1-2 .1-1.4 3.2.4 3.3m54.5-46.8c.6 0 1.1 0 1.7.1q.15 0 0 0h.2c.1 0 .3 0 .4.1.3.1.5.1.8.2 0 0 .4.2.3.1l.2.1s.4.3.2.1c-.2-.1.2.2.2.2.1.1.2.2 0 0 .1.1.2.2.3.4.1.1.2.4.1.1.1.1.1.3.2.4 0 .1.1.2.1.4 0 .1.1.4 0 .1.1.3.1.7.2 1 .1.7.2 1.4.2 2.1v.7c0 .4 0 .7-.1 1.1-.1.7-.2 1.5-.2 2.2-.1 1 .5 2.1 1.5 2.4s1.8-.5 1.9-1.5q.45-2.7.3-5.4c-.1-1.6-.3-3.3-1-4.8-.8-1.7-2-2.8-3.7-3.5-1.3-.5-2.8-.5-4.3-.5-1 0-1.6 1.1-1.5 2 .2 1 .9 1.8 2 1.9m-80.4 27.7c-1.1-15.3-1-31.3 5.5-45.5 5.7-12.6 16.6-22.4 29.2-28 3.5-1.6 7.2-2.8 10.9-3.7 1.9-.5 3.8-.9 5.7-1.1 1.7-.2 3.8-.3 5.2.8.8.6 1.9.8 2.5-.1.6-.8.4-2.2-.4-2.9-3.3-2.5-7.3-2-11.1-1.3-3.6.7-7.2 1.7-10.7 3-6.8 2.6-13.2 6.2-18.8 10.8-5.6 4.7-10.4 10.4-13.9 16.8-3.9 7.3-6.1 15.2-7.2 23.4-1.2 9.2-1 18.6.1 27.8.2 2.2 3.1 2.3 3 0"/>
	<path d="M180.2 65c2.3-.3 4.6-.4 6.9-.7s4.6-.5 6.9-.8l13.8-1.5c9.1-.9 18.2-1.8 27.4-2.7 5.2-.5 10.5-.9 15.8-1.3 2.3-.2 1.7-4.1-.5-3.9-18.4 1.5-36.7 3.4-55 5.7-2.6.3-5.2.7-7.8 1-2.6.4-5.2.9-7.8 1.2-1.8.3-1.3 3.2.3 3m-7.5 21c-1.9.3-3.7.6-5.3 1.7-1.7 1.1-2.6 3.1-2.8 5.1-.2 2.1 0 4.3.1 6.4 0 1.2.1 2.3.1 3.5 0 1.3 0 2.5.4 3.8s2.6 1.9 3 .3c.5-2 .2-4.1.1-6.1-.1-1.9-.2-3.9-.2-5.8 0-1.3.1-2.7 1.2-3.5s2.6-1.1 3.9-1.3c1-.2 1.6-1 1.5-2-.2-1-1-2.2-2-2.1"/>
	<path d="M256 22.9c3-4.6 5.4-9.7 7.1-14.9.4-1.3-.7-3.4-2.3-2.7-6.5 2.8-12.9 5.9-19.2 9.2.8.8 1.6 1.5 2.4 2.3.7-4.3 1.4-8.7 2.1-13 .2-1.2-1.1-2.9-2.4-2.3-6 2.5-11.9 5.6-17.4 9.1.9.7 1.9 1.4 2.8 2.1.1-3.4.1-6.7.2-10.1 0-1.1-1-3-2.4-2.3-8.4 4.2-16.4 9.1-24 14.6.9.9 1.8 1.7 2.7 2.6l3-12.6c.2-.9.1-1.7-.6-2.4-.6-.5-1.5-.7-2.1-.2-9.7 8.2-18.4 17.5-25.9 27.7 1 .2 2 .5 3 .7-1.6-4-2.6-8.3-2.7-12.6-.1-1.6-2.1-2.6-3.2-1.3-2.9 3.9-5.8 7.8-8.4 11.9-2.6 4.2-4.1 8.6-4.8 13.5-.7 4.8-.9 9.7-1 14.6-.1 5.1-.1 10.2.2 15.3.3 5.7.9 11.3 1.7 16.9.1 1 .9 2 2 1.9 1 0 1.7-1.1 1.5-2.1-1.4-9.6-2.1-19.3-2-29 .1-4.9.3-9.8.8-14.7.5-4.5 1.4-8.7 3.7-12.6 2.6-4.6 5.8-8.9 9-13.1-1.1-.4-2.1-.8-3.2-1.3.2 4.7 1.2 9.3 3 13.7.5 1.2 2.1 2 3 .7 7.3-10 15.8-19.1 25.2-27.1-.9-.9-1.8-1.7-2.7-2.6l-3 12.6c-.2.9-.1 1.7.6 2.4.6.5 1.5.7 2.1.2 7.3-5.3 15.1-10.1 23.2-14.2-.8-.8-1.6-1.5-2.4-2.3-.1 3.4-.1 6.7-.2 10.1 0 1.5 1.3 3 2.8 2.1 5.3-3.3 10.8-6.2 16.6-8.6-.8-.8-1.6-1.5-2.4-2.3-.7 4.3-1.4 8.7-2.1 13-.2 1.1 1.1 3 2.4 2.3 6.3-3.3 12.6-6.4 19.1-9.2-.8-.9-1.5-1.8-2.3-2.7-1.6 5-3.8 9.8-6.4 14.3-.5.8-.4 1.8.3 2.5 1 .6 2.1.7 2.6-.1"/>
	<path d="M256.2 24.1c5.7-2.1 11.3-4.3 17-6.4-.7-1.1-1.4-2.1-2.1-3.2q-6.15 10.05-11.7 20.4c-.4.8-.5 1.7.1 2.4.4.6 1.3 1.2 2.1.8 5.4-2.6 11.1-4 17-4.3-.6-1.1-1.1-2.2-1.7-3.3-4.3 5.3-8.5 10.7-12.8 16-1 1.2-1.9 2.4-2.6 3.8s-1 3-1.2 4.6l-1.2 9.9c-.5 3.8-1 7.6-1.4 11.5-.1 1 .6 2.2 1.6 2.4 1 .3 1.9-.5 2-1.5.8-6.5 1.6-13.1 2.4-19.6.2-1.4.2-2.9.7-4.2.4-1.3 1.4-2.4 2.2-3.5 2.1-2.6 4.1-5.2 6.2-7.8 2.3-2.9 4.7-5.9 7-8.8 1-1.2-.1-3.4-1.7-3.3-6.2.3-12.3 1.9-17.9 4.5.7 1.1 1.4 2.2 2.1 3.2 3.7-6.9 7.5-13.8 11.6-20.5.8-1.3-.3-3.8-2.1-3.2-5.6 2.2-11.3 4.3-16.9 6.5-2.1.8-.7 4.4 1.3 3.6M183.4 96c5.6.3 11.2.5 16.8.5 1 0 1.6-1.2 1.5-2.1-.1-1-.9-1.9-2-1.9q-8.4-.3-16.8-.3c-1 0-1.5 1.1-1.4 1.9.1 1.1.9 1.8 1.9 1.9m47-2.1c3.2-.1 6.3-.2 9.5-.3 1.6-.1 3.1-.1 4.7-.2s3.2 0 4.8-.2c2.3-.3 1.6-3.8-.5-3.9-1.6-.1-3.2.1-4.8.2s-3.1.1-4.7.2c-3.2.1-6.3.3-9.5.5-2.2 0-1.6 3.7.5 3.7"/>
	<path d="M187.9 93.8c-.3 1.4-.6 2.8-.5 4.2s.7 3 1.9 3.9c1.3 1 2.8 1.3 4.3.9 1.3-.3 2.5-1.2 3.3-2.4.5-.8.8-1.6 1-2.5.2-.8.3-1.7.2-2.5-.1-.9-.7-1.7-1.7-1.8-.8-.1-1.6.6-1.6 1.4v.6c0 .1 0 .3 0 0v.2c0 .3 0 .6-.1.9 0 .1-.1.5 0 .2s0 .1-.1.2c-.1.3-.2.5-.3.7-.2.4.1-.2 0 0-.1.1-.1.2-.2.4-.1.1-.1.2-.2.3l-.1.1c.1-.1.2-.2 0-.1-.2.2-.3.3-.5.4-.3.2.3-.1 0 0-.1.1-.2.1-.4.2-.1 0-.2.1-.4.1h-.1c-.2.1.3-.1.1 0-.2 0-.5.1-.7 0h-.2s.4.1.2 0c-.1 0-.2 0-.3-.1-.1 0-.4-.2-.2 0 .3.1-.1-.1-.2-.1l-.1-.1c-.2-.1.3.2.1.1l-.2-.2c-.2-.2.3.4 0 0-.1-.1-.3-.5-.1-.1.2.3 0 0 0-.1s-.1-.2-.1-.3c-.1-.4.1.4 0 .1 0-.1 0-.3-.1-.4v-.4c0-.4 0 .4 0 0 0-.3 0-.6.1-.9.1-.6.2-1.1.3-1.7.1-.4-.1-1-.3-1.4-.2-.3-.5-.5-.8-.7-.8-.2-1.8.1-2 .9m46.5-1.5c-.3 2.4-.3 5.6 1.8 7.3 1.2 1 2.7 1.2 4.2.8 1.3-.4 2.4-1.3 3.1-2.4.8-1.3 1.2-2.8 1.4-4.4 0-.3.1-.6.1-.9 0-.5 0-.9-.3-1.4-.2-.4-.7-.9-1.2-1-.8-.2-1.5.3-1.8 1.1-.2.4-.2.9-.2 1.4 0 .3-.1.6-.2.9 0 .1 0 .2-.1.2 0 0 .1-.4 0-.1 0 .2-.1.3-.1.5l-.3.9c0 .1-.2.3 0 .1.1-.2 0 0 0 .1-.1.2-.2.3-.3.5-.1.1-.2.2-.2.3-.1.2.2-.2.1-.1-.1 0-.1.1-.2.1-.1.1-.2.2-.3.2s-.1.1-.2.1-.3.2-.1.1c.3-.1-.1.1-.2.1-.1.1-.3.1-.4.2-.1 0-.1 0-.2.1-.2.1-.1-.1.1 0h-.7c.3 0 0 0 0 0-.1 0-.2 0-.2-.1-.2 0 0-.1.1.1 0-.1-.2-.1-.2-.1l-.1-.1c-.3-.2.3.3.1 0l-.3-.3c.3.3.2.3.1.2 0-.1-.1-.1-.1-.2s-.1-.1-.1-.2c-.1-.2.2.5.1.2-.1-.1-.1-.3-.2-.4V96c-.1-.3.1.5 0 .1 0-.1-.1-.3-.1-.4 0-.3-.1-.6-.1-.9 0-.1.1-.2 0 .2v-.8c0-.3 0-.6.1-.9.1-.9-.5-2-1.4-2.2-.7-.4-1.4.3-1.5 1.2m-51.3-2.7c3.7-.3 7.4-.8 11.1-1.4 1.8-.3 3.7-.6 5.5-.9-.1 0 .9-.1.6-.2.1 0 .6.7.7.8.6.7 1.2 1.5 2.1 2.1 1.4.8 2.7-.9 2.1-2.2-.5-1-1.3-1.8-2-2.6-.6-.7-1.2-1.4-2-1.7-1-.3-2 0-3 .2s-2.1.4-3.1.6c-4.1.7-8.2 1.3-12.3 2-2.1.3-1.6 3.5.3 3.3m45-.5c.7-.7 1.3-1.5 2-2.3.2-.3.5-.6.8-.8.2-.2.3-.4.5-.6h.2c.4 0 1.1.2 1.5.3s.7.2 1.1.2c.9.2 1.8.4 2.8.6 1.8.4 3.6.7 5.3 1.1.9.2 1.7.4 2.6.5 1 .2 2 .5 3 .3.6-.1.9-1 .9-1.5 0-.7-.4-1.3-1-1.7-.8-.6-2-.6-3-.8s-2.1-.4-3.1-.6c-2-.4-4.1-.8-6.1-1.2l-3-.6c-1-.2-2-.5-2.9.1-.8.5-1.4 1.4-2.1 2.2l-2.1 2.4c-1.2 1.5 1.1 4 2.6 2.4M210.8 143c.6.2 1.2.5 1.9.7.6.1 1.3.2 2 .2 1.4 0 2.6-.4 3.8-1.1.3-.2.5-.7.6-1.1 0-.4 0-.8-.2-1.1-.3-.6-1.2-1.3-1.9-.9s-1.5.6-2.3.8c.1 0 .3-.1.4-.1-.6.1-1.3.2-1.9.1h-.2q-.15 0 0 0h-.5q.3 0 0 0c-.3 0-.6-.1-.9-.2-.7-.2-1.3.4-1.5 1-.2.4 0 1.4.7 1.7"/>
	<path d="M184.6 87.7c-.1-.8-.3-1.7-.4-2.5-.1-.4-.1-.8-.2-1.3s-.1-1.2-.4-1.7c-.2-.4-.4-.7-.7-1-.3-.2-.7-.4-1.1-.4-.8.1-1.4.7-1.5 1.5-.1.6.1 1.1.2 1.7.1.4.1.8.2 1.3.2.8.3 1.7.5 2.5.1.5.3 1 .7 1.4.3.3.8.5 1.2.5 1-.1 1.6-1 1.5-2"/>
	<path d="M182.5 84.2c3.2-.5 6.4-1 9.5-1.5 1.5-.3 3-.6 4.6-.9.8-.2 1.6-.3 2.5-.5s1.8-.3 2.5-.8c1.2-.9.5-3.1-.8-3.4-1.4-.3-3.2.4-4.7.7-1.6.3-3.2.6-4.7.9-3.1.6-6.2 1.1-9.3 1.7-1 .2-1.5 1-1.4 2 .1.9.9 2 1.8 1.8"/>
	<path d="M199 79.6c.7 1.9 1.4 3.9 2.1 5.9.3.8.6 1.7.9 2.5.1.2.2.5.2.7 0 .1 0 .2.1.2-.2-.6.2.4.3.5.1.2-.2-.5-.2-.4.3.9 1.4 1.7 2.3 1.3 1-.4 1.2-1.5.9-2.5 0 .3.1.7.1 1 0-.7-.2-1.4-.5-2.1-.3-.8-.6-1.7-.9-2.5-.7-2-1.4-3.9-2.2-5.8-.3-.8-1.3-1.7-2.2-1.2-.9.4-1.2 1.5-.9 2.4m29 8.5c.6-1.8 1.3-3.5 2.1-5.2.4-.8.7-1.7 1.1-2.5l1.3-2.6c.4-.8-.1-2-.8-2.5-.6-.5-1.7-.5-2.2.3-1.9 3.4-3.4 7.1-4.7 10.7-.3.9.1 2.1.9 2.5.9.5 1.9.2 2.3-.7"/>
	<path d="M231.3 77.9c1.5.1 2.9.6 4.3.9s2.9.7 4.3 1.1c2.8.8 5.6 1.8 8.2 3.1 2.3 1.1 3.3-2.5 1.3-3.6-2.9-1.5-6-2.5-9.1-3.4-1.5-.4-3.1-.8-4.6-1.1-1.6-.4-3.2-.7-4.9-.7-1 0-1.5 1.1-1.4 1.9.2 1 .9 1.8 1.9 1.8"/>
	<path d="M248.9 87.8c.3-.9.5-1.7.8-2.6.3-1 .7-2 .9-3 .1-.5-.1-1.2-.4-1.5-.2-.3-.6-.6-1-.8-.3-.1-.8-.2-1.1 0-.5.2-.7.5-.9 1-.2.4-.3.8-.4 1.2s-.3.9-.4 1.3c-.3.8-.5 1.7-.8 2.6q-.3.75 0 1.5c.2.4.5.9 1 1.2.4.2.9.3 1.3.1.5-.3.9-.6 1-1"/>
</svg>
