<svg xmlns="http://www.w3.org/2000/svg" xmlns:xlink="http://www.w3.org/1999/xlink" width="40" height="40" version="1.1" id="svg62"><defs id="defs11"><linearGradient id="gradient" gradientUnits="userSpaceOnUse" x1="0" x2="100" y1="100" y2="0"><stop offset="0%" stop-color="#0a00b2" id="stop2"/><stop offset="50%" stop-color="red" id="stop4"/><stop offset="100%" stop-color="#fffc00" id="stop6"/></linearGradient><linearGradient xlink:href="#gradient" id="linearGradient923" gradientUnits="userSpaceOnUse" x1="0" y1="100" x2="100" y2="0"/><linearGradient xlink:href="#gradient" id="linearGradient925" gradientUnits="userSpaceOnUse" x1="0" y1="100" x2="100" y2="0"/><linearGradient xlink:href="#gradient" id="linearGradient927" gradientUnits="userSpaceOnUse" x1="0" y1="100" x2="100" y2="0"/><linearGradient xlink:href="#gradient" id="linearGradient929" gradientUnits="userSpaceOnUse" x1="0" y1="100" x2="100" y2="0"/><linearGradient xlink:href="#gradient" id="linearGradient931" gradientUnits="userSpaceOnUse" x1="0" y1="100" x2="100" y2="0"/><linearGradient xlink:href="#gradient" id="linearGradient933" gradientUnits="userSpaceOnUse" x1="0" y1="100" x2="100" y2="0"/><linearGradient xlink:href="#gradient" id="linearGradient935" gradientUnits="userSpaceOnUse" x1="0" y1="100" x2="100" y2="0"/><linearGradient xlink:href="#gradient" id="linearGradient937" gradientUnits="userSpaceOnUse" x1="0" y1="100" x2="100" y2="0"/><linearGradient xlink:href="#gradient" id="linearGradient939" gradientUnits="userSpaceOnUse" x1="0" y1="100" x2="100" y2="0"/><linearGradient xlink:href="#gradient" id="linearGradient941" gradientUnits="userSpaceOnUse" x1="0" y1="100" x2="100" y2="0"/><linearGradient xlink:href="#gradient" id="linearGradient943" gradientUnits="userSpaceOnUse" x1="0" y1="100" x2="100" y2="0"/><linearGradient xlink:href="#gradient" id="linearGradient945" gradientUnits="userSpaceOnUse" x1="0" y1="100" x2="100" y2="0"/><linearGradient xlink:href="#gradient" id="linearGradient947" gradientUnits="userSpaceOnUse" x1="0" y1="100" x2="100" y2="0"/><linearGradient xlink:href="#gradient" id="linearGradient949" gradientUnits="userSpaceOnUse" x1="0" y1="100" x2="100" y2="0"/><linearGradient xlink:href="#gradient" id="linearGradient951" gradientUnits="userSpaceOnUse" x1="0" y1="100" x2="100" y2="0"/><linearGradient xlink:href="#gradient" id="linearGradient953" gradientUnits="userSpaceOnUse" x1="0" y1="100" x2="100" y2="0"/><linearGradient xlink:href="#gradient" id="linearGradient955" gradientUnits="userSpaceOnUse" x1="0" y1="100" x2="100" y2="0"/><linearGradient xlink:href="#gradient" id="linearGradient957" gradientUnits="userSpaceOnUse" x1="0" y1="100" x2="100" y2="0"/><linearGradient xlink:href="#gradient" id="linearGradient959" gradientUnits="userSpaceOnUse" x1="0" y1="100" x2="100" y2="0"/><linearGradient xlink:href="#gradient" id="linearGradient961" gradientUnits="userSpaceOnUse" x1="0" y1="100" x2="100" y2="0"/><linearGradient xlink:href="#gradient" id="linearGradient963" gradientUnits="userSpaceOnUse" x1="0" y1="100" x2="100" y2="0"/><linearGradient xlink:href="#gradient" id="linearGradient965" gradientUnits="userSpaceOnUse" x1="0" y1="100" x2="100" y2="0"/><linearGradient xlink:href="#gradient" id="linearGradient967" gradientUnits="userSpaceOnUse" x1="0" y1="100" x2="100" y2="0"/><linearGradient xlink:href="#gradient" id="linearGradient969" gradientUnits="userSpaceOnUse" x1="0" y1="100" x2="100" y2="0"/><linearGradient xlink:href="#gradient" id="linearGradient971" gradientUnits="userSpaceOnUse" x1="0" y1="100" x2="100" y2="0"/><style id="style9">.petal{opacity:.65}</style></defs><g id="petals" transform="matrix(.4 0 0 .4 0 .106)" fill="url(#linearGradient971)"><path class="petal" d="M33.6 14.8a16.938 16.938 0 003.116 11.142 11.457 11.457 0 006.858 4.3 3.033 3.033 0 002.385-.713 11.924 11.924 0 003.634-10.837c-1.257-7.54-6.19-12.43-12.4-17A32.468 32.468 0 0033.6 14.8z" id="path13" opacity=".65" fill="url(#linearGradient923)"/><path class="petal" d="M25.117 20.232a16.938 16.938 0 005.893 9.956 11.457 11.457 0 007.738 2.381 3.033 3.033 0 002.119-1.306 11.924 11.924 0 00.705-11.409C38.406 12.9 32.376 9.449 25.2 6.642a32.468 32.468 0 00-.083 13.59z" id="path15" opacity=".65" fill="url(#linearGradient925)"/><path class="petal" d="M18.329 27.677a16.937 16.937 0 008.271 8.092 11.457 11.457 0 008.09.3 3.033 3.033 0 001.709-1.81 11.924 11.924 0 00-2.271-11.2c-4.859-5.9-11.576-7.67-19.237-8.523a32.466 32.466 0 003.438 13.141z" id="path17" opacity=".65" fill="url(#linearGradient927)"/><path class="petal" d="M13.7 36.626A16.938 16.938 0 0023.781 42.3a11.457 11.457 0 007.891-1.807 3.033 3.033 0 001.182-2.193 11.924 11.924 0 00-5.093-10.233c-6.221-4.443-13.167-4.412-20.787-3.254A32.468 32.468 0 0013.7 36.626z" id="path19" opacity=".65" fill="url(#linearGradient929)"/><path class="petal" d="M11.543 46.468a16.938 16.938 0 0011.208 2.873 11.457 11.457 0 007.155-3.788 3.034 3.034 0 00.575-2.422 11.924 11.924 0 00-7.568-8.566c-7.16-2.681-13.861-.854-20.923 2.235a32.468 32.468 0 009.553 9.668z" id="path21" opacity=".65" fill="url(#linearGradient931)"/><path class="petal" d="M12.008 56.532a16.938 16.938 0 0011.569-.126 11.457 11.457 0 005.931-5.51 3.033 3.033 0 00-.072-2.488 11.924 11.924 0 00-9.527-6.315C12.3 41.356 6.3 44.855.279 49.669a32.467 32.467 0 0011.729 6.863z" id="path23" opacity=".65" fill="url(#linearGradient933)"/><path class="petal" d="M15.062 66.134A16.938 16.938 0 0026.2 63.018a11.457 11.457 0 004.3-6.858 3.033 3.033 0 00-.713-2.385 11.924 11.924 0 00-10.837-3.634c-7.54 1.257-12.43 6.19-17 12.4a32.468 32.468 0 0013.112 3.593z" id="path25" opacity=".65" fill="url(#linearGradient935)"/><path class="petal" d="M20.5 74.618a16.938 16.938 0 009.956-5.893 11.457 11.457 0 002.381-7.738 3.033 3.033 0 00-1.306-2.119 11.925 11.925 0 00-11.409-.705c-6.958 3.166-10.4 9.2-13.212 16.376a32.466 32.466 0 0013.59.079z" id="path27" opacity=".65" fill="url(#linearGradient937)"/><path class="petal" d="M27.943 81.406a16.938 16.938 0 008.092-8.269 11.457 11.457 0 00.3-8.09 3.033 3.033 0 00-1.81-1.709 11.924 11.924 0 00-11.2 2.271c-5.9 4.859-7.67 11.576-8.523 19.237a32.467 32.467 0 0013.141-3.44z" id="path29" opacity=".65" fill="url(#linearGradient939)"/><path class="petal" d="M36.891 86.035a16.938 16.938 0 005.676-10.082 11.457 11.457 0 00-1.807-7.891 3.033 3.033 0 00-2.191-1.182 11.924 11.924 0 00-10.233 5.094c-4.443 6.221-4.412 13.167-3.254 20.787a32.467 32.467 0 0011.809-6.726z" id="path31" opacity=".65" fill="url(#linearGradient941)"/><path class="petal" d="M46.733 88.191a16.937 16.937 0 002.873-11.207 11.457 11.457 0 00-3.788-7.155 3.033 3.033 0 00-2.422-.575 11.924 11.924 0 00-8.566 7.568c-2.681 7.159-.854 13.86 2.237 20.921a32.465 32.465 0 009.666-9.552z" id="path33" opacity=".65" fill="url(#linearGradient943)"/><path class="petal" d="M56.8 87.726a16.937 16.937 0 00-.125-11.569 11.457 11.457 0 00-5.511-5.931 3.033 3.033 0 00-2.488.072 11.924 11.924 0 00-6.315 9.528c-.737 7.609 2.762 13.609 7.576 19.629A32.466 32.466 0 0056.8 87.726z" id="path35" opacity=".65" fill="url(#linearGradient945)"/><path class="petal" d="M66.4 84.672a16.938 16.938 0 00-3.116-11.142 11.457 11.457 0 00-6.858-4.3 3.033 3.033 0 00-2.385.713 11.924 11.924 0 00-3.634 10.837c1.257 7.54 6.19 12.43 12.4 17A32.468 32.468 0 0066.4 84.672z" id="path37" opacity=".65" fill="url(#linearGradient947)"/><path class="petal" d="M74.883 79.237a16.937 16.937 0 00-5.893-9.956 11.456 11.456 0 00-7.738-2.381 3.033 3.033 0 00-2.119 1.306 11.924 11.924 0 00-.705 11.409c3.166 6.958 9.2 10.4 16.375 13.212a32.468 32.468 0 00.08-13.59z" id="path39" opacity=".65" fill="url(#linearGradient949)"/><path class="petal" d="M81.671 71.792A16.938 16.938 0 0073.4 63.7a11.457 11.457 0 00-8.09-.3 3.033 3.033 0 00-1.708 1.81 11.924 11.924 0 002.271 11.2c4.859 5.9 11.576 7.67 19.237 8.523a32.466 32.466 0 00-3.439-13.141z" id="path41" opacity=".65" fill="url(#linearGradient951)"/><path class="petal" d="M86.3 62.843a16.938 16.938 0 00-10.082-5.676 11.457 11.457 0 00-7.891 1.807 3.033 3.033 0 00-1.182 2.191A11.924 11.924 0 0072.239 71.4c6.221 4.443 13.167 4.412 20.787 3.254A32.467 32.467 0 0086.3 62.843z" id="path43" opacity=".65" fill="url(#linearGradient953)"/><path class="petal" d="M88.457 53a16.938 16.938 0 00-11.207-2.873 11.457 11.457 0 00-7.155 3.788 3.033 3.033 0 00-.574 2.422 11.925 11.925 0 007.567 8.563c7.158 2.681 13.86.854 20.921-2.237A32.467 32.467 0 0088.457 53z" id="path45" opacity=".65" fill="url(#linearGradient955)"/><path class="petal" d="M87.992 42.936a16.938 16.938 0 00-11.569.126 11.457 11.457 0 00-5.931 5.511 3.033 3.033 0 00.072 2.488 11.924 11.924 0 009.527 6.315c7.609.737 13.609-2.762 19.63-7.576a32.468 32.468 0 00-11.729-6.864z" id="path47" opacity=".65" fill="url(#linearGradient957)"/><path class="petal" d="M84.938 33.335A16.938 16.938 0 0073.8 36.451a11.457 11.457 0 00-4.3 6.858 3.033 3.033 0 00.714 2.385 11.924 11.924 0 0010.837 3.634c7.54-1.257 12.43-6.19 17-12.4a32.466 32.466 0 00-13.113-3.593z" id="path49" opacity=".65" fill="url(#linearGradient959)"/><path class="petal" d="M79.5 24.851a16.938 16.938 0 00-9.956 5.893 11.457 11.457 0 00-2.381 7.738 3.033 3.033 0 001.309 2.118 11.924 11.924 0 0011.409.705c6.958-3.166 10.4-9.2 13.212-16.375a32.468 32.468 0 00-13.593-.079z" id="path51" opacity=".65" fill="url(#linearGradient961)"/><path class="petal" d="M72.057 18.063a16.938 16.938 0 00-8.092 8.269 11.457 11.457 0 00-.3 8.09 3.033 3.033 0 001.81 1.709 11.924 11.924 0 0011.2-2.271c5.9-4.859 7.67-11.576 8.523-19.237a32.467 32.467 0 00-13.141 3.44z" id="path53" opacity=".65" fill="url(#linearGradient963)"/><path class="petal" d="M63.109 13.434a16.937 16.937 0 00-5.676 10.082 11.457 11.457 0 001.807 7.891 3.033 3.033 0 002.191 1.182A11.924 11.924 0 0071.664 27.5c4.443-6.221 4.412-13.167 3.254-20.787a32.466 32.466 0 00-11.809 6.721z" id="path55" opacity=".65" fill="url(#linearGradient965)"/><path class="petal" d="M53.267 11.278a16.937 16.937 0 00-2.873 11.207 11.456 11.456 0 003.788 7.155 3.033 3.033 0 002.422.575 11.924 11.924 0 008.566-7.568c2.681-7.159.854-13.86-2.237-20.921a32.466 32.466 0 00-9.666 9.552z" id="path57" opacity=".65" fill="url(#linearGradient967)"/><path class="petal" d="M43.2 11.743a16.938 16.938 0 00.126 11.569 11.457 11.457 0 005.511 5.931 3.033 3.033 0 002.488-.072 11.924 11.924 0 006.315-9.528c.739-7.609-2.76-13.609-7.574-19.629A32.468 32.468 0 0043.2 11.743z" id="path59" opacity=".65" fill="url(#linearGradient969)"/></g></svg>