<?xml version="1.0" encoding="UTF-8" standalone="no"?>
<svg
   id="Layer_1"
   data-name="Layer 1"
   viewBox="0 0 48 48"
   version="1.1"
   sodipodi:docname="Wikifunctions-logo_sister.svg"
   width="48"
   height="48"
   inkscape:version="1.2-alpha1 (b6a15bb, 2022-02-23)"
   xmlns:inkscape="http://www.inkscape.org/namespaces/inkscape"
   xmlns:sodipodi="http://sodipodi.sourceforge.net/DTD/sodipodi-0.dtd"
   xmlns="http://www.w3.org/2000/svg"
   xmlns:svg="http://www.w3.org/2000/svg">
  <sodipodi:namedview
     id="namedview28"
     pagecolor="#ffffff"
     bordercolor="#000000"
     borderopacity="0.25"
     inkscape:pageshadow="2"
     inkscape:pageopacity="0.0"
     inkscape:pagecheckerboard="0"
     inkscape:deskcolor="#d1d1d1"
     showgrid="false"
     inkscape:zoom="4.4619195"
     inkscape:cx="107.46496"
     inkscape:cy="110.26644"
     inkscape:window-width="1480"
     inkscape:window-height="1292"
     inkscape:window-x="1560"
     inkscape:window-y="1867"
     inkscape:window-maximized="0"
     inkscape:current-layer="Layer_1" />
  <defs
     id="defs11">
    <style
       id="style9">.cls-1,.cls-4{fill:#069;}.cls-1{fill-rule:evenodd;}.cls-2{fill:#396;}.cls-3{fill:#900;}</style>
  </defs>
  <g
     id="Layer_2"
     data-name="Layer 2"
     transform="matrix(0.17420831,0,0,0.17420831,3.9500175,3.9589066)">
    <g
       id="Layer_1-2"
       data-name="Layer 1-2">
      <path
         class="cls-1"
         d="m 180.84,81.24 q -2.85,0 -6.43,0.35 a 56,56 0 0 1 -6.07,0.37 c -1.66,0 -3.73,-0.12 -6.19,-0.37 -2.67,-0.23 -5,-0.34 -6.9,-0.35 -0.72,0 -1.07,0.55 -1.07,1.67 0,1.12 0.23,1.66 0.71,1.66 5.32,0.25 8,2.3 8,6.2 a 14.31,14.31 0 0 1 -1.19,5.35 l -16.25,37.79 2.64,5.93 19.2,-43.25 c 2,-4.52 3.9,-7.59 5.77,-9.19 a 12.51,12.51 0 0 1 7.2,-2.83 1.25,1.25 0 0 0 1,-0.59 2.17,2.17 0 0 0 0.45,-1.32 c -0.03,-0.95 -0.31,-1.42 -0.87,-1.42 z"
         id="path13" />
      <path
         class="cls-1"
         d="m 123,84.57 q 8,0.38 8,5.83 a 12.88,12.88 0 0 1 -1.79,5.72 l -0.33,0.61 2.65,5.93 3.28,-6.07 q 4.22,-7.38 7,-9.46 a 15.17,15.17 0 0 1 7.47,-2.56 c 0.87,0 1.31,-0.64 1.31,-1.91 0,-1 -0.24,-1.42 -0.71,-1.42 -2,0 -4.55,0.14 -7.56,0.41 -2.38,0.2 -4.19,0.31 -5.41,0.31 q -2.57,0 -6.55,-0.37 c -2.78,-0.23 -5.11,-0.34 -7,-0.35 -0.23,0 -0.47,0.18 -0.71,0.54 a 2,2 0 0 0 -0.36,1.13 c -0.02,1.09 0.22,1.66 0.71,1.66 z"
         id="path15" />
      <path
         class="cls-1"
         d="M 92.63,133.78 75.32,94.69 a 9.26,9.26 0 0 1 -1,-3.57 5.42,5.42 0 0 1 2.3,-4.53 11.83,11.83 0 0 1 6.28,-2 c 0.39,0 0.59,-0.55 0.59,-1.66 0,-1.11 -0.32,-1.67 -1,-1.67 -2.65,0 -5.71,0.12 -9.16,0.35 -3.29,0.25 -6.15,0.38 -8.58,0.37 -2.43,-0.01 -5,-0.13 -7.61,-0.37 -2.9,-0.23 -5.68,-0.34 -8.34,-0.35 -0.63,0 -1,0.55 -1,1.67 a 1.69,1.69 0 0 0 0.42,1.15 1.18,1.18 0 0 0 0.9,0.51 16.18,16.18 0 0 1 8.62,3.13 q 3.1,2.52 5.89,8.89 l 21.92,50.27 z"
         id="path17" />
      <path
         class="cls-2"
         d="m 137.51,164.71 a 1.58,1.58 0 0 0 1.44,1 H 152 a 1.54,1.54 0 0 0 1.54,-1.54 1.57,1.57 0 0 0 -0.14,-0.64 L 121.52,92 A 19.21,19.21 0 0 0 117.41,86.17 16.21,16.21 0 0 0 111.08,82.56 34,34 0 0 0 101,81.3 41.17,41.17 0 0 0 89.23,83 1.55,1.55 0 0 0 88.17,84.73 L 90,95.81 a 1.52,1.52 0 0 0 1.5,1.29 1.71,1.71 0 0 0 0.5,-0.1 20,20 0 0 1 6.42,-1 14.75,14.75 0 0 1 4.76,0.64 7.8,7.8 0 0 1 3.08,1.86 10.1,10.1 0 0 1 2,3 c 0.55,1.17 1.13,2.53 1.74,4 l 1.29,3.27 -29.11,54.83 a 1.56,1.56 0 0 0 0.93,2 1.5,1.5 0 0 0 0.52,0.09 h 15.42 a 1.52,1.52 0 0 0 1.41,-0.92 l 0.09,-0.17 19.6,-36.22 z"
         id="path19" />
      <path
         class="cls-3"
         d="M 43.07,59.93 A 90.23,90.23 0 0 1 186.21,59.5 l 20.32,-13.65 a 114.68,114.68 0 0 0 -184,0.74 z"
         id="path21" />
      <path
         class="cls-4"
         d="m 198.47,80.68 a 89.93,89.93 0 0 1 6.71,34.12 c 0,49.84 -40.54,90.94 -90.38,90.94 -49.84,0 -90.37,-41.1 -90.37,-90.94 A 89.65,89.65 0 0 1 30.94,81.18 L 10.13,67.67 A 114,114 0 0 0 0,114.8 c 0,63.31 51.5,115.37 114.8,115.37 63.3,0 114.81,-52.06 114.81,-115.37 a 114.17,114.17 0 0 0 -10.52,-48 z"
         id="path23" />
    </g>
  </g>
</svg>
